<?xml version="1.0" encoding="utf-8"?>
<!-- Generator: Adobe Illustrator 16.0.4, SVG Export Plug-In . SVG Version: 6.00 Build 0)  -->
<!DOCTYPE svg PUBLIC "-//W3C//DTD SVG 1.1//EN" "http://www.w3.org/Graphics/SVG/1.1/DTD/svg11.dtd">
<svg version="1.1" id="blackking" xmlns="http://www.w3.org/2000/svg" xmlns:xlink="http://www.w3.org/1999/xlink" x="0px" y="0px"
	 width="38px" height="38px" viewBox="0 0 38 38" enable-background="new 0 0 38 38" xml:space="preserve">
<filter  id="AI_Shadow_1" filterUnits="objectBoundingBox">
	<feGaussianBlur  in="SourceAlpha" stdDeviation="1" result="blur"></feGaussianBlur>
	<feOffset  dx="2" dy="2" in="blur" result="offsetBlurredAlpha"></feOffset>
	<feMerge>
		<feMergeNode  in="offsetBlurredAlpha"></feMergeNode>
		<feMergeNode  in="SourceGraphic"></feMergeNode>
	</feMerge>
</filter>
<g opacity="0.5" filter="url(#AI_Shadow_1)">
	<path fill="#e2e2e2" d="M33.162,17.634c0-1.739-0.703-3.266-2.086-4.534c-1.389-1.272-2.871-1.917-4.402-1.917
		c-0.848,0-1.719,0.438-2.605,0.953c-0.756,0.438-1.016,0.679-1.635,1.342L22.26,13.71l-0.738-0.16l0.172-0.203
		c0.084-0.092,0.164-0.178,0.24-0.254c-0.781-1.129-1.557-1.812-2.312-2.054V8.061h1.824V6.834h-1.824v-1.62h-1.209v1.619h-1.824
		v1.227h1.824l0.172,3.257c-0.762,0.24-1.673,0.906-2.45,2.042c0.099,0.07,0.173-0.042,0.28,0.091l0.172,0.191l-0.363,0.21
		l-0.104-0.106c-0.648-0.705-1.378-1.298-2.168-1.76c-0.88-0.515-1.765-0.523-2.612-0.523c-1.544,0-2.753,0.536-4.142,1.82
		c-1.382,1.27-2.158,2.752-2.158,4.492c0,2.03,1.47,5.461,5.04,8.574l0.525,0.409l-1.05,6.067h19.05l-1.018-6.104l0.084-0.073
		c3.621-3.186,5.498-6.195,5.498-9.015H33.162z"/>
</g>
<path fill="#e2e2e2" d="M10.235,26.759l-1.039,6.225h9.821h9.821l-1.037-6.225c3.682-3.184,5.533-6.225,5.557-9.124
	c0-1.808-0.715-3.367-2.148-4.681c-1.434-1.312-2.943-1.969-4.535-1.969c-0.887,0-1.791,0.268-2.713,0.77
	c-0.789,0.458-1.49,1.028-2.113,1.696l-0.01-0.004c0.127-0.14,0.246-0.263,0.35-0.362c-1.031-1.536-2.053-2.323-3.062-2.377
	c0.229,0,0.492,0.07,0.701,0.126V8.225h1.822V6.638h-1.83v-1.62h-1.602v1.62h-1.824v1.62h1.824v2.609
	c0.262-0.091,0.526-0.136,0.795-0.136c-1.057,0.003-2.11,0.798-3.165,2.386c0.121,0.141,0.28,0.28,0.421,0.465h-0.004
	c-0.654-0.711-1.39-1.314-2.214-1.796c-0.915-0.534-1.815-0.801-2.702-0.801c-1.603,0-3.12,0.656-4.553,1.96
	c-1.432,1.312-2.143,2.872-2.131,4.68c0.024,2.899,1.905,5.979,5.545,9.135H10.235z"/>
<path fill="#666666" d="M19.017,32.983H9.196l1.039-6.226c-3.694-3.183-5.548-6.225-5.559-9.123c-0.011-1.808,0.7-3.368,2.131-4.681
	c1.434-1.313,2.951-1.97,4.553-1.97c0.888,0,1.82,0.28,2.73,0.77c0.915,0.56,1.75,1.19,2.449,2.03c0.691,0.84,1.26,1.749,1.68,2.805
	c0.427,1.05,0.7,1.89,0.841,2.59c0.136-0.682,0.416-1.537,0.835-2.566c0.422-1.028,0.982-1.963,1.688-2.805
	c0.693-0.818,1.502-1.494,2.422-2.029c0.92-0.534,1.824-0.801,2.711-0.801c1.592,0,3.082,0.63,4.551,1.969
	c1.434,1.329,2.17,2.869,2.17,4.689c-0.025,2.898-1.875,5.941-5.559,9.123l1.039,6.226L19.017,32.983L19.017,32.983z M11.873,26.503
	c2.285-0.842,4.666-1.271,7.145-1.297c-0.012-1.433-0.25-2.953-0.715-4.562c-0.467-1.607-0.945-2.896-1.434-3.861
	c-0.092-0.159-0.17-0.312-0.238-0.461c-0.068-0.146-0.135-0.277-0.205-0.393c-0.318-0.486-0.592-0.88-0.818-1.176
	c-0.58-0.717-1.263-1.312-2.047-1.791c-0.783-0.478-1.547-0.716-2.285-0.716c-1.171,0-2.353,0.528-3.545,1.585
	c-1.194,1.093-1.792,2.353-1.792,3.893c0,1.33,0.56,2.8,1.68,4.34c1.134,1.539,2.521,3.01,4.271,4.439H11.873z M17.364,23.743
	c-1.751,0.127-3.474,0.455-5.167,0.99c-1.398-1.229-2.536-2.439-3.411-3.641c-0.876-1.199-1.312-2.346-1.312-3.436
	c0-1.012,0.417-1.916,1.254-2.712c0.835-0.795,1.678-1.192,2.532-1.192c0.76,0,1.54,0.35,2.311,1.049
	c0.767,0.7,1.33,1.471,1.75,2.227c0.34,0.63,0.77,1.609,1.26,2.983c0.511,1.422,0.769,2.612,0.769,3.745L17.364,23.743z
	 M19.017,31.721h8.338l-0.205-1.245h-8.133h-8.134l-0.204,1.245H19.017z M11.395,27.458l-0.443,2.66l2.473-1.433L11.395,27.458z
	 M21.338,14.056c-1.023-1.375-1.797-2.064-2.32-2.064c-0.535,0-1.308,0.689-2.317,2.064c-0.354-0.41-0.638-0.723-0.854-0.938
	c1.059-1.591,2.115-2.387,3.171-2.387c1.046,0,2.101,0.77,3.15,2.387C21.963,13.313,21.688,13.663,21.338,14.056L21.338,14.056z
	 M18.216,6.638v-1.62h1.604v1.62h1.822v1.62H19.82v2.609c-0.545-0.182-1.082-0.182-1.604,0V8.257h-1.824v-1.62H18.216z
	 M16.647,27.919l2.37,1.465l2.372-1.431l-2.372-1.468L16.647,27.919z M20.076,14.123c-0.434,0.579-0.786,1.211-1.059,1.89
	c-0.285-0.682-0.637-1.312-1.058-1.893c0.351-0.545,0.704-0.914,1.058-1.107c0.341,0.23,0.711,0.58,1.061,1.11H20.076z
	 M19.017,25.207c2.465,0,4.829,0.421,7.139,1.297c1.707-1.421,3.123-2.896,4.246-4.425c1.125-1.529,1.688-2.975,1.688-4.34
	c0-1.545-0.6-2.848-1.799-3.905c-1.199-1.057-2.377-1.585-3.537-1.585c-0.752,0-1.518,0.238-2.303,0.716s-1.461,1.074-2.027,1.819
	c-0.24,0.297-0.512,0.689-0.82,1.178c-0.068,0.113-0.139,0.244-0.213,0.392s-0.15,0.302-0.23,0.489
	c-0.5,0.967-0.982,2.255-1.447,3.863c-0.463,1.567-0.685,3.037-0.685,4.501H19.017z M25.838,24.724
	c-1.707-0.535-3.428-0.863-5.168-0.99c0-1.102,0.256-2.34,0.77-3.717c0.512-1.375,0.941-2.37,1.295-2.984
	c0.387-0.773,0.965-1.514,1.732-2.225s1.535-1.066,2.311-1.066c0.84,0,1.68,0.421,2.52,1.19c0.836,0.771,1.26,1.681,1.26,2.712
	c0,1.09-0.438,2.236-1.312,3.436c-0.873,1.194-2.025,2.455-3.426,3.668h0.02V24.724z M26.641,27.458l-2.029,1.228l2.473,1.433
	L26.641,27.458z"/>
<g>
	<path fill="#e2e2e2" d="M19.82,5.018v1.62h1.822v1.62H19.82v2.609c-0.232-0.077-0.463-0.115-0.692-0.126
		c1.008,0.07,2.03,0.84,3.081,2.376c-0.104,0.1-0.223,0.225-0.352,0.363l0.01,0.004c0.623-0.668,1.326-1.237,2.115-1.696
		c0.922-0.534,1.824-0.801,2.713-0.801c1.59,0,3.08,0.63,4.549,1.969c1.434,1.33,2.17,2.87,2.17,4.69
		c-0.025,2.898-1.875,5.94-5.557,9.123l1.037,6.225h-9.877H9.196l1.039-6.225c-3.694-3.183-5.548-6.225-5.559-9.123
		c-0.011-1.809,0.7-3.369,2.131-4.682c1.434-1.312,2.951-1.969,4.553-1.969c0.888,0,1.82,0.28,2.73,0.77
		c0.823,0.49,1.539,1.05,2.24,1.796l0.003-0.002c-0.165-0.183-0.313-0.343-0.435-0.465c1.055-1.587,2.109-2.383,3.164-2.386
		c0,0-0.002,0-0.003,0c-0.267,0-0.53,0.045-0.79,0.136V8.236h-1.824V6.638h1.824v-1.62H19.82 M19.82,4.01h-1.604
		c-0.557,0-1.008,0.452-1.008,1.008v0.612h-0.816c-0.558,0-1.009,0.452-1.009,1.008v1.62c0,0.56,0.42,0.98,0.98,1.008h0.845v0.991
		c-0.525,0.321-1.037,0.787-1.54,1.401c-0.351-0.271-0.717-0.519-1.096-0.741c-1.067-0.624-2.147-0.939-3.211-0.939
		c-1.855,0-3.616,0.752-5.234,2.234c-1.644,1.509-2.471,3.335-2.458,5.43c0.012,3.08,1.82,6.23,5.46,9.505l-0.947,5.669
		c-0.049,0.281,0,0.561,0.21,0.818c0.191,0.211,0.49,0.35,0.77,0.356h9.82h9.823c0.297,0,0.576-0.13,0.77-0.356
		c0.191-0.226,0.273-0.525,0.225-0.818l-0.949-5.67c3.613-3.236,5.455-6.432,5.482-9.502c0-2.102-0.834-3.926-2.477-5.432
		c-1.619-1.483-3.373-2.235-5.215-2.235c-1.064,0-2.146,0.316-3.221,0.938c-0.379,0.22-0.744,0.468-1.096,0.77
		c-0.502-0.608-1.012-1.069-1.531-1.388V9.294h0.814c0.557,0,1.008-0.451,1.008-1.008V6.638c0-0.557-0.451-1.008-1.008-1.008h-0.814
		V5.018c0.035-0.524-0.436-1.014-0.994-1.008H19.82z"/>
</g>
</svg>
