<?xml version="1.0" encoding="utf-8"?>
<!-- Generator: Adobe Illustrator 16.0.4, SVG Export Plug-In . SVG Version: 6.00 Build 0)  -->
<!DOCTYPE svg PUBLIC "-//W3C//DTD SVG 1.1//EN" "http://www.w3.org/Graphics/SVG/1.1/DTD/svg11.dtd">
<svg version="1.1" id="blackqueen" xmlns="http://www.w3.org/2000/svg" xmlns:xlink="http://www.w3.org/1999/xlink" x="0px" y="0px"
	 width="38px" height="38px" viewBox="0 0 38 38" enable-background="new 0 0 38 38" xml:space="preserve">
<filter  id="AI_Shadow_1" filterUnits="objectBoundingBox">
	<feGaussianBlur  in="SourceAlpha" stdDeviation="1" result="blur"></feGaussianBlur>
	<feOffset  dx="2" dy="2" in="blur" result="offsetBlurredAlpha"></feOffset>
	<feMerge>
		<feMergeNode  in="offsetBlurredAlpha"></feMergeNode>
		<feMergeNode  in="SourceGraphic"></feMergeNode>
	</feMerge>
</filter>
<g opacity="0.5" filter="url(#AI_Shadow_1)">
	<path fill="#e2e2e2" d="M33.178,13.218c-0.404-0.402-0.852-0.507-1.415-0.507c-0.565,0-0.866,0.21-1.269,0.63
		c-0.404,0.415-0.656,0.765-0.656,1.34c0,0.209,0.069,0.42,0.141,0.612c0.035,0.159-0.064,0.28,0.068,0.47l0.335,0.318l-3.965,2.799
		l-1.806-9.043l0.137-0.067c0.659-0.324,1.026-0.848,1.12-1.604c0.04-0.443-0.117-0.921-0.467-1.414
		c-0.353-0.491-0.76-0.545-1.319-0.607c-0.535-0.05-0.83-0.049-1.268,0.307c-0.441,0.356-0.682,0.747-0.744,1.33
		c-0.084,0.711-0.111,1.26,0.42,1.761l0.465-0.098l-3.911,7.956l-3.66-7.772l0.113-0.098c0.556-0.481,0.79-1.062,0.718-1.776
		c-0.062-0.563-0.307-1.011-0.746-1.368c-0.441-0.355-0.988-0.29-1.555-0.236c-0.559,0.062-0.783,0.208-1.139,0.7
		s-0.672,0.876-0.621,1.323c0.084,0.77,0.42,1.26,1.12,1.602l0.349,0.109l-1.895,9.042l-3.862-2.92l0.105-0.234
		c0.114-0.198,0.194-0.374,0.237-0.52c0.064-0.19,0.095-0.388,0.095-0.593c0-0.563-0.195-1.034-0.599-1.438
		c-0.404-0.403-0.868-0.245-1.432-0.245c-0.565,0-0.705-0.053-1.108,0.351c-0.402,0.403-0.936,0.769-0.936,1.33
		c0,0.56,0.21,1.05,0.63,1.438c0.403,0.42,0.84,0.629,1.47,0.6c0.071,0,0.168-0.012,0.291-0.032l0.128-0.022l0.276,0.141
		c1.663,2.52,2.87,5.25,3.57,7.828c0.627,2.521,0.21,4.965-1.007,7.525l19.137-0.027c-1.199-2.563-1.49-5.131-0.868-7.635
		c0.64-2.572,1.813-5.172,3.487-7.726l0.072-0.106l0.127,0.021c0.123,0,0.21,0,0.279,0c0.566,0,1.035-0.197,1.44-0.6
		c0.403-0.403,0.597-0.874,0.597-1.438c-0.084-0.517-0.312-1.006-0.662-1.404H33.178z"/>
</g>
<path fill="#e2e2e2" d="M6.264,16.89c0.079,0,0.187-0.01,0.324-0.033c1.66,2.52,2.8,5.109,3.43,7.629
	c0.641,2.59,0.35,5.159-0.98,7.784h9.964h9.941c-1.297-2.625-1.627-5.22-0.99-7.784c0.637-2.562,1.793-5.117,3.461-7.664
	c0.137,0,0.28,0,0.351,0.033c0.614,0,1.14-0.217,1.579-0.656C33.779,15.763,34,15.235,34,14.622c0-0.614-0.221-1.141-0.656-1.578
	c-0.439-0.437-0.965-0.656-1.579-0.656s-1.14,0.219-1.576,0.63c-0.438,0.438-0.657,0.964-0.657,1.577c0,0.211,0,0.42,0.07,0.648
	c0.035,0.139,0.141,0.35,0.279,0.562l-3.34,2.379l-1.706-8.287c0.716-0.352,1.126-0.938,1.228-1.756
	c0.044-0.5-0.123-1.017-0.503-1.552c-0.383-0.534-0.879-0.835-1.493-0.903c-0.613-0.057-1.158,0.108-1.637,0.494
	c-0.477,0.387-0.75,0.887-0.818,1.501c-0.092,0.77,0.141,1.4,0.77,1.943l-3.379,7.072L15.626,9.67
	c0.602-0.522,0.862-1.17,0.784-1.944c-0.068-0.614-0.342-1.114-0.818-1.501c-0.479-0.386-1.023-0.551-1.637-0.494
	c-0.614,0.068-1.116,0.37-1.502,0.904C12.066,7.17,11.9,7.687,11.959,8.187c0.091,0.84,0.489,1.4,1.26,1.756l-1.705,8.261
	l-3.342-2.371c0.125-0.216,0.209-0.403,0.256-0.562c0.068-0.205,0.102-0.42,0.102-0.647c0-0.614-0.22-1.14-0.657-1.577
	c-0.439-0.438-0.964-0.657-1.578-0.657s-1.141,0.219-1.578,0.657s-0.688,0.99-0.709,1.611c0,0.631,0.21,1.119,0.63,1.609
	c0.486,0.43,0.98,0.639,1.61,0.623H6.264z"/>
<path fill="#666666" d="M19.002,32.306H9.06c1.296-2.627,1.621-5.221,0.98-7.785c-0.643-2.562-1.793-5.117-3.452-7.664
	C6.451,16.88,6.342,16.89,6.263,16.89c-0.614,0-1.141-0.218-1.578-0.656c-0.438-0.437-0.656-0.963-0.656-1.577
	s0.218-1.14,0.656-1.577c0.438-0.438,0.964-0.656,1.578-0.656c0.614,0,1.12,0.21,1.61,0.63c0.436,0.42,0.63,0.979,0.63,1.577
	c0,0.229-0.034,0.443-0.102,0.647c-0.046,0.161-0.131,0.349-0.255,0.562l3.341,2.38l1.705-8.287
	c-0.727-0.352-1.136-0.938-1.228-1.756c-0.058-0.5,0.108-1.018,0.495-1.552c0.386-0.535,0.887-0.836,1.502-0.904
	c0.613-0.057,1.189,0.14,1.609,0.494c0.477,0.42,0.77,0.91,0.84,1.501c0.078,0.773-0.183,1.421-0.784,1.944l3.376,7l3.375-7.025
	c-0.613-0.522-0.875-1.17-0.783-1.944c0.068-0.614,0.341-1.114,0.818-1.501c0.479-0.386,1.023-0.551,1.637-0.494
	c0.614,0.07,1.121,0.35,1.471,0.904c0.38,0.56,0.56,1.05,0.49,1.552c-0.102,0.818-0.512,1.404-1.229,1.756l1.707,8.259l3.342-2.369
	c-0.137-0.217-0.223-0.404-0.256-0.563c-0.068-0.204-0.104-0.42-0.104-0.647c0-0.613,0.219-1.14,0.658-1.577
	c0.436-0.438,0.963-0.656,1.576-0.656c0.614,0,1.139,0.21,1.609,0.656c0.438,0.421,0.631,0.98,0.631,1.61
	c0,0.614-0.219,1.141-0.656,1.576c-0.439,0.439-0.965,0.657-1.578,0.657c-0.08,0-0.188-0.011-0.324-0.034
	c-1.671,2.547-2.824,5.103-3.462,7.666c-0.637,2.562-0.306,5.179,0.98,7.783h-9.903V32.306z M19.002,31.043h8.151
	c-0.171-0.388-0.308-0.802-0.409-1.244h-7.742H11.26c-0.113,0.442-0.25,0.857-0.409,1.244H19.002z M11.6,26.775
	c0.045,0.819-0.039,1.718-0.256,2.695l2.287-1.467L11.6,26.78V26.775z M19.002,24.631c1.238,0,2.52,0.14,3.779,0.489
	c1.286,0.35,2.52,0.7,3.641,1.152c0.021-0.467,0.084-0.973,0.188-1.518c-1.229-0.479-2.487-0.863-3.777-1.16
	c-1.291-0.295-2.566-0.443-3.828-0.443s-2.54,0.148-3.836,0.443c-1.297,0.297-2.553,0.684-3.768,1.191
	c0.09,0.559,0.139,1.049,0.209,1.518c1.125-0.443,2.33-0.828,3.615-1.152c1.258-0.336,2.504-0.546,3.764-0.521H19.002z
	 M16.631,27.581l2.371,1.484l2.371-1.432l-2.371-1.467L16.631,27.581z M26.656,29.476c-0.227-0.979-0.312-1.877-0.255-2.695
	l-2.028,1.228L26.656,29.476L26.656,29.476z"/>
<g>
	<path fill="#e2e2e2" d="M23.816,5.727c0.074,0,0.14,0,0.21,0.011c0.614,0.07,1.12,0.35,1.47,0.91c0.381,0.56,0.561,1.05,0.49,1.552
		c-0.103,0.818-0.51,1.404-1.228,1.756l1.706,8.287l3.341-2.369c-0.137-0.216-0.221-0.403-0.256-0.562
		c-0.069-0.205-0.102-0.42-0.102-0.648c0-0.613,0.218-1.139,0.656-1.576c0.437-0.438,0.962-0.657,1.576-0.657s1.139,0.21,1.61,0.657
		c0.436,0.42,0.63,0.979,0.63,1.609c0,0.613-0.22,1.141-0.657,1.577c-0.438,0.438-0.964,0.656-1.578,0.656
		c-0.078,0-0.188-0.011-0.324-0.034c-1.67,2.548-2.824,5.102-3.461,7.665s-0.307,5.181,0.98,7.784h-9.879H9.06
		c1.296-2.626,1.621-5.221,0.98-7.784c-0.643-2.563-1.793-5.117-3.452-7.665c-0.137,0.023-0.245,0.034-0.324,0.034
		c-0.614,0-1.141-0.218-1.578-0.656c-0.438-0.437-0.656-0.964-0.656-1.577s0.218-1.14,0.656-1.577
		c0.438-0.438,0.964-0.656,1.578-0.656c0.614,0,1.12,0.209,1.61,0.656c0.436,0.421,0.63,0.979,0.63,1.577
		c0,0.229-0.034,0.443-0.102,0.629c-0.046,0.161-0.131,0.35-0.255,0.564l3.341,2.369l1.705-8.287
		c-0.727-0.352-1.136-0.938-1.228-1.756c-0.058-0.5,0.108-1.017,0.495-1.552c0.386-0.534,0.887-0.835,1.502-0.903
		c0.078-0.007,0.155-0.011,0.232-0.011c0.52,0,0.979,0.14,1.399,0.505c0.478,0.42,0.771,0.91,0.84,1.5
		c0.077,0.774-0.184,1.422-0.785,1.944l3.354,6.997l3.375-7.026c-0.613-0.522-0.875-1.17-0.783-1.944
		c0.068-0.614,0.341-1.114,0.818-1.501c0.416-0.31,0.916-0.52,1.406-0.52 M23.816,4.72L23.816,4.72
		c-0.754,0-1.441,0.246-2.038,0.729c-0.681,0.552-1.092,1.303-1.187,2.17c-0.1,0.839,0.069,1.61,0.56,2.237l-2.172,4.516
		l-2.173-4.522c0.467-0.637,0.669-1.393,0.586-2.221c-0.099-0.881-0.509-1.632-1.188-2.183c-0.6-0.484-1.285-0.73-2.038-0.73
		c-0.107,0-0.215,0.005-0.326,0c-0.912,0.102-1.676,0.556-2.226,1.317c-0.536,0.743-0.766,1.502-0.679,2.257
		c0.1,0.91,0.49,1.61,1.12,2.112l-1.254,6.089l-1.42-1.006c0.08-0.274,0.121-0.562,0.121-0.857c0-0.874-0.328-1.666-0.95-2.291
		c-0.627-0.625-1.418-0.953-2.292-0.953c-0.875,0-1.667,0.329-2.29,0.951c-0.623,0.623-0.952,1.415-0.952,2.291
		c0,0.91,0.35,1.68,0.98,2.311c0.57,0.559,1.26,0.909,2.1,0.943c1.425,2.311,2.45,4.621,3.01,6.877
		c0.587,2.379,0.28,4.667-0.906,7.068c-0.154,0.312-0.136,0.701,0.07,0.979c0.184,0.279,0.49,0.49,0.84,0.477h9.889h9.941
		c0.349,0,0.672-0.18,0.855-0.477c0.186-0.295,0.203-0.666,0.049-0.979c-1.199-2.428-1.499-4.748-0.916-7.094
		c0.566-2.279,1.58-4.589,3.016-6.871c0.801-0.047,1.5-0.365,2.082-0.946c0.625-0.624,0.951-1.415,0.951-2.29
		c0-0.874-0.328-1.665-0.948-2.29c-0.628-0.625-1.419-0.953-2.292-0.953c-0.877,0-1.668,0.33-2.289,0.953
		c-0.623,0.621-0.952,1.413-0.952,2.31c0,0.28,0.069,0.561,0.14,0.859l-1.419,1.006l-1.257-6.104c0.618-0.514,0.996-1.227,1.102-2.1
		c0.072-0.777-0.159-1.526-0.68-2.259c-0.549-0.768-1.312-1.223-2.203-1.322c-0.15,0-0.225,0-0.363-0.006l-0.002,0.006V4.72z"/>
</g>
</svg>
