<?xml version="1.0" encoding="utf-8"?>
<!-- Generator: Adobe Illustrator 16.0.4, SVG Export Plug-In . SVG Version: 6.00 Build 0)  -->
<!DOCTYPE svg PUBLIC "-//W3C//DTD SVG 1.1//EN" "http://www.w3.org/Graphics/SVG/1.1/DTD/svg11.dtd">
<svg version="1.1" id="Layer_1" xmlns="http://www.w3.org/2000/svg" xmlns:xlink="http://www.w3.org/1999/xlink" x="0px" y="0px"
	 width="500px" height="150px" viewBox="0 0 500 150" enable-background="new 0 0 500 150" xml:space="preserve">
<rect x="-0.282" y="92.877" fill="#FFFFFF" width="500.564" height="107.123"/>
<rect x="-0.282" y="90.877" width="500.562" height="4"/>
<g>
	<path fill="#FFFFFF" d="M429.106,40.851c0-4.916-1.943-9.157-5.841-12.732c-3.897-3.569-8.008-5.354-12.335-5.354
		c-2.413,0-4.871,0.728-7.374,2.179c-2.095,1.218-3.956,2.718-5.617,4.474l-0.024-0.012c0.291-0.309,0.578-0.613,0.82-0.844
		c-2.806-4.168-5.575-6.311-8.316-6.462c-0.11-0.008-0.219-0.03-0.33-0.03c-2.868,0.009-5.738,2.172-8.605,6.475
		c0.221,0.189,0.569,0.569,0.761,0.817l-0.018,0.007c-1.675-1.741-3.533-3.23-5.604-4.441c-2.489-1.451-4.938-2.181-7.351-2.181
		c-4.357,0-8.484,1.787-12.383,5.356c-3.896,3.572-5.829,7.814-5.797,12.729c0.03,7.807,5.141,16.182,15.04,24.812l-2.827,16.931
		h26.71h26.716l-2.828-16.931c10.102-8.604,15.174-16.981,15.174-24.794L429.106,40.851L429.106,40.851z"/>
	<polyline fill="#FFFFFF" points="367.285,79.354 359.473,84.568 358.032,93.408 390.106,93.408 422.178,93.408 420.741,84.568 
		412.723,79.354 	"/>
	<path fill="#020202" d="M396.411,31.113c-0.013-0.017-0.024-0.031-0.037-0.048c-0.015,0.017-0.027,0.03-0.043,0.048H396.411z"/>
	<polygon fill="#00AEEF" points="365.449,50.316 366.625,61.967 382.719,61.967 385.858,48.229 366.233,48.229 	"/>
	<polygon fill="#EC008C" points="415.495,50.316 414.317,61.967 398.223,61.967 395.084,48.229 414.709,48.229 	"/>
	<path fill="#010101" d="M434.729,51.684l-18.202-2.424l0.088-0.815c0.067-0.481-0.104-0.93-0.519-1.343l-8.576-1.137h-34.821
		l-8.473,1.137c-0.345,0.413-0.482,0.861-0.412,1.343l0.073,0.692l-18.21,2.445l0.518,3.84l18.104-2.431l0.96,8.99
		c0.14,0.964,0.689,1.481,1.653,1.55h3.438h13.098c0.895,0,1.444-0.449,1.651-1.344l2.688-11.883
		c1.859-0.826,3.477-0.792,4.854,0.104l2.583,11.779c0.206,0.826,0.76,1.275,1.653,1.344h16.533c0.895,0,1.479-0.518,1.756-1.55
		l0.947-8.866l18.104,2.409L434.729,51.684z M382.102,60.018h-13.742l-1.032-10.022h17.048L382.102,60.018z M411.962,60.018H398.22
		l-2.169-10.022h16.945L411.962,60.018z"/>
	<rect x="387.237" y="70.363" fill="#010101" width="7.651" height="2.304"/>
	<path fill="#020202" d="M416.954,82.111l-2.746-16.446c10.014-8.658,15.051-16.923,15.115-24.812c0-4.951-2.006-9.138-5.902-12.757
		c-3.996-3.641-8.049-5.353-12.374-5.353c-2.413,0-4.871,0.727-7.378,2.179c-2.5,1.453-4.699,3.295-6.585,5.518
		c-0.173,0.206-0.324,0.426-0.49,0.636c-0.097,0.057-0.189,0.123-0.277,0.201l-6.132,5.463l-5.483-4.582
		c-0.283-0.396-0.566-0.793-0.868-1.177c2.734-3.619,4.824-5.479,6.271-5.479c1.415,0,3.508,1.859,6.271,5.564
		c0.934-1.08,1.745-1.832,2.299-2.612c-2.122-3.253-4.25-5.24-6.37-6.05v-6.057h4.96V11.94h-4.96V7.534h-4.357v4.406h-0.021h-4.963
		v4.406h4.963v6.05c-2.14,0.815-4.281,2.829-6.42,6.043c-1.467-1.364-3.076-2.525-4.799-3.582c-2.477-1.331-5.012-2.093-7.426-2.093
		c-4.357,0-8.485,1.784-12.383,5.354c-3.896,3.575-5.829,7.816-5.797,12.732c0.028,7.882,5.069,16.156,15.118,24.813l-2.709,16.22
		l-4.108,2.665l-1.453,8.896h32.107h32.1l-1.445-8.896L416.954,82.111z M358.532,52.119c-2.666-3.902-3.998-7.52-3.998-10.947
		c0-4.244,1.624-7.786,4.869-10.661c3.246-2.876,6.46-4.312,9.646-4.312c2.53,0,5.139,1.005,7.813,3.012
		c1.881,1.42,3.437,3.018,4.684,4.785c0.088,0.126,0.188,0.246,0.311,0.349l8.4,7.021l8.121-7.237h0.072
		c0.045-0.066,0.1-0.129,0.146-0.195l0.045-0.04c0.191-0.171,0.334-0.376,0.433-0.596c1.142-1.49,2.51-2.859,4.141-4.087
		c2.674-2.008,5.291-3.015,7.861-3.015c3.156,0,6.36,1.44,9.623,4.314c3.26,2.875,4.893,6.418,4.893,10.619
		c0,3.37-1.346,7.021-4.033,10.946c-2.688,3.929-5.815,7.375-9.368,10.343l-1.728,2.921l2.315,13.823h-22.678h-22.676l2.318-13.823
		l-1.81-2.921l0.015-0.013C364.339,59.505,361.211,56.084,358.532,52.119z M390.056,90.207h-27.895l0.75-3.865l5.808-3.75h21.383
		v0.001h21.29l5.805,3.751l0.754,3.863H390.056z"/>
</g>
</svg>
