<?xml version="1.0" encoding="utf-8"?>
<!-- Generator: Adobe Illustrator 16.0.4, SVG Export Plug-In . SVG Version: 6.00 Build 0)  -->
<!DOCTYPE svg PUBLIC "-//W3C//DTD SVG 1.1//EN" "http://www.w3.org/Graphics/SVG/1.1/DTD/svg11.dtd">
<svg version="1.1" id="Layer_1" xmlns="http://www.w3.org/2000/svg" xmlns:xlink="http://www.w3.org/1999/xlink" x="0px" y="0px"
	 width="500px" height="150px" viewBox="0 0 500 150" enable-background="new 0 0 500 150" xml:space="preserve">
<rect x="-0.282" y="92.877" fill="#FFFFFF" width="500.564" height="107.123"/>
<rect x="-0.282" y="90.877" width="500.562" height="4"/>
<g>
	<path fill="#FFFFFF" d="M426.636,92.773c-0.5-11.646-9-12.604-9-12.604s-8-2-13.5-12.75c-4.399-8.601-3.84-13.634-3.438-18.904
		c3.94-2.801,6.52-7.393,6.52-12.596c0-8.536-6.92-15.455-15.455-15.455c-8.537,0-15.455,6.919-15.455,15.455
		c0,5.204,2.578,9.796,6.521,12.597c0.397,5.271,0.959,10.303-3.441,18.903c-5.5,10.75-13.5,12.75-13.5,12.75s-8.5,0.957-9,12.604
		c9.103,0,25.963-0.026,34.875-0.041C400.673,92.747,417.537,92.773,426.636,92.773z"/>
	<circle fill="#FFFFFF" cx="391.761" cy="14.3" r="3.457"/>
	<path d="M391.761,19.256c-2.731,0-4.957-2.224-4.957-4.956c0-2.732,2.226-4.956,4.957-4.956c2.734,0,4.957,2.224,4.957,4.956
		C396.718,17.032,394.496,19.256,391.761,19.256z M391.761,12.344c-1.078,0-1.957,0.878-1.957,1.956
		c0,1.078,0.879,1.956,1.957,1.956c1.08,0,1.957-0.878,1.957-1.956C393.718,13.222,392.841,12.344,391.761,12.344z"/>
	<path d="M428.136,92.71c-0.512-11.896-8.936-13.792-10.18-14.006c-0.615-0.177-7.562-2.343-12.484-11.967
		c-4.02-7.854-3.709-12.523-3.332-17.425c4.132-3.205,6.576-8.159,6.576-13.392c0-9.349-7.604-16.955-16.955-16.955
		c-9.348,0-16.955,7.606-16.955,16.955c0,5.233,2.447,10.188,6.578,13.393c0.375,4.901,0.687,9.569-3.332,17.424
		c-4.891,9.559-11.896,11.793-12.489,11.967c-1.257,0.218-9.664,2.123-10.175,14.006l-0.055,1.257l-0.072,0.098h0.068l-0.008,0.211
		h1.563c9.104,0,25.965-0.027,34.873-0.043c8.912,0.016,25.777,0.043,34.877,0.043h1.566L428.136,92.71z M377.806,35.921
		c0-7.695,6.261-13.955,13.955-13.955c7.695,0,13.955,6.26,13.955,13.955c0,4.501-2.201,8.753-5.889,11.373l-0.572,0.407
		l-0.094,1.221c-0.064,0.854-0.129,1.716-0.174,2.595h-14.451c-0.043-0.876-0.107-1.734-0.172-2.587l-0.095-1.228l-0.573-0.407
		C380.009,44.675,377.806,40.423,377.806,35.921z M380.722,68.104c3.56-6.956,4.006-11.757,3.84-16.04l18.632,16.749
		c2.254,4.17,4.852,7.031,7.209,8.966h-37.279C375.613,75.732,378.382,72.676,380.722,68.104z M366.054,81.661l0.197-0.035
		c0.127-0.031,1.301-0.347,3.006-1.247h45.01c1.705,0.9,2.88,1.216,3.007,1.247l0.186,0.034c0.27,0.033,6.068,0.892,7.412,8.751
		h-33.523h-32.692C359.996,82.552,365.794,81.695,366.054,81.661z"/>
	<circle fill="#FFFFFF" cx="391.761" cy="34.921" r="17.168"/>
	<path d="M391.761,53.588c-10.293,0-18.668-8.374-18.668-18.667s8.375-18.667,18.668-18.667c10.295,0,18.668,8.374,18.668,18.667
		S402.056,53.588,391.761,53.588z M391.761,19.254c-8.639,0-15.668,7.028-15.668,15.667c0,8.639,7.029,15.667,15.668,15.667
		c8.642,0,15.668-7.028,15.668-15.667C407.429,26.282,400.402,19.254,391.761,19.254z"/>
	<polygon fill="#00AEEF" points="369.826,28.344 370.869,38.664 385.125,38.664 387.906,26.495 370.521,26.495 	"/>
	<polygon fill="#EC008C" points="414.156,28.344 413.115,38.664 398.859,38.664 396.078,26.495 413.46,26.495 	"/>
	<path fill="#010101" d="M368.376,26.686c-0.061-0.427,0.062-0.823,0.367-1.189l7.504-1.007h30.846l7.599,1.007
		c0.364,0.366,0.518,0.763,0.457,1.189l-1.281,11.991c-0.244,0.915-0.765,1.373-1.558,1.373h-14.645
		c-0.793-0.061-1.281-0.458-1.465-1.19l-2.287-10.434c-1.221-0.794-2.654-0.824-4.301-0.092l-2.381,10.525
		c-0.185,0.793-0.673,1.19-1.466,1.19h-14.645c-0.854-0.061-1.342-0.519-1.465-1.373L368.376,26.686z M371.49,28.06l0.914,8.878
		h12.174l2.014-8.878H371.49z M396.933,28.06l1.923,8.878h12.174l0.916-8.878H396.933z"/>
</g>
</svg>
