<?xml version="1.0" encoding="utf-8"?>
<!-- Generator: Adobe Illustrator 16.0.4, SVG Export Plug-In . SVG Version: 6.00 Build 0)  -->
<!DOCTYPE svg PUBLIC "-//W3C//DTD SVG 1.1//EN" "http://www.w3.org/Graphics/SVG/1.1/DTD/svg11.dtd">
<svg version="1.1" id="whiteking" xmlns="http://www.w3.org/2000/svg" xmlns:xlink="http://www.w3.org/1999/xlink" x="0px" y="0px"
	 width="38px" height="38px" viewBox="0 0 38 38" enable-background="new 0 0 38 38" xml:space="preserve">
<rect x="0.042" y="-0.111" fill="#E1E1E1" width="38.222" height="38.222"/>
<g>
	<path fill="#676767" d="M16.284,20.945v7.129h-2.917V10.228h5.042c2.303,0,4.008,0.432,5.114,1.294
		c1.107,0.863,1.66,2.165,1.66,3.906c0,2.222-1.155,3.805-3.467,4.748l5.042,7.898h-3.32l-4.272-7.129H16.284z M16.284,18.528h2.026
		c1.359,0,2.344-0.252,2.954-0.757c0.61-0.504,0.916-1.253,0.916-2.246c0-1.009-0.33-1.733-0.989-2.173s-1.652-0.659-2.979-0.659
		h-1.929V18.528z"/>
</g>
</svg>
