<svg version="1.1" id="Layer_1" xmlns="http://www.w3.org/2000/svg" xmlns:xlink="http://www.w3.org/1999/xlink" x="0px" y="0px"
	 width="28.8px" height="28.8px" viewBox="0 0 28.8 28.8" enable-background="new 0 0 28.8 28.8" xml:space="preserve">
	<style>.iconcolor { fill: #929392; } </style>");
<g>
	<path class="iconcolor" fill="#D7C6B5"  d="M16.811,19.643c-0.834,0.584-1.809,0.877-2.806,0.863c-0.131-0.002-0.262-0.008-0.392-0.02
		c-0.053-0.006-0.106-0.014-0.159-0.021c-0.102-0.013-0.204-0.026-0.303-0.045c-0.061-0.013-0.121-0.027-0.181-0.043
		c-0.097-0.021-0.194-0.045-0.289-0.074c-0.046-0.014-0.09-0.029-0.135-0.045c-0.11-0.036-0.219-0.074-0.325-0.118
		c-0.024-0.011-0.047-0.021-0.071-0.032c-0.124-0.055-0.247-0.111-0.365-0.176c-0.005-0.003-0.01-0.006-0.016-0.009
		c-0.401-0.22-0.768-0.495-1.09-0.815c-0.005-0.006-0.01-0.012-0.016-0.017c-0.099-0.101-0.195-0.206-0.286-0.315
		c-0.019-0.023-0.037-0.049-0.056-0.072c-0.656-0.819-1.05-1.855-1.05-2.984h1.26l-2.017-3.024L6.5,15.719H7.76
		c0,1.326,0.414,2.556,1.115,3.572C8.885,19.305,8.89,19.32,8.9,19.334c0.073,0.104,0.153,0.2,0.231,0.299
		c0.029,0.036,0.056,0.075,0.086,0.111c0.116,0.14,0.237,0.271,0.363,0.398c0.012,0.014,0.023,0.025,0.035,0.037
		c0.421,0.422,0.897,0.777,1.416,1.062c0.014,0.007,0.027,0.016,0.042,0.022c0.149,0.081,0.303,0.153,0.458,0.222
		c0.039,0.018,0.077,0.035,0.116,0.053c0.133,0.055,0.27,0.103,0.408,0.148c0.065,0.021,0.129,0.045,0.196,0.064
		c0.121,0.037,0.243,0.066,0.367,0.096c0.083,0.02,0.164,0.039,0.248,0.057c0.035,0.006,0.068,0.017,0.102,0.023
		c0.117,0.02,0.234,0.031,0.351,0.045c0.042,0.006,0.083,0.013,0.126,0.018c0.21,0.021,0.419,0.033,0.629,0.033
		c1.281,0,2.531-0.391,3.604-1.143c0.342-0.239,0.425-0.711,0.186-1.053C17.623,19.485,17.15,19.402,16.811,19.643z"/>
	<path class="iconcolor" fill="#D7C6B5"  d="M20.364,15.719c-0.001-1.322-0.411-2.548-1.11-3.562c-0.01-0.018-0.017-0.035-0.028-0.052
		c-0.087-0.124-0.181-0.239-0.275-0.355c-0.011-0.014-0.021-0.029-0.033-0.042c-0.639-0.776-1.442-1.376-2.353-1.768
		c-0.025-0.011-0.049-0.023-0.074-0.034c-0.146-0.061-0.295-0.113-0.444-0.163c-0.054-0.018-0.106-0.037-0.161-0.053
		c-0.131-0.039-0.264-0.071-0.396-0.103c-0.074-0.017-0.148-0.036-0.223-0.05c-0.036-0.007-0.071-0.018-0.107-0.024
		c-0.1-0.018-0.2-0.025-0.3-0.038c-0.068-0.009-0.137-0.02-0.206-0.027c-0.167-0.016-0.333-0.022-0.5-0.025
		c-0.031,0-0.06-0.004-0.09-0.004c-0.005,0-0.011,0.001-0.016,0.001c-1.28,0.001-2.527,0.388-3.599,1.138
		c-0.342,0.24-0.425,0.711-0.186,1.053c0.239,0.343,0.711,0.426,1.053,0.186c0.827-0.579,1.792-0.873,2.782-0.864
		c0.142,0.001,0.282,0.008,0.421,0.021c0.042,0.004,0.084,0.011,0.127,0.016c0.114,0.014,0.227,0.03,0.338,0.052
		c0.049,0.01,0.097,0.022,0.145,0.033c0.109,0.025,0.219,0.051,0.325,0.083c0.034,0.01,0.066,0.022,0.101,0.033
		c0.122,0.04,0.242,0.083,0.359,0.132c0.012,0.004,0.023,0.01,0.035,0.016c0.705,0.304,1.324,0.77,1.807,1.354
		c0.002,0.004,0.006,0.008,0.008,0.012c0.68,0.826,1.088,1.883,1.088,3.033h-1.26l2.016,3.025l2.018-3.025H20.364z"/>
</g>
</svg>
