<?xml version="1.0" encoding="utf-8"?>
<!-- Generator: Adobe Illustrator 16.0.4, SVG Export Plug-In . SVG Version: 6.00 Build 0)  -->
<!DOCTYPE svg PUBLIC "-//W3C//DTD SVG 1.1//EN" "http://www.w3.org/Graphics/SVG/1.1/DTD/svg11.dtd">
<svg version="1.1" id="whitebishop" xmlns="http://www.w3.org/2000/svg" xmlns:xlink="http://www.w3.org/1999/xlink" x="0px"
	 y="0px" width="38px" height="38px" viewBox="0 0 38 38" enable-background="new 0 0 38 38" xml:space="preserve">
<filter  id="AI_Shadow_1" filterUnits="objectBoundingBox">
	<feGaussianBlur  in="SourceAlpha" stdDeviation="1" result="blur"></feGaussianBlur>
	<feOffset  dx="2" dy="2" in="blur" result="offsetBlurredAlpha"></feOffset>
	<feMerge>
		<feMergeNode  in="offsetBlurredAlpha"></feMergeNode>
		<feMergeNode  in="SourceGraphic"></feMergeNode>
	</feMerge>
</filter>
<g opacity="0.5" filter="url(#AI_Shadow_1)">
	<path fill="#e2e2e2" d="M20.671,31.759c1.087,0.91,2.311,1.4,3.641,1.377h8.136c-0.034-1.156-0.396-1.805-1.051-2.427
		c-0.695-0.656-1.419-0.815-2.216-0.815l-3.977-0.166c-0.594,0-1.303-0.006-1.728-0.086c-0.468-0.088-0.897-0.525-1.297-1.166
		c-0.093-0.156-0.329-0.322-0.345-0.346l-0.092-0.449l3.287-0.113c-0.672-1.229-0.807-2.343-0.848-3.541l-0.004-0.082l0.057-0.059
		c1.26-1.312,2.165-2.561,2.692-3.709c0.514-1.12,0.545-2.337,0.095-3.618c-0.37-1.045-0.975-1.829-1.906-2.856
		c-0.939-1.033-2.758-2.533-5.27-4.233l-0.223-0.314l0.233-0.161c0.175-0.121,0.427-0.321,0.749-0.594
		c0.284-0.241,0.428-0.639,0.428-1.183c0-0.598-0.209-1.08-0.635-1.473c-0.435-0.396-0.939-0.589-1.544-0.589
		c-0.617,0-1.126,0.192-1.553,0.588c-0.423,0.392-0.626,0.875-0.626,1.474c0,0.56,0.139,0.91,0.419,1.19
		c0.319,0.28,0.56,0.49,0.771,0.591l0.246,0.16l-0.191,0.448c-2.521,1.699-4.329,2.801-5.269,3.85
		c-0.931,1.024-1.587,2.076-1.946,3.123c-0.453,1.283-0.421,2.52,0.07,3.619c0.527,1.119,1.399,2.379,2.66,3.709l0.057,0.07
		l-0.004,0.082c-0.053,1.199-0.415,2.426-1.074,3.652h3.515l-0.181,0.492c-0.016,0.023-0.038,0.15-0.13,0.279
		c-0.413,0.645-0.479,1.096-0.946,1.184c-0.423,0.08-1.168,0.059-1.75,0.059l-4.141-0.059c-0.809,0-1.644,0.277-2.333,0.91
		c-0.651,0.62-1.188,1.385-1.223,2.543h8.173c1.314,0,2.535-0.463,3.629-1.377c1.084-0.906,1.631-1.981,1.631-3.194h0.389
		c0,1.239,0.539,2.288,1.59,3.21H20.671z"/>
</g>
<path fill="#e2e2e2" d="M29.29,29.403h-4.264c-0.592,0-1.098-0.04-1.519-0.12c-0.421-0.078-0.817-0.42-1.193-1.023
	c-0.095-0.159-0.149-0.247-0.166-0.272h3.526c-0.773-1.318-1.184-2.619-1.229-3.904c1.297-1.354,2.217-2.623,2.763-3.812
	c0.544-1.187,0.579-2.458,0.102-3.812c-0.388-1.091-1.063-2.168-2.028-3.23c-0.967-1.063-2.735-2.464-5.303-4.203
	c0.182-0.124,0.439-0.33,0.774-0.614c0.335-0.283,0.503-0.733,0.503-1.347c0-0.659-0.236-1.205-0.707-1.638
	c-0.473-0.431-1.038-0.648-1.696-0.648c-0.673,0-1.239,0.217-1.706,0.648c-0.467,0.433-0.699,0.979-0.699,1.61
	c0,0.63,0.141,1.05,0.49,1.347c0.33,0.28,0.559,0.49,0.77,0.614c-2.582,1.739-4.354,3.141-5.32,4.2
	c-0.967,1.063-1.637,2.141-2.012,3.231c-0.479,1.354-0.444,2.59,0.07,3.811c0.545,1.189,1.469,2.45,2.731,3.779
	c-0.059,1.287-0.468,2.587-1.229,3.904h3.525c-0.018,0.027-0.072,0.114-0.166,0.273c-0.388,0.604-0.791,0.947-1.211,1.051
	c-0.422,0.079-0.92,0.119-1.5,0.119H8.333c-0.876,0-1.683,0.354-2.421,1.059c-0.74,0.703-1.109,1.723-1.109,3.052h8.442
	c1.385,0,2.652-0.481,3.801-1.442c1.148-0.959,1.723-2.088,1.723-3.385c0,1.33,0.561,2.45,1.682,3.359
	c1.143,0.98,2.379,1.471,3.779,1.442h8.441c0-1.329-0.373-2.348-1.117-3.052c-0.597-0.613-1.396-1.033-2.236-0.998H29.29z"/>
<path fill="#666666" d="M18.854,28.686c0,1.297-0.574,2.425-1.723,3.386c-1.148,0.959-2.416,1.441-3.803,1.441H4.888
	c0-1.33,0.369-2.348,1.109-3.053c0.739-0.703,1.545-1.057,2.421-1.057h4.263c0.579,0,1.079-0.04,1.5-0.12
	c0.421-0.078,0.824-0.42,1.21-1.023c0.137-0.228,0.193-0.317,0.171-0.272h1.297c-0.08,0.238-0.097,0.312-0.052,0.209
	c-0.51,1.194-1.132,1.902-1.858,2.123c-0.728,0.222-1.558,0.333-2.489,0.333H8.367c-0.591,0-1.08,0.228-1.466,0.7
	c-0.387,0.455-0.58,0.756-0.58,0.903h7.229c0.751,0,1.649-0.37,2.702-1.108c1.051-0.739,1.582-1.791,1.595-3.154h-5.815
	c0.762-1.318,1.172-2.619,1.229-3.905c-1.297-1.353-2.217-2.623-2.763-3.811c-0.545-1.187-0.58-2.458-0.103-3.812
	c0.375-1.092,1.045-2.168,2.012-3.23c0.966-1.063,2.738-2.464,5.32-4.203c-0.193-0.125-0.454-0.33-0.783-0.614
	c-0.332-0.284-0.495-0.733-0.495-1.347c0-0.659,0.232-1.205,0.698-1.637c0.467-0.431,1.035-0.648,1.707-0.648
	c0.657,0,1.189,0.21,1.68,0.648c0.471,0.42,0.7,0.98,0.7,1.637c0,0.614-0.169,1.063-0.503,1.33
	c-0.336,0.284-0.596,0.489-0.775,0.614c2.568,1.75,4.34,3.15,5.32,4.203c0.965,1.051,1.609,2.17,2.029,3.221
	c0.478,1.33,0.42,2.623-0.102,3.811c-0.545,1.188-1.467,2.459-2.762,3.811c0.043,1.26,0.42,2.59,1.26,3.904h-5.814
	c0,1.33,0.559,2.451,1.609,3.155c1.059,0.771,1.961,1.12,2.73,1.108h7.23c0-0.148-0.197-0.449-0.59-0.903
	c-0.393-0.455-0.879-0.684-1.458-0.684h-4.093c-0.943,0-1.777-0.11-2.497-0.332c-0.722-0.222-1.339-0.93-1.851-2.124
	c0.044,0.071,0,0.018-0.051-0.221h1.297c-0.023-0.044,0,0.07,0.14,0.273c0.374,0.631,0.77,0.98,1.19,1.05
	c0.42,0.069,0.91,0.14,1.539,0.12h4.264c0.863,0,1.68,0.35,2.381,1.057c0.743,0.701,1.119,1.75,1.119,3.053h-8.47
	c-1.399,0-2.668-0.481-3.811-1.441c-1.144-0.957-1.681-2.077-1.681-3.39H18.854z M13.993,22.907
	c1.421-0.488,3.041-0.729,4.861-0.717c1.807-0.012,3.43,0.211,4.83,0.717c2.148-2.047,2.955-4.013,2.421-5.901
	c-0.683-2.192-3.108-4.644-7.28-7.35c-4.186,2.706-6.61,5.157-7.281,7.35c-0.518,1.862,0.273,3.821,2.443,5.901H13.993z
	 M18.854,26.742h4.824c-0.318-0.954-0.482-1.829-0.494-2.626c-1.362-0.465-2.808-0.682-4.33-0.648
	c-1.535-0.033-2.979,0.184-4.332,0.631c-0.024,0.796-0.188,1.671-0.494,2.625h4.826V26.742z M18.052,16.034v-1.773h1.604v1.773
	h1.619v1.518h-1.619v2.814h-1.604v-2.814h-1.619v-1.518H18.052z M17.762,7.031c-0.034,0.77,0.351,1.12,1.12,1.125
	c0.75,0,1.113-0.375,1.092-1.125c0.012-0.625-0.353-0.938-1.092-0.938c-0.778,0.035-1.114,0.315-1.114,0.938H17.762z"/>
<g>
	<path fill="#e2e2e2" d="M18.854,4.78c0.657,0,1.189,0.21,1.68,0.648c0.471,0.42,0.7,0.98,0.7,1.61c0,0.614-0.169,1.063-0.503,1.347
		c-0.336,0.284-0.596,0.489-0.775,0.614c2.568,1.75,4.34,3.15,5.32,4.2c0.965,1.051,1.609,2.17,2.029,3.232
		c0.478,1.329,0.42,2.623-0.102,3.811c-0.545,1.188-1.467,2.459-2.762,3.779c0.043,1.26,0.42,2.59,1.26,3.904h-3.525
		c0.016,0,0.069,0.142,0.14,0.273c0.374,0.629,0.77,0.979,1.19,1.05c0.42,0.071,0.91,0.14,1.539,0.12h4.264
		c0.861,0,1.68,0.35,2.381,1.057c0.742,0.699,1.119,1.75,1.119,3.053h-8.431c-1.399,0-2.668-0.48-3.811-1.441
		c-1.144-0.961-1.713-2.088-1.713-3.385c0,1.297-0.574,2.424-1.723,3.359c-1.148,0.959-2.416,1.441-3.802,1.441H4.888
		c0-1.33,0.369-2.348,1.109-3.053c0.739-0.704,1.545-1.057,2.421-1.057h4.263c0.579,0,1.079-0.04,1.5-0.119
		c0.421-0.078,0.824-0.422,1.21-1.023c0.096-0.161,0.15-0.248,0.168-0.273h-3.526c0.761-1.319,1.171-2.619,1.228-3.904
		c-1.296-1.354-2.217-2.623-2.763-3.812c-0.545-1.187-0.58-2.458-0.102-3.812c0.375-1.09,1.044-2.167,2.011-3.23
		c0.967-1.062,2.74-2.464,5.322-4.203c-0.194-0.125-0.455-0.33-0.785-0.614c-0.331-0.283-0.495-0.733-0.495-1.347
		c0-0.659,0.232-1.205,0.7-1.638c0.465-0.36,1.038-0.57,1.738-0.57 M18.854,4.028c-0.873,0-1.626,0.289-2.24,0.857
		C15.983,5.47,15.663,6.214,15.663,7.1c0,0.84,0.279,1.47,0.77,1.89c-2.171,1.505-3.673,2.727-4.574,3.718
		c-1.034,1.138-1.765,2.316-2.174,3.505c-0.544,1.54-0.5,3.01,0.14,4.409c0.546,1.191,1.47,2.451,2.661,3.773
		c-0.104,1.051-0.472,2.133-1.102,3.223c-0.141,0.244-0.141,0.56,0,0.77c0.055,0.07,0.141,0.141,0.211,0.236H8.452
		c-1.08,0-2.078,0.428-2.964,1.273c-0.897,0.855-1.353,2.074-1.353,3.641c0,0.42,0.35,0.77,0.77,0.785h8.441
		c1.568,0,3.016-0.545,4.307-1.622c0.497-0.418,0.903-0.864,1.216-1.345c0.31,0.49,0.7,0.911,1.19,1.342
		c1.284,1.051,2.73,1.611,4.34,1.625h8.441c0.434,0,0.785-0.352,0.785-0.785c0-1.548-0.457-2.768-1.361-3.624
		c-0.894-0.845-1.887-1.272-2.955-1.272h-3.142c0.084-0.063,0.155-0.143,0.21-0.238c0.14-0.244,0.139-0.545-0.004-0.788
		c-0.639-1.09-1.007-2.17-1.101-3.216c1.229-1.318,2.126-2.586,2.671-3.775c0.631-1.373,0.675-2.854,0.131-4.402
		c-0.422-1.184-1.156-2.359-2.189-3.498c-0.9-0.991-2.4-2.212-4.564-3.721c0.492-0.438,0.744-1.083,0.744-1.915
		c0-0.884-0.323-1.63-0.961-2.216c-0.645-0.564-1.377-0.844-2.217-0.878h-0.033V4.028z"/>
</g>
</svg>
