<?xml version="1.0" encoding="utf-8"?>
<!-- Generator: Adobe Illustrator 16.0.4, SVG Export Plug-In . SVG Version: 6.00 Build 0)  -->
<!DOCTYPE svg PUBLIC "-//W3C//DTD SVG 1.1//EN" "http://www.w3.org/Graphics/SVG/1.1/DTD/svg11.dtd">
<svg version="1.1" id="whiteking" xmlns="http://www.w3.org/2000/svg" xmlns:xlink="http://www.w3.org/1999/xlink" x="0px" y="0px"
	 width="38px" height="38px" viewBox="0 0 38 38" enable-background="new 0 0 38 38" xml:space="preserve">
<filter  id="AI_Shadow_1" filterUnits="objectBoundingBox">
	<feGaussianBlur  in="SourceAlpha" stdDeviation="1" result="blur"></feGaussianBlur>
	<feOffset  dx="2" dy="2" in="blur" result="offsetBlurredAlpha"></feOffset>
	<feMerge>
		<feMergeNode  in="offsetBlurredAlpha"></feMergeNode>
		<feMergeNode  in="SourceGraphic"></feMergeNode>
	</feMerge>
</filter>
<g opacity="0.5" filter="url(#AI_Shadow_1)">
	<path fill="#e2e2e2" d="M33.111,17.667c0-1.739-0.701-3.267-2.085-4.534c-1.389-1.273-2.873-1.918-4.404-1.918
		c-0.846,0-1.8,0.575-2.688,1.089c-0.735,0.427-1.145,0.935-1.75,1.576l-0.296-0.175l-0.365-0.183l0.172-0.196
		c0.065-0.069,0.129-0.138,0.189-0.2c-0.781-1.129-1.557-1.812-2.312-2.053V8.093h1.824V6.867h-1.824v-1.62h-1.21v1.62h-1.824v1.226
		l1.928,0.011l0.087,2.975c-0.775,0.246-1.592,1.062-2.361,2.187c0.045,0.049-0.049-0.038,0,0.016l0.188,0.201l-0.219,0.14
		l-0.126,0.056l-0.103-0.096c-0.611-0.639-1.291-1.176-2.018-1.601c-0.879-0.541-1.686-0.61-2.525-0.61
		c-1.544,0-2.752,0.536-4.142,1.809c-1.383,1.268-1.996,2.691-1.983,4.433c0.01,2.8,1.4,5.669,4.97,8.779l0.157,0.351l0.281,0.246
		l-1.3,5.858h19.177l-1.019-6.104l0.084-0.074c3.629-3.117,5.475-6.197,5.475-9.001H33.111z"/>
</g>
<path fill="#e2e2e2" d="M33.308,17.668c0-1.807-0.715-3.367-2.146-4.681c-1.434-1.312-2.945-1.969-4.535-1.969
	c-0.888,0-1.791,0.268-2.711,0.802c-0.771,0.447-1.455,0.999-2.066,1.645l-0.009-0.004c0.106-0.114,0.212-0.227,0.302-0.311
	c-1.031-1.534-2.051-2.321-3.059-2.377c-0.04-0.002-0.08-0.011-0.121-0.011c-1.055,0.003-2.109,0.799-3.164,2.38
	c0.081,0.07,0.209,0.21,0.279,0.301l-0.006,0.003c-0.615-0.641-1.299-1.188-2.061-1.633c-0.915-0.534-1.815-0.802-2.703-0.802
	c-1.602,0-3.12,0.657-4.553,1.969c-1.432,1.313-2.143,2.873-2.131,4.682c0.011,2.869,1.89,5.949,5.53,9.123L9.115,33.01h9.82h9.824
	l-1.041-6.225c3.715-3.164,5.58-6.244,5.58-9.117H33.308z"/>
<path fill="#e2e2e2" d="M19.081,10.773c0.227,0,0.49,0.07,0.7,0.125V8.29h1.823V6.67h-1.823v-1.62h-1.604v1.62h-1.823v1.62h1.823
	v2.609c0.263-0.09,0.526-0.136,0.795-0.136c0.002,0,0.005,0,0.007,0c0.025-0.021,0.037-0.021,0.107,0.011H19.081z"/>
<path fill="#666666" d="M18.966,33.016h-9.82l1.04-6.225c-3.695-3.182-5.548-6.225-5.559-9.123
	c-0.012-1.807,0.699-3.367,2.131-4.681c1.433-1.312,2.95-1.969,4.553-1.969c0.887,0,1.82,0.28,2.73,0.771
	c0.915,0.56,1.75,1.19,2.45,2.029c0.692,0.841,1.26,1.75,1.68,2.806c0.426,1.049,0.699,1.89,0.84,2.59
	c0.137-0.684,0.415-1.537,0.837-2.567c0.421-1.028,0.981-1.964,1.687-2.806c0.693-0.817,1.502-1.494,2.422-2.029
	c0.921-0.534,1.824-0.801,2.712-0.801c1.59,0,3.08,0.63,4.55,1.969c1.432,1.33,2.17,2.87,2.17,4.69
	c-0.023,2.9-1.876,5.94-5.558,9.123l1.039,6.224H18.966L18.966,33.016z M10.817,25.598c2.41-1,4.917-1.54,7.52-1.619
	c-0.014-1.672-0.219-3.231-0.623-4.682c-0.404-1.449-0.861-2.549-1.373-3.299c-0.511-1-1.26-1.869-2.242-2.609
	c-0.982-0.738-1.941-1.108-2.872-1.108c-1.172,0-2.354,0.528-3.547,1.587c-1.193,1.057-1.79,2.359-1.79,3.92
	c0,1.26,0.49,2.59,1.47,4.024c0.987,1.46,2.139,2.72,3.468,3.786H10.817z M18.966,31.754h8.34l-0.853-5.082
	c-2.456-0.955-4.952-1.432-7.487-1.432c-2.533,0-5.029,0.477-7.484,1.432l-0.853,5.082H18.966z M11.346,27.49l-0.443,2.66
	l2.472-1.432L11.346,27.49z M21.286,14.088c-1.023-1.375-1.796-2.063-2.318-2.063c-0.535,0-1.307,0.688-2.318,2.03
	c-0.354-0.408-0.637-0.721-0.853-0.938c1.057-1.591,2.114-2.387,3.171-2.387c1.046,0,2.1,0.77,3.15,2.379
	c-0.207,0.291-0.511,0.571-0.861,0.979H21.286z M18.166,6.67h-1.825v1.62h1.825v2.609c0.522-0.182,1.058-0.182,1.61,0V8.291H21.6
	V6.67h-1.823v-1.62h-1.604v1.62H18.166z M16.597,27.951l2.405-1.432l2.337,1.471l-2.405,1.427L16.597,27.951z M19.599,23.979
	c2.603,0.068,5.109,0.629,7.49,1.619c1.306-1.092,2.455-2.359,3.443-3.803c0.989-1.444,1.484-2.786,1.484-4.025
	c0-1.545-0.601-2.848-1.799-3.904c-1.199-1.057-2.379-1.586-3.539-1.586c-0.945,0-1.907,0.37-2.891,1.108
	c-0.982,0.74-1.725,1.609-2.225,2.609c-0.524,0.75-0.987,1.85-1.39,3.289c-0.374,1.467-0.597,3.006-0.597,4.693H19.599z
	 M26.59,27.49l0.442,2.66l-2.471-1.432L26.59,27.49z"/>
<g>
	<path fill="#e2e2e2" d="M19.769,5.051v1.62h1.824v1.62h-1.805v2.645c0.777,0.28,1.539,1.05,2.379,2.24
		c-0.089,0.084-0.193,0.196-0.301,0.311l0.008,0.004c0.611-0.646,1.298-1.197,2.066-1.645c0.921-0.534,1.824-0.801,2.712-0.801
		c1.591,0,3.08,0.63,4.55,1.969c1.432,1.33,2.17,2.869,2.17,4.681c-0.023,2.899-1.876,5.94-5.558,9.123l1.04,6.224h-9.889h-9.82
		l1.04-6.224c-3.695-3.183-5.548-6.226-5.559-9.123c-0.012-1.808,0.699-3.368,2.131-4.681c1.433-1.313,2.95-1.969,4.553-1.969
		c0.887,0,1.82,0.28,2.73,0.801c0.761,0.42,1.47,0.981,2.03,1.633l0.006-0.003c-0.102-0.108-0.203-0.218-0.283-0.301
		c0.783-1.179,1.566-1.919,2.35-2.225V8.314h-1.805V6.67h1.824v-1.62H19.769 M19.769,4.231h-1.603c-0.435,0-0.786,0.352-0.786,0.786
		v0.834h-1.039c-0.433,0-0.785,0.352-0.785,0.786v1.62c0,0.42,0.35,0.771,0.77,0.771h1.02v1.357
		c-0.584,0.335-1.149,0.854-1.707,1.567c-0.396-0.32-0.812-0.608-1.242-0.86c-1.035-0.604-2.077-0.909-3.1-0.909
		c-1.797,0-3.508,0.732-5.083,2.176c-1.597,1.464-2.4,3.236-2.387,5.265c0.011,3.011,1.89,6.23,5.53,9.422l-0.967,5.811
		c-0.038,0.209,0,0.488,0.21,0.637c0.21,0.146,0.369,0.279,0.63,0.277h9.82h9.822c0.231,0,0.451-0.103,0.6-0.277
		c0.148-0.176,0.215-0.408,0.176-0.637l-0.968-5.792c3.624-3.222,5.472-6.388,5.497-9.42c0-2.034-0.808-3.804-2.403-5.266
		c-1.576-1.444-3.282-2.176-5.067-2.176c-1.021,0-2.066,0.306-3.105,0.907c-0.434,0.252-0.85,0.539-1.244,0.84
		c-0.559-0.707-1.119-1.221-1.701-1.554v-1.32h1.02c0.436,0,0.787-0.352,0.787-0.786V6.67c0-0.434-0.352-0.786-0.787-0.786h-1.037
		V5.051c-0.08-0.4-0.429-0.82-0.848-0.786h-0.02V4.231z"/>
</g>
</svg>
