<?xml version="1.0" encoding="utf-8"?>
<!-- Generator: Adobe Illustrator 16.0.4, SVG Export Plug-In . SVG Version: 6.00 Build 0)  -->
<!DOCTYPE svg PUBLIC "-//W3C//DTD SVG 1.1//EN" "http://www.w3.org/Graphics/SVG/1.1/DTD/svg11.dtd">
<svg version="1.1" id="whiteknight" xmlns="http://www.w3.org/2000/svg" xmlns:xlink="http://www.w3.org/1999/xlink" x="0px"
	 y="0px" width="38px" height="38px" viewBox="0 0 38 38" enable-background="new 0 0 38 38" xml:space="preserve">
<filter  id="AI_Shadow_1" filterUnits="objectBoundingBox">
	<feGaussianBlur  in="SourceAlpha" stdDeviation="1" result="blur"></feGaussianBlur>
	<feOffset  dx="2" dy="2" in="blur" result="offsetBlurredAlpha"></feOffset>
	<feMerge>
		<feMergeNode  in="offsetBlurredAlpha"></feMergeNode>
		<feMergeNode  in="SourceGraphic"></feMergeNode>
	</feMerge>
</filter>
<g opacity="0.5" filter="url(#AI_Shadow_1)">
	<path fill="#e2e2e2" d="M12.155,22.426c0.679-1.239,2.415-1.617,5.185-1.123l0.28,0.05l0.05,0.489
		c-0.205,0.342-0.455,0.906-0.875,1.532c-0.442,0.657-1.391,0.789-2.301,0.983c-1.48,1.26-2.498,2.584-3.025,3.92
		c-0.516,1.33-0.738,2.969-0.66,4.875h20.697c-0.351-0.875-0.646-1.887-0.88-3.013c-0.259-1.251-0.286-2.63-0.079-4.101
		c0.482-4.014,0.213-7.447-0.8-10.195c-1.007-2.729-3.399-4.9-7.222-6.823l-0.119-0.219L20.951,5.58l-1.692,2.24
		c-1.271,0.859-2.447,1.741-3.675,2.508c-1.4,0.876-1.781,1.152-1.867,1.4l0.135,0.649l-0.17,0.394l-0.209-0.227
		c-0.095-0.11-0.41,0.033-0.514-0.116l-5.775,4.2l-0.175,4.375l1.774-1.289l1.449,1.215l-2.057,1.357l3.115,1.75
		c0.121-0.291,0.351-0.711,0.841-1.609H12.155z"/>
</g>
<path fill="#e2e2e2" d="M30.742,26.068c0.488-4.068,0.219-7.499-0.811-10.291c-1.029-2.79-3.486-5.164-7.375-7.119l-1.637-3.7
	l-1.961,2.625c-1.262,0.853-2.515,1.669-3.76,2.447c-1.244,0.779-1.902,1.389-1.969,1.833l0.396,0.518h-0.006
	c-0.125-0.147-0.255-0.324-0.391-0.528l-6.753,4.484l0.205,5.064l2.08-1.467l0.87,0.853l-1.961,1.398l3.7,2.03
	c0-0.011,0.317-0.59,0.955-1.737c0.635-1.159,2.295-1.503,4.979-1.024c-0.205,0.341-0.518,0.826-0.938,1.471
	c-0.421,0.625-1.073,1.03-1.962,1.21c-1.533,1.297-2.574,2.647-3.119,4.05c-0.545,1.405-0.768,3.117-0.665,5.143h21.179
	c-0.399-0.934-0.725-2.016-0.98-3.25c-0.255-1.224-0.277-2.554-0.068-4.01H30.742z"/>
<path fill="#666666" d="M14.014,12.886l-0.783-1.023c0.068-0.443,0.725-1.053,1.969-1.833c1.245-0.778,2.498-1.594,3.76-2.447
	l1.961-2.626l1.637,3.7c3.889,1.96,6.37,4.34,7.351,7.118c1.029,2.801,1.33,6.23,0.84,10.291c-0.205,1.457-0.18,2.801,0.07,4.034
	c0.255,1.26,0.56,2.31,0.979,3.249H10.621c-0.102-2.024,0.12-3.736,0.665-5.142c0.546-1.404,1.587-2.755,3.121-4.05
	c0.887-0.182,1.541-0.586,1.961-1.211s0.733-1.109,0.938-1.449c-2.683-0.479-4.343-0.136-4.979,1.023
	c-0.637,1.148-0.955,1.729-0.955,1.738l-3.7-2.062l1.961-1.398l-0.87-0.854l-2.08,1.471l-0.205-5.062l6.752-4.486
	c0.136,0.21,0.279,0.35,0.42,0.528c0.097,0.148,0.23,0.289,0.37,0.49l-6.241,4.11l0.069,2.1l1.092-0.699l2.353,2.456l-1.33,1.107
	l0.801,0.479l0.666-0.769c0.431-0.511,1.045-0.925,1.842-1.244c0.614-0.205,1.551-0.357,2.813-0.46
	c1.262-0.103,2.38,0.351,3.29,1.263c-0.638,0.715-1.154,1.47-1.552,2.239c-0.399,0.792-1.263,1.372-2.593,1.748
	c-1.046,0.897-1.875,1.901-2.489,3.01s-0.888,2.378-0.818,3.812h17.375c-0.398-1.513-0.579-2.845-0.545-4
	c0.034-1.152,0.104-2.285,0.214-3.394c0.106-1.108,0.16-2.273,0.152-3.495c-0.005-1.222-0.236-2.657-0.688-4.305
	c-0.58-1.433-1.343-2.763-2.286-3.99c-0.945-1.228-2.434-2.296-4.468-3.206L20.67,7.379l-0.835,1.177
	c-1.125,0.706-2.308,1.45-3.546,2.234c-1.279,0.845-2.059,1.545-2.269,2.097H14.014z M9.853,16.724l0.631,0.56l-0.785,0.938
	l-0.972-0.444l0.563-0.954L9.853,16.724z M18.992,13.398l-3.614-0.035l1.979-1.705c0.341-0.284,0.795-0.065,1.33,0.657
	c0.602,0.72,0.724,1.07,0.304,1.083H18.992z M18.413,20.524c0.353,0.21,0.63,0.421,0.909,0.716c0.239-0.17,0.445-0.248,0.623-0.23
	c0.176,0,0.351,0,0.571-0.025c0.887-0.125,1.616-0.606,2.19-1.449c0.574-0.84,0.872-1.778,0.895-2.814l-0.324-1.141
	c-0.625,2.717-1.693,4.178-3.205,4.41c-0.238,0.033-0.494,0.066-0.768,0.094c-0.26,0.021-0.594,0.16-0.874,0.459L18.413,20.524z"/>
<g>
	<path fill="#e2e2e2" d="M20.92,4.957l1.637,3.7c3.889,1.96,6.37,4.34,7.351,7.118c1.029,2.801,1.33,6.23,0.84,10.291
		c-0.205,1.457-0.18,2.801,0.07,4.034c0.255,1.26,0.56,2.31,0.979,3.249H10.621c-0.102-2.024,0.12-3.736,0.665-5.142
		c0.546-1.404,1.587-2.755,3.121-4.05c0.887-0.182,1.541-0.586,1.961-1.211s0.733-1.109,0.938-1.449
		c-0.782-0.139-1.477-0.209-2.086-0.209c-1.478,0-2.441,0.411-2.893,1.232c-0.637,1.148-0.955,1.729-0.955,1.738l-3.7-2.062
		l1.961-1.398l-0.87-0.854l-2.08,1.468l-0.205-5.064l6.752-4.484c0.136,0.21,0.279,0.35,0.42,0.528l0.005-0.011l-0.396-0.518
		c0.066-0.443,0.724-1.053,1.968-1.833c1.245-0.778,2.498-1.594,3.76-2.447l1.933-2.599 M20.92,4.145
		c-0.246,0-0.48,0.116-0.629,0.315L18.41,6.98c-1.225,0.826-2.444,1.619-3.627,2.357c-1.249,0.782-1.941,1.402-2.212,1.959
		l-6.527,4.336c-0.229,0.151-0.362,0.412-0.35,0.686l0.204,5.064c0.012,0.28,0.21,0.561,0.42,0.7c0.11,0.069,0.209,0.069,0.35,0.081
		c0.068,0,0.137-0.009,0.204-0.026c-0.001,0,0,0.069,0,0.069c0.015,0.28,0.14,0.49,0.419,0.644l3.7,2.063
		c0.119,0.069,0.28,0.069,0.35,0.1c0.139,0,0.275-0.037,0.398-0.107c0.141-0.084,0.25-0.207,0.316-0.352
		c0.029-0.057,0.18-0.336,0.929-1.685c0.302-0.55,1.043-0.828,2.205-0.828c0.237,0,0.489,0,0.771,0.035
		c-0.084,0.126-0.173,0.259-0.267,0.399c-0.304,0.451-0.784,0.74-1.466,0.909c-0.129,0.026-0.25,0.085-0.351,0.169
		c-1.628,1.377-2.754,2.846-3.345,4.367c-0.584,1.503-0.826,3.342-0.718,5.459c0.021,0.42,0.35,0.77,0.77,0.746h21.179
		c0.264,0,0.51-0.132,0.656-0.354c0.145-0.22,0.17-0.499,0.066-0.742c-0.374-0.875-0.688-1.918-0.934-3.1
		c-0.236-1.141-0.258-2.406-0.068-3.764c0.505-4.191,0.217-7.776-0.852-10.673c-1.073-2.91-3.598-5.405-7.507-7.421L21.603,4.63
		c-0.112-0.256-0.353-0.432-0.63-0.464c0.007-0.021-0.021-0.021-0.021-0.021L20.92,4.171V4.145z"/>
</g>
</svg>
