<?xml version="1.0" encoding="utf-8"?>
<!-- Generator: Adobe Illustrator 16.0.4, SVG Export Plug-In . SVG Version: 6.00 Build 0)  -->
<!DOCTYPE svg PUBLIC "-//W3C//DTD SVG 1.1//EN" "http://www.w3.org/Graphics/SVG/1.1/DTD/svg11.dtd">
<svg version="1.1" id="whitepawn" xmlns="http://www.w3.org/2000/svg" xmlns:xlink="http://www.w3.org/1999/xlink" x="0px" y="0px"
	 width="38px" height="38px" viewBox="0 0 38 38" enable-background="new 0 0 38 38" xml:space="preserve">
<filter  id="AI_Shadow_1" filterUnits="objectBoundingBox">
	<feGaussianBlur  in="SourceAlpha" stdDeviation="1" result="blur"></feGaussianBlur>
	<feOffset  dx="2" dy="2" in="blur" result="offsetBlurredAlpha"></feOffset>
	<feMerge>
		<feMergeNode  in="offsetBlurredAlpha"></feMergeNode>
		<feMergeNode  in="SourceGraphic"></feMergeNode>
	</feMerge>
</filter>
<g opacity="0.5" filter="url(#AI_Shadow_1)">
	<path fill="#e2e2e2" d="M10.105,30.445v1.062h18.735v-1.053c0.031-0.854-0.225-1.445-0.693-2.047
		c-0.486-0.619-1.188-1.125-2.037-1.686c-1.325-1.047-2.244-2.537-2.859-3.98c-0.609-1.428-1.048-2.96-1.301-4.554l-0.038-0.225
		h4.448l-4.662-3.688l0.364-0.291c0.899-0.788,1.356-1.805,1.356-3.02c0-1.097-0.391-2.055-1.16-2.845
		c-0.771-0.789-1.707-1.209-2.756-1.19c-1.089,0-2.027,0.401-2.791,1.189c-0.766,0.79-1.152,1.748-1.152,2.87
		c0,1.19,0.49,2.239,1.33,3.021l0.17,0.148l-4.468,3.83l4.866,0.029l-0.211,0.475c-0.268,1.592-0.952,2.844-1.557,4.271
		c-0.611,1.444-1.584,2.704-2.894,3.739c-0.874,0.568-1.557,1.166-2.043,1.788c-0.474,0.601-0.701,1.301-0.631,2.155H10.105z"/>
</g>
<path fill="#e2e2e2" d="M9.559,31.854h9.856h9.855v-1.262c0.035-0.91-0.208-1.689-0.725-2.338c-0.518-0.648-1.227-1.262-2.123-1.842
	c-1.328-1.033-2.309-2.269-2.932-3.709c-0.627-1.438-1.067-2.958-1.328-4.562h4.893l-4.842-4.075
	c0.977-0.841,1.467-1.91,1.467-3.206c0-1.17-0.42-2.176-1.254-3.018c-0.836-0.841-1.84-1.262-3.01-1.262
	c-1.183,0-2.189,0.421-3.018,1.262c-0.83,0.842-1.244,1.848-1.244,3.018c0,1.33,0.488,2.38,1.469,3.206l-4.842,4.075h4.895
	c-0.274,1.604-0.721,3.124-1.34,4.562c-0.619,1.44-1.594,2.676-2.924,3.709c-0.911,0.58-1.624,1.193-2.141,1.82
	c-0.519,0.648-0.753,1.428-0.708,2.337L9.559,31.854L9.559,31.854z"/>
<path fill="#666666" d="M19.415,31.854H9.559v-1.262c-0.046-0.91,0.19-1.689,0.707-2.338c0.518-0.648,1.23-1.262,2.141-1.842
	c1.33-1.033,2.304-2.269,2.924-3.709c0.619-1.438,1.066-2.958,1.34-4.562h-4.895l4.843-4.075c-0.978-0.841-1.468-1.91-1.468-3.206
	c0-1.17,0.416-2.176,1.246-3.018c0.828-0.841,1.835-1.262,3.018-1.262c1.17,0,2.17,0.42,3.01,1.26c0.836,0.839,1.26,1.82,1.26,3.018
	c0,1.296-0.488,2.364-1.467,3.206l4.842,4.076h-4.893c0.262,1.609,0.701,3.149,1.33,4.549c0.625,1.471,1.611,2.66,2.94,3.709
	c0.897,0.561,1.61,1.19,2.101,1.842c0.489,0.651,0.758,1.4,0.699,2.336v1.263h-9.822V31.854z M13.071,27.491
	c-1.603,0.968-2.353,2-2.251,3.104h17.188c0.09-1.103-0.66-2.137-2.252-3.104c-1.5-1.147-2.616-2.509-3.35-4.084
	c-0.734-1.573-1.186-3.327-1.355-5.261h-3.276c-0.169,1.934-0.622,3.688-1.354,5.261c-0.732,1.563-1.818,2.964-3.358,4.084
	l0.009-0.003V27.491z M14.845,17.035h9.139l-3.836-3.257c1.524-0.352,2.286-1.324,2.286-2.917c0-0.863-0.3-1.583-0.896-2.157
	c-0.598-0.573-1.303-0.861-2.122-0.861c-0.831,0-1.54,0.288-2.132,0.861c-0.592,0.575-0.887,1.293-0.887,2.17
	c0,1.61,0.77,2.59,2.311,2.917L14.845,17.035z"/>
<g>
	<path fill="#e2e2e2" d="M19.415,6.583c1.17,0,2.17,0.42,3.01,1.262c0.836,0.84,1.26,1.82,1.26,3.01
		c0,1.295-0.488,2.365-1.467,3.206l4.842,4.076h-4.893c0.262,1.609,0.701,3.149,1.33,4.562c0.625,1.47,1.611,2.66,2.94,3.71
		c0.897,0.561,1.61,1.189,2.101,1.842c0.516,0.63,0.77,1.4,0.699,2.335v1.263h-9.822H9.559v-1.256
		c-0.046-0.908,0.19-1.687,0.707-2.334c0.518-0.65,1.23-1.264,2.141-1.842c1.33-1.035,2.304-2.271,2.924-3.71
		c0.619-1.438,1.066-2.96,1.34-4.562h-4.895l4.843-4.076c-0.978-0.84-1.468-1.91-1.468-3.206c0-1.17,0.416-2.176,1.246-3.019
		c0.828-0.863,1.846-1.283,3.035-1.283 M19.415,5.797c-1.396,0-2.6,0.503-3.578,1.496c-0.977,0.991-1.471,2.191-1.471,3.57
		c0,1.19,0.35,2.24,1.119,3.15l-4.194,3.529c-0.253,0.212-0.346,0.562-0.232,0.871c0.114,0.279,0.42,0.489,0.771,0.517h3.941
		c-0.264,1.205-0.635,2.367-1.107,3.464c-0.561,1.3-1.455,2.436-2.657,3.377c-0.962,0.618-1.737,1.288-2.3,1.96
		c-0.634,0.797-0.931,1.754-0.878,2.846v1.242c0,0.42,0.35,0.77,0.77,0.785h9.856h9.856c0.434,0,0.784-0.352,0.784-0.785v-1.263
		c0.042-1.067-0.26-2.028-0.896-2.826c-0.562-0.702-1.327-1.374-2.28-1.993c-1.208-0.943-2.105-2.081-2.669-3.38
		c-0.478-1.095-0.847-2.258-1.104-3.462h3.947c0.33,0,0.625-0.206,0.738-0.517c0.113-0.31,0.021-0.658-0.232-0.87l-4.193-3.53
		c0.73-0.88,1.098-1.937,1.098-3.15c0-1.379-0.498-2.581-1.481-3.572c-1.024-0.975-2.259-1.465-3.589-1.459H19.415z"/>
</g>
</svg>
