<?xml version="1.0" encoding="utf-8"?>
<!-- Generator: Adobe Illustrator 16.0.4, SVG Export Plug-In . SVG Version: 6.00 Build 0)  -->
<!DOCTYPE svg PUBLIC "-//W3C//DTD SVG 1.1//EN" "http://www.w3.org/Graphics/SVG/1.1/DTD/svg11.dtd">
<svg version="1.1" id="whitequeen" xmlns="http://www.w3.org/2000/svg" xmlns:xlink="http://www.w3.org/1999/xlink" x="0px" y="0px"
	 width="38px" height="38px" viewBox="0 0 38 38" enable-background="new 0 0 38 38" xml:space="preserve">
<filter  id="AI_Shadow_1" filterUnits="objectBoundingBox">
	<feGaussianBlur  in="SourceAlpha" stdDeviation="1" result="blur"></feGaussianBlur>
	<feOffset  dx="2" dy="2" in="blur" result="offsetBlurredAlpha"></feOffset>
	<feMerge>
		<feMergeNode  in="offsetBlurredAlpha"></feMergeNode>
		<feMergeNode  in="SourceGraphic"></feMergeNode>
	</feMerge>
</filter>
<g opacity="0.5" filter="url(#AI_Shadow_1)">
	<path fill="#e2e2e2" d="M33.151,13.269c-0.405-0.402-0.852-0.507-1.416-0.507c-0.565,0-0.866,0.209-1.268,0.63
		c-0.404,0.403-0.656,0.791-0.656,1.356c0,0.21,0.069,0.421,0.14,0.612c0.036,0.16-0.063,0.279,0.069,0.47l0.334,0.351l-3.965,2.805
		l-1.805-9.044l0.136-0.067c0.659-0.324,1.026-0.848,1.12-1.604c0.041-0.443-0.116-0.921-0.467-1.414
		c-0.352-0.492-0.76-0.545-1.318-0.608c-0.535-0.05-0.83-0.049-1.269,0.307c-0.46,0.286-0.694,0.707-0.764,1.266
		c-0.084,0.711-0.111,1.26,0.42,1.761l0.465-0.098l-3.927,7.969L15.322,9.68l0.112-0.098c0.556-0.481,0.791-1.062,0.719-1.776
		c-0.063-0.562-0.307-1.011-0.747-1.368c-0.44-0.355-0.988-0.29-1.555-0.237c-0.56,0.062-0.782,0.208-1.138,0.7
		s-0.672,0.876-0.621,1.323c0.084,0.77,0.42,1.26,1.119,1.602l0.35,0.109l-1.863,9.038l-3.861-2.919l0.104-0.235
		c0.115-0.199,0.195-0.373,0.238-0.52c0.063-0.189,0.094-0.388,0.094-0.594c0-0.562-0.195-1.033-0.599-1.438
		c-0.404-0.402-0.868-0.244-1.431-0.244c-0.565,0-0.705-0.054-1.108,0.35c-0.402,0.403-0.936,0.77-0.936,1.33s0.21,1.05,0.63,1.438
		c0.403,0.42,0.84,0.631,1.47,0.6c0.071,0,0.167-0.011,0.291-0.031l0.128-0.022l0.276,0.141c1.663,2.521,2.87,5.25,3.57,7.829
		c0.627,2.52,0.21,4.965-1.006,7.524l19.136-0.028c-1.198-2.562-1.49-5.129-0.867-7.634c0.639-2.572,1.812-5.171,3.488-7.726
		l0.07-0.107l0.127,0.021c0.123,0,0.211,0,0.281,0c0.564,0,1.034-0.195,1.439-0.599c0.401-0.403,0.598-0.874,0.598-1.438
		c-0.082-0.55-0.258-0.971-0.678-1.402H33.151z"/>
</g>
<path fill="#e2e2e2" d="M31.71,12.453c-0.615,0-1.141,0.219-1.578,0.656s-0.656,0.964-0.656,1.61c0,0.209,0,0.42,0.07,0.648
	c0.034,0.14,0.139,0.35,0.28,0.562l-3.343,2.37l-1.707-8.287c0.717-0.351,1.127-0.938,1.229-1.756
	c0.044-0.5-0.123-1.016-0.503-1.552c-0.383-0.534-0.879-0.835-1.493-0.904c-0.614-0.057-1.159,0.108-1.636,0.495
	c-0.479,0.387-0.751,0.887-0.819,1.5c-0.092,0.77,0.14,1.4,0.77,1.944l-3.374,7l-3.377-7.025c0.602-0.522,0.862-1.17,0.785-1.944
	c-0.068-0.614-0.342-1.114-0.819-1.501c-0.478-0.386-1.022-0.551-1.637-0.495c-0.614,0.069-1.115,0.37-1.501,0.904
	c-0.387,0.536-0.553,1.052-0.495,1.552c0.091,0.84,0.49,1.4,1.261,1.756l-1.705,8.26l-3.342-2.37
	c0.125-0.216,0.21-0.403,0.255-0.562c0.068-0.205,0.102-0.421,0.102-0.648c0-0.614-0.22-1.14-0.657-1.577
	c-0.439-0.438-0.964-0.657-1.578-0.657s-1.14,0.219-1.578,0.657s-0.667,0.96-0.702,1.594c-0.035,0.635,0.219,1.121,0.63,1.61
	c0.438,0.42,0.979,0.63,1.61,0.656c0.079,0,0.188-0.011,0.324-0.034c1.66,2.521,2.8,5.111,3.43,7.631
	c0.642,2.59,0.35,5.158-0.98,7.784h9.942h9.94c-1.297-2.626-1.625-5.22-0.988-7.784c0.636-2.562,1.79-5.117,3.461-7.665
	c0.136,0,0.21,0,0.35,0.034c0.613,0,1.139-0.218,1.577-0.656c0.437-0.437,0.657-0.963,0.657-1.576c0-0.615-0.22-1.14-0.657-1.578
	c-0.411-0.455-0.946-0.666-1.577-0.653H31.71z"/>
<path fill="#666666" d="M18.972,32.335H9.03c1.296-2.625,1.621-5.219,0.979-7.784c-0.643-2.562-1.793-5.117-3.453-7.663
	c-0.136,0.033-0.213,0.033-0.353,0.033c-0.614,0-1.141-0.219-1.578-0.656s-0.656-0.963-0.656-1.577s0.218-1.14,0.656-1.577
	c0.438-0.438,0.964-0.657,1.578-0.657c0.614,0,1.139,0.209,1.61,0.657c0.436,0.42,0.63,0.98,0.63,1.609
	c0,0.229-0.034,0.445-0.102,0.648c-0.045,0.16-0.131,0.348-0.256,0.563l3.341,2.37l1.706-8.287
	c-0.728-0.352-1.138-0.938-1.228-1.757c-0.058-0.5,0.107-1.016,0.494-1.552c0.387-0.534,0.888-0.835,1.502-0.903
	c0.613-0.057,1.189,0.14,1.609,0.495c0.477,0.42,0.77,0.91,0.84,1.501c0.078,0.773-0.183,1.421-0.784,1.944l3.377,7l3.374-7.025
	c-0.613-0.522-0.875-1.169-0.783-1.944c0.069-0.614,0.341-1.114,0.818-1.501c0.479-0.385,1.024-0.551,1.639-0.495
	c0.613,0.07,1.119,0.35,1.469,0.904c0.381,0.56,0.561,1.05,0.49,1.552c-0.102,0.818-0.511,1.405-1.229,1.756l1.707,8.259
	l3.342-2.369c-0.137-0.217-0.221-0.402-0.256-0.563c-0.068-0.204-0.102-0.421-0.102-0.648c0-0.613,0.219-1.138,0.656-1.577
	c0.438-0.438,0.963-0.656,1.577-0.656s1.139,0.209,1.61,0.656c0.436,0.42,0.63,0.98,0.63,1.577c0,0.598-0.22,1.141-0.657,1.61
	c-0.438,0.438-0.963,0.656-1.577,0.656c-0.079,0-0.188-0.011-0.323-0.033c-1.673,2.547-2.826,5.102-3.463,7.63
	c-0.637,2.564-0.306,5.179,0.98,7.784h-9.875V32.335z M6.217,13.63c-0.706,0-1.058,0.353-1.058,1.057c0,0.7,0.35,1.051,1.05,1.051
	c0.716,0,1.074-0.353,1.074-1.059c0.008-0.697-0.379-1.047-1.079-1.049H6.217z M18.972,23.399v0.031c1.262,0,2.521,0.141,3.78,0.452
	c1.278,0.28,2.521,0.7,3.78,1.151c0.191-1.193,0.537-2.4,1.031-3.623c0.496-1.223,1.094-2.431,1.799-3.625l-3.75,2.644
	l-2.098-10.248l-4.553,9.464l-4.553-9.464L12.312,20.43l-3.751-2.644c0.693,1.191,1.26,2.381,1.75,3.641
	c0.49,1.26,0.845,2.45,1.05,3.624c1.229-0.466,2.482-0.851,3.76-1.151c1.318-0.328,2.562-0.469,3.823-0.5H18.972z M18.972,31.073
	h8.152c-0.604-1.479-0.848-3.069-0.735-4.774c-1.136-0.444-2.347-0.827-3.631-1.151c-1.285-0.324-2.548-0.486-3.786-0.486
	c-1.251,0-2.518,0.162-3.802,0.486c-1.285,0.324-2.49,0.707-3.615,1.151c0.103,1.706-0.144,3.296-0.733,4.774H18.972z
	 M11.315,29.505c0.216-0.978,0.301-1.876,0.255-2.695l2.029,1.229L11.315,29.505L11.315,29.505z M14.163,6.911
	c-0.705,0-1.057,0.353-1.057,1.057c0,0.7,0.35,1.05,1.051,1.057c0.703,0,1.057-0.351,1.057-1.057
	c0.006-0.707-0.33-1.057-1.031-1.057H14.163z M16.601,27.612l2.371-1.414l2.371,1.466l-2.371,1.433L16.601,27.612z M23.78,6.911
	c-0.705,0-1.058,0.353-1.058,1.05c0,0.7,0.351,1.05,1.05,1.057c0.705,0,1.057-0.352,1.057-1.057c0.008-0.7-0.355-1.05-1.056-1.05
	H23.78z M26.628,29.521c-0.229-0.978-0.313-1.876-0.256-2.696l-2.028,1.229l2.284,1.451l0,0V29.521z M31.727,13.63
	c-0.717,0-1.075,0.353-1.075,1.05c0,0.7,0.351,1.05,1.051,1.058c0.703,0,1.057-0.352,1.057-1.058
	c0.024-0.698-0.305-1.048-1.005-1.05H31.727z"/>
<g>
	<path fill="#e2e2e2" d="M23.788,5.757c0.074,0,0.14,0,0.209,0.011c0.615,0.07,1.121,0.35,1.471,0.91
		c0.381,0.56,0.561,1.05,0.49,1.552c-0.103,0.818-0.512,1.405-1.228,1.756l1.706,8.287l3.342-2.37
		c-0.137-0.215-0.222-0.402-0.256-0.562c-0.068-0.205-0.103-0.421-0.103-0.648c0-0.614,0.219-1.139,0.657-1.577
		c0.437-0.438,0.963-0.657,1.576-0.657c0.614,0,1.14,0.21,1.611,0.657c0.436,0.42,0.629,0.979,0.629,1.577
		c0,0.597-0.219,1.141-0.656,1.609c-0.438,0.439-0.963,0.657-1.576,0.657c-0.08,0-0.189-0.012-0.324-0.034
		c-1.673,2.547-2.826,5.102-3.462,7.629c-0.638,2.565-0.308,5.181,0.979,7.785h-9.883H9.03c1.296-2.626,1.621-5.22,0.979-7.785
		c-0.643-2.562-1.793-5.117-3.453-7.664c-0.136,0.023-0.245,0.035-0.324,0.035c-0.614,0-1.14-0.219-1.578-0.657
		c-0.438-0.437-0.657-0.963-0.657-1.577c0-0.613,0.218-1.139,0.657-1.576c0.438-0.438,0.964-0.657,1.578-0.657
		s1.139,0.21,1.61,0.657c0.437,0.42,0.63,0.979,0.63,1.609c0,0.228-0.035,0.443-0.103,0.648c-0.045,0.16-0.131,0.348-0.255,0.562
		l3.342,2.37l1.705-8.286c-0.728-0.352-1.137-0.938-1.228-1.756c-0.058-0.5,0.107-1.017,0.494-1.552
		c0.387-0.534,0.887-0.835,1.501-0.903c0.079-0.007,0.155-0.012,0.231-0.012c0.521,0,0.98,0.14,1.399,0.506
		c0.478,0.42,0.771,0.91,0.841,1.47c0.078,0.774-0.184,1.422-0.785,1.944l3.377,7.025l3.375-7.025
		c-0.613-0.522-0.875-1.169-0.783-1.944c0.069-0.614,0.34-1.114,0.818-1.5c0.396-0.339,0.88-0.479,1.37-0.479 M23.788,4.971V4.951
		c-0.702,0-1.341,0.229-1.9,0.68c-0.643,0.521-1.014,1.202-1.105,2.025c-0.098,0.84,0.139,1.54,0.629,2.186l-2.43,5.041L16.55,9.821
		c0.49-0.615,0.705-1.356,0.621-2.173c-0.092-0.831-0.463-1.511-1.104-2.031c-0.561-0.452-1.198-0.681-1.901-0.681
		c-0.1,0-0.199,0.005-0.303,0.014c-0.846,0.094-1.555,0.517-2.066,1.226c-0.504,0.697-0.719,1.405-0.639,2.1
		c0.096,0.84,0.49,1.54,1.12,2.048l-1.351,6.568l-1.829-1.297c0.009-0.027,0.018-0.055,0.025-0.082
		c0.085-0.25,0.133-0.553,0.133-0.865c0-0.824-0.298-1.541-0.886-2.131c-0.592-0.59-1.31-0.888-2.135-0.888
		c-0.826,0-1.545,0.298-2.133,0.887c-0.588,0.589-0.887,1.307-0.887,2.132c0,0.841,0.28,1.541,0.911,2.1
		c0.567,0.561,1.26,0.842,2.03,0.887c1.471,2.31,2.52,4.689,3.08,7.036c0.6,2.38,0.28,4.771-0.923,7.28
		c-0.12,0.244-0.105,0.56,0.07,0.764c0.143,0.209,0.419,0.35,0.7,0.37h9.943h9.94c0.272,0,0.524-0.14,0.668-0.37
		c0.144-0.231,0.158-0.52,0.037-0.764c-1.222-2.478-1.527-4.849-0.931-7.248c0.58-2.334,1.624-4.697,3.106-7.033
		c0.793-0.02,1.48-0.316,2.051-0.887c0.59-0.588,0.887-1.307,0.887-2.133c0-0.825-0.297-1.543-0.887-2.132
		c-0.591-0.589-1.307-0.888-2.133-0.888c-0.828,0-1.545,0.299-2.135,0.887c-0.588,0.588-0.887,1.306-0.887,2.1
		c0,0.28,0.07,0.561,0.141,0.858c0.007,0,0,0.069,0,0.091l-1.825,1.295l-1.353-6.573c0.635-0.483,1.021-1.177,1.127-2.037
		c0.064-0.715-0.152-1.415-0.642-2.104c-0.518-0.723-1.206-1.136-2.048-1.23c-0.155,0.034-0.23,0.034-0.37,0.055H23.788
		L23.788,4.971z"/>
</g>
</svg>
