<?xml version="1.0" encoding="utf-8"?>
<!-- Generator: Adobe Illustrator 16.0.4, SVG Export Plug-In . SVG Version: 6.00 Build 0)  -->
<!DOCTYPE svg PUBLIC "-//W3C//DTD SVG 1.1//EN" "http://www.w3.org/Graphics/SVG/1.1/DTD/svg11.dtd">
<svg version="1.1" id="whiteking" xmlns="http://www.w3.org/2000/svg" xmlns:xlink="http://www.w3.org/1999/xlink" x="0px" y="0px"
	 width="38px" height="38px" viewBox="0 0 38 38" enable-background="new 0 0 38 38" xml:space="preserve">
<rect x="-0.222" fill="#676767" width="38.222" height="38.222"/>
<path fill="#E1E1E1" d="M27.952,14.269c0.708,1.977,1.002,4.048,0.886,6.219c-0.119,2.171-0.277,4.308-0.478,6.414
	c-0.201,2.095,0.296,3.906,1.486,5.435c-1.935-1.382-2.893-3.041-2.904-4.896c-0.047-1.846,0.023-3.786,0.213-5.821
	c0.218-2.034,0.091-4.069-0.292-6.174c-0.209-1.019-0.661-1.998-1.352-2.957l-8.729,8.729c1.07,0.03,2.181-0.311,3.331-1.015
	c1.168-0.714,2.116-2.415,2.85-5.105c0.034,0.238,0.1,0.455,0.202,0.655c0.1,0.2,0.15,0.402,0.15,0.602
	c-0.036,1.626-0.428,2.848-1.177,3.662c-0.751,0.814-1.567,1.388-2.459,1.716c-0.892,0.33-1.703,0.501-2.435,0.513l-1.113,0.019
	c-0.248,0.354-0.564,2.773-0.947,3.108c-0.284,0.249-0.644,1.46-1.039,1.596l-2.436,1.783c-0.31,0.481-1.032,1.03-1.224,1.525
	c-0.565,1.458-0.796,1.159-0.689,3.26l21.976-0.02c-0.434-0.964-0.751-2.052-1.016-3.36c-0.26-1.235-0.285-2.629-0.072-4.14
	c0.509-4.214,0.195-7.774-0.871-10.678c-0.539-1.527-1.527-2.935-2.925-4.227l-0.658,0.658
	C27.045,12.53,27.627,13.361,27.952,14.269z"/>
<g>
	<path fill="#E1E1E1" d="M16.782,21.218c-0.016-0.001-0.031,0.003-0.048,0.002c-2.784-0.496-4.507-0.142-5.166,1.06
		c-0.662,1.194-0.993,1.794-0.993,1.807l-3.838-2.141l2.034-1.452l-0.902-0.886L5.71,21.135l-0.213-5.206l7.01-4.652
		c0.071-0.46,0.752-1.093,2.043-1.901c1.291-0.808,2.592-1.656,3.901-2.54l3.072-1.687l0.662,2.802
		c1.899,0.957,3.462,2.014,4.703,3.161L38,0H-0.222v38.222l11.483-11.483C11.866,25.8,16.782,21.218,16.782,21.218z"/>
	<path fill="#E1E1E1" d="M18.205,11.836c-0.591-0.812-1.061-1.06-1.417-0.742l-2.054,1.927l3.751-0.01v0.028
		C18.887,13.04,18.792,12.651,18.205,11.836z"/>
	<polygon fill="#E1E1E1" points="7.621,17.471 8.843,17.841 9.656,16.868 9.002,16.32 8.08,16.337 	"/>
	<path fill="#E1E1E1" d="M22.361,9.394c1.354,1.023,2.396,2.048,3.15,3.095l0.719-0.72C25.274,10.876,23.991,10.081,22.361,9.394z"
		/>
</g>
</svg>
