<?xml version="1.0" encoding="utf-8"?>
<!-- Generator: Adobe Illustrator 16.0.4, SVG Export Plug-In . SVG Version: 6.00 Build 0)  -->
<!DOCTYPE svg PUBLIC "-//W3C//DTD SVG 1.1//EN" "http://www.w3.org/Graphics/SVG/1.1/DTD/svg11.dtd">
<svg version="1.1" id="whiteking" xmlns="http://www.w3.org/2000/svg" xmlns:xlink="http://www.w3.org/1999/xlink" x="0px" y="0px"
	 width="38px" height="38px" viewBox="0 0 38 38" enable-background="new 0 0 38 38" xml:space="preserve">
<rect x="0.042" y="-0.111" fill="#E1E1E1" width="38.222" height="38.222"/>
<path fill="#676767" d="M12.77,11.166c0.071-0.46,0.752-1.093,2.043-1.901c1.291-0.808,2.592-1.656,3.901-2.54l3.073-1.687
	l0.662,2.802c4.035,2.033,6.609,4.503,7.627,7.388c1.066,2.904,1.381,6.464,0.871,10.679c-0.213,1.51-0.188,2.904,0.072,4.139
	c0.266,1.309,0.582,2.396,1.016,3.361l-21.975,0.02c-0.106-2.102,0.124-3.877,0.689-5.336s1.646-2.859,3.236-4.203
	c0.59-0.131,1.077-0.363,1.462-0.701c0.383-0.334,0.699-0.68,0.947-1.033l1.113-0.018c0.732-0.012,1.543-0.184,2.435-0.514
	c0.891-0.328,1.707-0.9,2.459-1.715c0.748-0.815,1.141-2.036,1.176-3.663c0-0.2-0.051-0.401-0.15-0.602
	c-0.102-0.2-0.168-0.417-0.201-0.655c-0.734,2.69-1.682,4.391-2.85,5.104c-1.167,0.715-2.294,1.061-3.379,1.018
	c-2.784-0.496-4.507-0.143-5.166,1.059c-0.662,1.195-0.993,1.795-0.993,1.807L7,21.834l2.034-1.451l-0.902-0.886l-2.159,1.527
	L5.76,15.818L12.77,11.166z M9.265,16.209l-0.921,0.017l-0.46,1.134l1.222,0.37l0.813-0.973L9.265,16.209z M18.749,12.929
	c0.401,0,0.307-0.389-0.28-1.204c-0.591-0.812-1.061-1.06-1.417-0.742l-2.054,1.927l3.751-0.01V12.929z M30.127,32.25
	c-1.203-1.533-1.705-3.352-1.504-5.459c0.201-2.105,0.359-4.242,0.479-6.414c0.115-2.17-0.178-4.242-0.887-6.219
	c-0.707-1.975-2.572-3.603-5.59-4.875c2.594,1.961,4.066,3.922,4.502,6.052c0.383,2.105,0.51,4.141,0.291,6.175
	c-0.189,2.035-0.26,3.975-0.213,5.82c0.012,1.869,0.982,3.539,2.945,4.928L30.127,32.25z"/>
</svg>
