<?xml version="1.0" encoding="utf-8"?>
<!-- Generator: Adobe Illustrator 16.0.4, SVG Export Plug-In . SVG Version: 6.00 Build 0)  -->
<!DOCTYPE svg PUBLIC "-//W3C//DTD SVG 1.1//EN" "http://www.w3.org/Graphics/SVG/1.1/DTD/svg11.dtd">
<svg version="1.1" id="blackbishop" xmlns="http://www.w3.org/2000/svg" xmlns:xlink="http://www.w3.org/1999/xlink" x="0px"
	 y="0px" width="38px" height="38px" viewBox="0 0 38 38" enable-background="new 0 0 38 38" xml:space="preserve">
<filter  id="AI_Shadow_1" filterUnits="objectBoundingBox">
	<feGaussianBlur  in="SourceAlpha" stdDeviation="1" result="blur"></feGaussianBlur>
	<feOffset  dx="2" dy="2" in="blur" result="offsetBlurredAlpha"></feOffset>
	<feMerge>
		<feMergeNode  in="offsetBlurredAlpha"></feMergeNode>
		<feMergeNode  in="SourceGraphic"></feMergeNode>
	</feMerge>
</filter>
<g opacity="0.5" filter="url(#AI_Shadow_1)">
	<path fill="#e2e2e2" d="M19.954,31.778c1.102,0.91,2.311,1.399,3.71,1.395h8.24c-0.036-1.173-0.391-2.084-1.053-2.713
		c-0.704-0.666-1.664-0.73-2.47-0.73l-3.998-0.163c-0.604,0-1.057,0.027-1.486-0.055c-0.473-0.088-1.117-0.31-1.521-0.959
		c-0.094-0.157-0.255-0.557-0.271-0.578l-0.044-0.326h3.562c-0.818-0.944-1.044-2.488-1.088-3.701l-0.002-0.082l0.057-0.06
		c1.275-1.331,2.193-2.596,2.727-3.758c0.521-1.134,0.476-2.341,0.097-3.663c-0.235-0.82-1.139-2.026-2.083-3.066
		c-0.949-1.045-2.637-2.352-5.182-4.077l-0.23-0.355l0.235-0.163c0.183-0.125,0.444-0.333,0.761-0.602
		c0.288-0.243,0.434-0.646,0.434-1.197c0-0.605-0.295-1.033-0.729-1.432c-0.438-0.401-0.832-0.436-1.443-0.436
		c-0.626,0-1.025,0.066-1.459,0.467c-0.427,0.397-0.783,0.793-0.783,1.401c0,0.56,0.141,0.98,0.42,1.19
		c0.321,0.28,0.561,0.49,0.771,0.598l0.249,0.162l-0.215,0.343c-2.557,1.722-3.98,2.894-4.932,3.92
		c-0.943,1.037-1.734,2.206-2.1,3.268c-0.458,1.299-0.683,2.482-0.161,3.616c0.534,1.19,1.47,2.45,2.729,3.758l0.059,0.069
		l-0.004,0.085c-0.055,1.213-0.422,2.456-1.09,3.698h3.556l0.009,0.307c-0.055,0.163-0.105,0.188-0.2,0.35
		c-0.419,0.652-0.685,0.999-1.159,1.088c-0.428,0.081-1.301,0.07-1.891,0.07l-4.061,0.334c-0.819,0-1.636,0.385-2.333,1.05
		c-0.659,0.628-1.165,1.161-1.2,2.335h8.241c1.332,0,2.568-0.471,3.676-1.395c1.096-0.919,1.652-2.006,1.652-3.233h0.394
		c-0.03,1.218,0.554,2.337,1.604,3.242H19.954z"/>
</g>
<path fill="#e2e2e2" d="M16.392,31.93c1.147-0.961,1.723-2.088,1.723-3.385c0,1.33,0.561,2.449,1.681,3.359
	c1.144,0.98,2.38,1.471,3.78,1.441h8.439c0-1.33-0.373-2.349-1.117-3.051c-0.744-0.706-1.549-1.059-2.411-1.059h-4.263
	c-0.593,0-1.098-0.04-1.52-0.119c-0.42-0.079-0.817-0.421-1.193-1.023c-0.096-0.16-0.15-0.248-0.166-0.273h3.525
	c-0.772-1.318-1.182-2.62-1.229-3.905c1.297-1.353,2.219-2.622,2.764-3.811c0.545-1.187,0.579-2.458,0.103-3.81
	c-0.388-1.092-1.065-2.169-2.028-3.232c-0.967-1.062-2.734-2.464-5.303-4.203c0.181-0.125,0.44-0.329,0.773-0.614
	c0.336-0.284,0.504-0.733,0.504-1.347c0-0.659-0.236-1.204-0.707-1.637c-0.473-0.432-1.038-0.648-1.697-0.648
	c-0.672,0-1.239,0.216-1.706,0.648c-0.466,0.433-0.698,0.978-0.698,1.637c0,0.63,0.14,1.05,0.49,1.33
	c0.328,0.28,0.559,0.49,0.77,0.614c-2.582,1.74-4.355,3.141-5.32,4.204c-0.966,1.063-1.636,2.14-2.012,3.22
	c-0.478,1.354-0.443,2.59,0.07,3.811c0.545,1.19,1.47,2.451,2.729,3.811c-0.057,1.285-0.467,2.586-1.227,3.904h3.525
	c-0.017,0.025-0.071,0.113-0.167,0.275c-0.387,0.602-0.792,0.944-1.212,1.021c-0.42,0.08-0.919,0.12-1.499,0.12H7.53
	c-0.876,0-1.683,0.353-2.421,1.058C4.369,30.971,4,31.988,4,33.317h8.589c1.387,0.076,2.666-0.413,3.786-1.388H16.392z"/>
<path fill="#666666" d="M14.653,28.117c0.137-0.227,0.192-0.316,0.17-0.273h-3.529c0.76-1.318,1.17-2.619,1.228-3.904
	c-1.296-1.354-2.217-2.622-2.763-3.811c-0.545-1.188-0.58-2.458-0.102-3.812c0.375-1.091,1.045-2.167,2.012-3.231
	c0.965-1.062,2.738-2.463,5.32-4.203c-0.192-0.125-0.453-0.329-0.783-0.614c-0.332-0.283-0.494-0.733-0.494-1.347
	c0-0.659,0.232-1.204,0.697-1.637c0.467-0.432,1.034-0.648,1.707-0.648c0.658,0,1.189,0.21,1.68,0.63
	c0.471,0.42,0.701,0.98,0.701,1.637c0,0.614-0.169,1.064-0.504,1.347c-0.336,0.285-0.596,0.489-0.775,0.63
	c2.568,1.75,4.34,3.15,5.32,4.203c0.965,1.051,1.61,2.17,2.029,3.231c0.479,1.329,0.42,2.624-0.102,3.78
	c-0.546,1.189-1.467,2.459-2.764,3.811c0.045,1.26,0.49,2.59,1.261,3.904h-3.528c-0.023-0.043,0.069,0.07,0.139,0.281
	c0.377,0.629,0.771,0.909,1.19,1.021c0.422,0.07,0.91,0.141,1.54,0.12h4.264c0.862,0,1.68,0.351,2.38,1.05
	c0.743,0.7,1.12,1.75,1.12,3.052H23.64c-1.398,0-2.668-0.48-3.812-1.442c-1.143-0.959-1.711-2.086-1.711-3.383
	c0,1.297-0.576,2.424-1.723,3.383c-1.148,0.962-2.416,1.442-3.803,1.442H4.149c0-1.329,0.369-2.349,1.109-3.052
	c0.739-0.705,1.545-1.059,2.421-1.059h4.263c0.579,0,1.078-0.037,1.5-0.118c0.419-0.053,0.832-0.403,1.183-0.963L14.653,28.117z
	 M18.114,23.326c1.363-0.022,2.73,0.21,4.061,0.647l0.785-1.243c-1.615-0.556-3.235-0.824-4.859-0.802
	c-1.639-0.022-3.258,0.246-4.859,0.802l0.784,1.243c1.354-0.45,2.7-0.66,4.1-0.647H18.114z M13.749,25.203
	c-0.057,0.443-0.205,0.91-0.443,1.396h9.617c-0.205-0.408-0.353-0.875-0.443-1.396H13.749z M17.312,15.891h-1.617v1.518h1.617v2.814
	h1.604v-2.814h1.62v-1.518h-1.62v-1.771h-1.604V15.891z"/>
<g>
	<path fill="#e2e2e2" d="M18.114,4.637c0.658,0,1.189,0.21,1.681,0.648c0.47,0.42,0.7,0.98,0.7,1.61
		c0,0.614-0.168,1.064-0.504,1.347c-0.336,0.285-0.595,0.49-0.774,0.614c2.567,1.75,4.339,3.15,5.319,4.2
		c0.965,1.05,1.61,2.17,2.031,3.23c0.477,1.33,0.419,2.624-0.104,3.812c-0.545,1.188-1.467,2.458-2.763,3.779
		c0.045,1.261,0.49,2.591,1.261,3.905h-3.554c0.017,0,0.069,0.14,0.14,0.273c0.376,0.63,0.771,0.91,1.191,1.05
		c0.42,0.07,0.908,0.141,1.539,0.12h4.263c0.862,0,1.681,0.35,2.38,1.058c0.744,0.7,1.12,1.75,1.12,3.051H23.64
		c-1.398,0-2.668-0.479-3.812-1.44c-1.143-0.961-1.711-2.088-1.711-3.385c0,1.297-0.576,2.424-1.723,3.361
		c-1.148,0.961-2.416,1.44-3.803,1.44H4.149c0-1.329,0.369-2.347,1.109-3.052c0.739-0.705,1.545-1.057,2.421-1.057h4.263
		c0.579,0,1.078-0.039,1.5-0.12c0.42-0.079,0.824-0.42,1.211-1.022c0.097-0.16,0.15-0.248,0.166-0.273h-3.525
		c0.76-1.319,1.17-2.619,1.228-3.904c-1.296-1.354-2.217-2.623-2.763-3.812c-0.545-1.188-0.58-2.458-0.102-3.812
		c0.375-1.091,1.045-2.168,2.012-3.23c0.965-1.063,2.738-2.464,5.32-4.204c-0.192-0.124-0.453-0.329-0.783-0.614
		c-0.332-0.283-0.494-0.733-0.494-1.347c0-0.659,0.232-1.204,0.697-1.636c0.465-0.395,1.016-0.605,1.716-0.605 M18.114,3.644
		c-0.93,0-1.734,0.308-2.391,0.916c-0.668,0.624-1.028,1.394-1.028,2.363c0,0.77,0.21,1.4,0.63,1.89
		c-2.071,1.449-3.515,2.632-4.396,3.602c-1.053,1.16-1.8,2.364-2.218,3.581c-0.563,1.597-0.517,3.149,0.14,4.55
		c0.544,1.189,1.4,2.45,2.661,3.756c-0.113,0.986-0.469,2.006-1.062,3.035c-0.162,0.279-0.178,0.619-0.048,0.911H7.707
		c-1.14,0-2.188,0.45-3.117,1.337c-0.943,0.896-1.421,2.17-1.421,3.779c0,0.561,0.42,0.98,0.98,1.008h8.442
		c1.622,0,3.119-0.564,4.447-1.676c0.422-0.354,0.779-0.727,1.074-1.123c0.293,0.42,0.63,0.77,1.05,1.12
		c1.325,1.12,2.8,1.681,4.479,1.678h8.44c0.558,0,1.007-0.452,1.007-1.008c0-1.612-0.48-2.885-1.432-3.784
		c-0.936-0.885-1.98-1.332-3.105-1.332h-2.695c0.132-0.295,0.113-0.636-0.051-0.918c-0.602-1.027-0.957-2.042-1.062-3.025
		c1.211-1.311,2.1-2.575,2.643-3.76c0.656-1.428,0.702-2.965,0.137-4.567c-0.43-1.212-1.182-2.414-2.232-3.573
		c-0.881-0.968-2.32-2.153-4.388-3.604c0.321-0.368,0.625-0.961,0.625-1.883c0-0.935-0.358-1.757-1.034-2.379
		c-0.666-0.614-1.459-0.894-2.368-0.908h-0.011V3.644z"/>
</g>
</svg>
