<?xml version="1.0" encoding="utf-8"?>
<!-- Generator: Adobe Illustrator 16.0.4, SVG Export Plug-In . SVG Version: 6.00 Build 0)  -->
<!DOCTYPE svg PUBLIC "-//W3C//DTD SVG 1.1//EN" "http://www.w3.org/Graphics/SVG/1.1/DTD/svg11.dtd">
<svg version="1.1" id="blackknight" xmlns="http://www.w3.org/2000/svg" xmlns:xlink="http://www.w3.org/1999/xlink" x="0px"
	 y="0px" width="38px" height="38px" viewBox="0 0 38 38" enable-background="new 0 0 38 38" xml:space="preserve">
<filter  id="AI_Shadow_1" filterUnits="objectBoundingBox">
	<feGaussianBlur  in="SourceAlpha" stdDeviation="1" result="blur"></feGaussianBlur>
	<feOffset  dx="2" dy="2" in="blur" result="offsetBlurredAlpha"></feOffset>
	<feMerge>
		<feMergeNode  in="offsetBlurredAlpha"></feMergeNode>
		<feMergeNode  in="SourceGraphic"></feMergeNode>
	</feMerge>
</filter>
<g opacity="0.5" filter="url(#AI_Shadow_1)">
	<path fill="#e2e2e2" d="M12.053,22.295c0.639-1.165,2.23-1.564,4.756-1.184l0.193,0.028l-0.088,1.681
		c-0.248,0.35-0.605,0.471-0.979,0.798c-0.383,0.335-0.889,0.627-1.467,0.761c-1.48,1.232-2.16,2.562-2.721,3.893
		c-0.516,1.326-1.119,2.821-1.04,4.727l20.695-0.016c-0.351-0.874-0.646-1.883-0.88-3.002c-0.258-1.246-0.285-2.623-0.078-4.094
		c0.482-4.016,0.213-7.449-0.801-10.195c-1.006-2.73-3.457-5.012-7.277-6.934l-0.063-0.109L20.789,5.58l-1.736,2.111
		c-1.268,0.857-2.28,1.73-3.514,2.5c-1.557,0.975-1.891,1.476-1.924,1.692l-0.291,0.35l-6.476,4.2l-0.086,4.459l1.918-1.352
		l1.354,1.167l-1.888,1.421l3.043,1.71c0.12-0.187,0.35-0.677,0.839-1.544H12.053z"/>
</g>
<path fill="#e2e2e2" d="M30.641,25.938c0.488-4.069,0.218-7.5-0.811-10.291c-1.029-2.791-3.486-5.163-7.375-7.119l-1.637-3.7
	l-1.962,2.626c-1.261,0.853-2.515,1.669-3.76,2.447c-1.244,0.779-1.9,1.389-1.968,1.832l-6.753,4.485l0.205,5.063l2.08-1.467
	l0.87,0.854l-1.961,1.398l3.7,2.062c0-0.011,0.318-0.591,0.956-1.738c0.6-1.096,2.125-1.451,4.554-1.086l-0.165,1.051
	c-0.238,0.335-0.539,0.663-0.902,0.983c-0.369,0.323-0.838,0.548-1.407,0.673c-1.534,1.297-2.575,2.646-3.12,4.06
	c-0.545,1.405-0.767,3.117-0.664,5.142l21.178-0.016c-0.399-0.934-0.725-2.012-0.98-3.24c-0.256-1.228-0.281-2.596-0.068-4.02
	H30.641z"/>
<path fill="#666666" d="M13.129,11.732c0.068-0.443,0.724-1.053,1.968-1.832c1.245-0.778,2.499-1.595,3.76-2.447l1.962-2.626
	l1.637,3.7c3.889,1.96,6.369,4.34,7.35,7.119c1.029,2.8,1.33,6.23,0.84,10.291c-0.205,1.455-0.18,2.799,0.07,3.99
	c0.255,1.26,0.561,2.309,0.98,3.238l-21.178,0.018c-0.103-2.024,0.119-3.736,0.664-5.141c0.545-1.405,1.586-2.756,3.119-4.051
	c0.568-0.125,1.038-0.35,1.408-0.674c0.369-0.324,0.674-0.656,0.913-0.997l1.073-0.017c0.705-0.012,1.486-0.176,2.346-0.495
	c0.859-0.316,1.647-0.869,2.37-1.653c0.722-0.785,1.099-1.961,1.134-3.529c0-0.193-0.049-0.387-0.145-0.58
	c-0.099-0.193-0.161-0.402-0.195-0.631c-0.707,2.593-1.62,4.232-2.746,4.92c-1.125,0.688-2.211,1.021-3.256,0.98
	c-2.684-0.479-4.344-0.137-4.979,1.021c-0.638,1.15-0.956,1.729-0.956,1.74l-3.7-2.063l1.961-1.399l-0.87-0.853l-2.08,1.471
	l-0.205-5.016L13.129,11.732z M9.751,16.593l-0.887,0.017l-0.443,1.092l1.176,0.357l0.785-0.938L9.751,16.593z M18.891,13.432
	c0.387,0,0.295-0.375-0.271-1.16c-0.569-0.784-1.023-1.022-1.365-0.716l-1.979,1.858l3.615-0.01V13.432z M29.855,32.052
	c-1.159-1.479-1.643-3.231-1.449-5.261s0.346-4.09,0.461-6.182c0.111-2.091-0.171-4.088-0.854-5.993
	c-0.682-1.903-2.479-3.471-5.388-4.698c2.501,1.89,3.919,3.78,4.339,5.832c0.369,2.03,0.491,3.99,0.281,5.95
	c-0.182,1.961-0.25,3.831-0.205,5.61c0.012,1.801,0.947,3.411,2.838,4.748L29.855,32.052z"/>
<g>
	<path fill="#e2e2e2" d="M20.818,4.827l1.637,3.7c3.889,1.96,6.369,4.34,7.35,7.119c1.029,2.8,1.33,6.23,0.84,10.29
		c-0.205,1.456-0.18,2.8,0.07,4.024c0.255,1.26,0.561,2.311,0.98,3.239l-21.178,0.017c-0.103-2.024,0.119-3.737,0.664-5.142
		c0.545-1.403,1.586-2.754,3.119-4.05c0.568-0.124,1.038-0.35,1.408-0.674c0.363-0.318,0.664-0.648,0.901-0.982l0.165-1.065
		c-0.612-0.093-1.168-0.14-1.667-0.14c-1.474,0-2.438,0.406-2.887,1.225c-0.637,1.149-0.956,1.729-0.956,1.738l-3.699-2.062
		l1.96-1.398l-0.869-0.853l-2.08,1.467l-0.203-5.062l6.752-4.485c0.068-0.443,0.724-1.053,1.968-1.832
		c1.245-0.778,2.499-1.595,3.76-2.447l1.963-2.632 M20.818,3.819c-0.316,0-0.615,0.148-0.807,0.404l-1.861,2.52
		c-1.207,0.815-2.413,1.599-3.587,2.333c-1.244,0.779-1.96,1.414-2.268,2.03l-6.479,4.271c-0.293,0.195-0.463,0.529-0.45,0.91
		l0.206,5.064c0.015,0.351,0.21,0.701,0.56,0.863c0.142,0.07,0.28,0.07,0.42,0.104c0.001,0,0,0,0,0
		c0.063,0.279,0.21,0.49,0.49,0.656l3.7,2.062c0.152,0.07,0.35,0.141,0.49,0.129c0.177,0,0.354-0.046,0.511-0.139
		c0.179-0.105,0.318-0.262,0.403-0.443c0.037-0.072,0.205-0.382,0.924-1.678c0.257-0.469,0.93-0.705,2.004-0.705
		c0.116,0,0.211,0,0.351,0.009c-0.127,0.14-0.269,0.278-0.424,0.413c-0.237,0.211-0.561,0.361-0.957,0.42
		c-0.161,0.035-0.31,0.109-0.436,0.216c-1.657,1.399-2.804,2.899-3.409,4.454c-0.595,1.531-0.841,3.4-0.731,5.529
		c0.027,0.561,0.49,0.98,0.98,0.957h0l21.177-0.016c0.339-0.001,0.655-0.172,0.841-0.453c0.188-0.282,0.219-0.641,0.085-0.951
		c-0.368-0.861-0.679-1.887-0.919-3.049c-0.23-1.108-0.252-2.346-0.065-3.678c0.508-4.232,0.217-7.852-0.863-10.779
		c-1.087-2.946-3.624-5.47-7.542-7.506L21.67,4.395c-0.146-0.327-0.452-0.554-0.808-0.594c0.031,0.041-0.014,0.041-0.014,0.019
		H20.818z"/>
</g>
</svg>
