<?xml version="1.0" encoding="utf-8"?>
<!-- Generator: Adobe Illustrator 16.0.4, SVG Export Plug-In . SVG Version: 6.00 Build 0)  -->
<!DOCTYPE svg PUBLIC "-//W3C//DTD SVG 1.1//EN" "http://www.w3.org/Graphics/SVG/1.1/DTD/svg11.dtd">
<svg version="1.1" id="blackpawn" xmlns="http://www.w3.org/2000/svg" xmlns:xlink="http://www.w3.org/1999/xlink" x="0px" y="0px"
	 width="38px" height="38px" viewBox="0 0 38 38" enable-background="new 0 0 38 38" xml:space="preserve">
<filter  id="AI_Shadow_1" filterUnits="objectBoundingBox">
	<feGaussianBlur  in="SourceAlpha" stdDeviation="1" result="blur"></feGaussianBlur>
	<feOffset  dx="2" dy="2" in="blur" result="offsetBlurredAlpha"></feOffset>
	<feMerge>
		<feMergeNode  in="offsetBlurredAlpha"></feMergeNode>
		<feMergeNode  in="SourceGraphic"></feMergeNode>
	</feMerge>
</filter>
<g opacity="0.5" filter="url(#AI_Shadow_1)">
	<path fill="#e2e2e2" d="M9.354,30.414v1.075h19.32v-1.065c0.031-0.863-0.197-1.604-0.684-2.213c-0.5-0.627-1.389-1.08-2.266-1.647
		c-1.365-1.062-2.182-2.487-2.814-3.948c-0.627-1.443-1.08-2.996-1.344-4.608l-0.039-0.229l4.461-0.009l-4.682-3.633l0.375-0.387
		c0.928-0.798,1.398-1.826,1.398-3.056c0-1.111-0.572-1.721-1.365-2.521c-0.793-0.799-1.514-1.167-2.625-1.167
		c-1.123,0-1.955,0.251-2.742,1.05c-0.789,0.8-1.4,1.526-1.4,2.66c0,1.26,0.49,2.24,1.4,3.056l0.367,0.387l-4.39,3.545l4.179,0.097
		l0.125,0.559c-0.278,1.576-0.467,2.767-1.098,4.235c-0.63,1.465-1.684,2.979-3.033,4.025c-0.9,0.575-1.773,1.123-2.275,1.75
		c-0.484,0.596-0.921,1.156-0.851,2.045H9.354z"/>
</g>
<path fill="#e2e2e2" d="M12.004,26.246c-0.91,0.58-1.622,1.193-2.141,1.842c-0.518,0.648-0.753,1.428-0.707,2.336v1.262h9.856h9.856
	v-1.262c0.033-0.908-0.209-1.688-0.725-2.336c-0.518-0.648-1.227-1.262-2.123-1.842c-1.33-1.034-2.309-2.27-2.932-3.707
	c-0.627-1.44-1.068-2.961-1.33-4.563h4.895L21.811,13.9c0.977-0.841,1.467-1.91,1.467-3.206c0-1.171-0.418-2.176-1.254-3.019
	c-0.834-0.841-1.838-1.262-3.008-1.262c-1.184,0-2.189,0.421-3.019,1.262c-0.831,0.842-1.245,1.848-1.245,3.01
	c0,1.33,0.49,2.38,1.471,3.206l-4.843,4.075h4.894C16,19.57,15.554,21.09,14.935,22.518c-0.626,1.477-1.574,2.667-2.904,3.729
	H12.004z"/>
<path fill="#666666" d="M19.013,31.686H9.158v-1.262c-0.046-0.908,0.19-1.688,0.707-2.336c0.518-0.648,1.23-1.262,2.141-1.842
	c1.33-1.034,2.305-2.27,2.924-3.707c0.619-1.44,1.066-2.961,1.34-4.563h-4.895l4.844-4.075c-0.979-0.841-1.468-1.91-1.468-3.206
	c0-1.171,0.415-2.176,1.245-3.019c0.829-0.841,1.836-1.262,3.018-1.262c1.17,0,2.17,0.42,3.01,1.26c0.836,0.84,1.26,1.82,1.26,3.019
	c0,1.295-0.488,2.364-1.467,3.206l4.842,4.074h-4.893c0.262,1.61,0.701,3.15,1.33,4.551c0.625,1.47,1.611,2.66,2.941,3.707
	c0.896,0.561,1.609,1.191,2.1,1.843c0.516,0.63,0.77,1.4,0.699,2.336v1.263h-9.823V31.686z"/>
<g>
	<path fill="#e2e2e2" d="M19.013,6.416c1.17,0,2.17,0.42,3.01,1.262c0.836,0.84,1.26,1.82,1.26,3.01
		c0,1.296-0.488,2.365-1.467,3.205l4.842,4.076h-4.893c0.262,1.609,0.701,3.15,1.33,4.562c0.625,1.47,1.611,2.661,2.941,3.71
		c0.896,0.56,1.609,1.189,2.1,1.842s0.758,1.4,0.699,2.336v1.262h-9.823H9.158v-1.262c-0.046-0.91,0.19-1.688,0.707-2.336
		c0.518-0.648,1.23-1.262,2.141-1.842c1.33-1.035,2.305-2.271,2.924-3.709s1.066-2.959,1.34-4.562h-4.895l4.844-4.075
		c-0.979-0.841-1.468-1.91-1.468-3.205c0-1.17,0.415-2.176,1.245-3.019c0.829-0.825,1.846-1.245,3.035-1.245 M19.013,5.375
		c-1.457,0-2.713,0.526-3.736,1.562c-1.019,1.034-1.535,2.287-1.535,3.726c0,1.19,0.35,2.24,0.98,3.119l-4.029,3.361
		c-0.324,0.271-0.443,0.718-0.297,1.115c0.145,0.42,0.49,0.631,0.98,0.663h3.663c-0.256,1.095-0.602,2.152-1.033,3.149
		c-0.544,1.262-1.413,2.367-2.582,3.282c-0.979,0.628-1.768,1.313-2.345,2.036c-0.668,0.838-0.98,1.843-0.927,2.99v1.238
		c0,0.561,0.42,0.979,0.98,1.008h9.856h9.856c0.557,0,1.008-0.452,1.008-1.008v-1.244c0.039-1.144-0.277-2.146-0.945-2.982
		c-0.574-0.719-1.357-1.404-2.324-2.035c-1.176-0.918-2.047-2.025-2.594-3.287c-0.438-1.002-0.781-2.057-1.033-3.152h3.67
		c0.424,0,0.803-0.264,0.947-0.661c0.146-0.397,0.025-0.845-0.299-1.116l-4.027-3.391c0.672-0.885,1.012-1.93,1.012-3.12
		c0-1.439-0.52-2.694-1.547-3.728c-1.002-0.966-2.279-1.526-3.68-1.493h-0.018V5.375z"/>
</g>
</svg>
