<?xml version="1.0" encoding="utf-8"?>
<!-- Generator: Adobe Illustrator 16.0.4, SVG Export Plug-In . SVG Version: 6.00 Build 0)  -->
<!DOCTYPE svg PUBLIC "-//W3C//DTD SVG 1.1//EN" "http://www.w3.org/Graphics/SVG/1.1/DTD/svg11.dtd">
<svg version="1.1" id="blackrook" xmlns="http://www.w3.org/2000/svg" xmlns:xlink="http://www.w3.org/1999/xlink" x="0px" y="0px"
	 width="38px" height="38px" viewBox="0 0 38 38" enable-background="new 0 0 38 38" xml:space="preserve">
<filter  id="AI_Shadow_1" filterUnits="objectBoundingBox">
	<feGaussianBlur  in="SourceAlpha" stdDeviation="1" result="blur"></feGaussianBlur>
	<feOffset  dx="2" dy="2" in="blur" result="offsetBlurredAlpha"></feOffset>
	<feMerge>
		<feMergeNode  in="offsetBlurredAlpha"></feMergeNode>
		<feMergeNode  in="SourceGraphic"></feMergeNode>
	</feMerge>
</filter>
<g opacity="0.5" filter="url(#AI_Shadow_1)">
	<polygon fill="#e2e2e2" points="29.705,31.491 29.145,27.36 26.555,25.401 25.645,13.851 28.164,12.031 28.445,6.501 23.965,6.501 
		23.965,9.161 21.234,9.161 21.234,6.501 16.754,6.501 16.754,9.091 14.025,9.091 14.025,6.501 9.685,6.501 9.965,12.031 
		12.484,13.501 11.574,25.331 8.915,27.501 8.285,31.491 	"/>
</g>
<polygon fill="#e2e2e2" points="26.695,25.191 25.854,13.921 28.375,12.101 28.654,6.291 23.754,6.291 23.754,8.811 21.445,8.811 
	21.445,6.291 18.994,6.291 16.545,6.291 16.545,8.811 14.234,8.811 14.234,6.291 9.265,6.291 9.544,12.101 12.135,13.921 
	11.225,25.191 8.565,27.221 8.075,31.701 18.994,31.701 29.914,31.701 29.425,27.221 "/>
<path fill="#666666" d="M18.977,31.7H8.046l0.495-4.502l2.711-2.012l0.853-11.238l-2.541-1.824l-0.29-5.815h4.928v2.507h2.336V6.31
	h2.439h2.438v2.507h2.336V6.311h4.928l-0.29,5.815l-2.54,1.824L26.7,25.187l2.712,2.014l0.493,4.502L18.977,31.7L18.977,31.7z
	 M18.977,25.868h6.496l-0.102-1.482h-6.395h-6.396l-0.103,1.482H18.977z M18.977,14.837h5.678l-0.102-1.502h-5.574H13.4
	l-0.102,1.502H18.977z"/>
<g>
	<path fill="#e2e2e2" d="M28.678,6.311h0.004 M28.678,6.311l-0.289,5.815l-2.541,1.824l0.854,11.236l2.711,2.014l0.494,4.48h-10.93
		H8.046l0.495-4.502l2.711-2.013l0.853-11.237l-2.541-1.824l-0.29-5.815h4.928v2.507h2.336V6.311h2.439h2.438v2.507h2.336V6.311
		H28.678 M28.682,5.303h-0.004h-4.927c-0.556,0-1.007,0.451-1.007,1.008v1.499h-0.32V6.311c0-0.557-0.452-1.008-1.008-1.008h-2.438
		h-2.441c-0.556,0-1.008,0.451-1.008,1.008v1.499h-0.32V6.311c0-0.557-0.451-1.008-1.008-1.008H9.273
		c-0.276,0-0.54,0.113-0.73,0.313c-0.189,0.2-0.291,0.469-0.276,0.745l0.29,5.814c0.015,0.28,0.14,0.561,0.42,0.771l2.081,1.493
		l-0.776,10.213L7.94,26.39c-0.226,0.166-0.371,0.42-0.401,0.699l-0.495,4.502c-0.032,0.279,0.07,0.56,0.28,0.77
		c0.191,0.209,0.49,0.351,0.77,0.336h10.931h10.929c0.286,0,0.56-0.123,0.751-0.336c0.189-0.213,0.281-0.497,0.25-0.783
		l-0.494-4.501c-0.029-0.278-0.176-0.533-0.4-0.7l-2.344-1.736l-0.773-10.213l2.081-1.496c0.249-0.179,0.403-0.461,0.419-0.768
		l0.287-5.755c0.004-0.036,0.006-0.073,0.006-0.11c-0.049-0.566-0.521-0.986-1.082-0.995H28.682z"/>
</g>
</svg>
