<?xml version="1.0" encoding="utf-8"?>
<!-- Generator: Adobe Illustrator 16.0.0, SVG Export Plug-In . SVG Version: 6.00 Build 0)  -->
<!DOCTYPE svg PUBLIC "-//W3C//DTD SVG 1.1//EN" "http://www.w3.org/Graphics/SVG/1.1/DTD/svg11.dtd">
<svg version="1.1" id="blackbishop" xmlns="http://www.w3.org/2000/svg" xmlns:xlink="http://www.w3.org/1999/xlink" x="0px"
	 y="0px" width="32px" height="32px" viewBox="0 0 32 32" enable-background="new 0 0 32 32" xml:space="preserve">
	<style>.piecehighlight { fill: #e2e2e2; } .piecedarkness { fill: #666666; }</style>
	<path class="piecedarkness" d="M28.811,14.395h-1.254c-0.572,0-1.183-0.447-1.354-0.998l-0.719-1.748c-0.271-0.504-0.161-1.252,0.244-1.657l0.889-0.888
		c0.406-0.408,0.406-1.071,0-1.479l-1.479-1.476c-0.404-0.406-1.068-0.406-1.478,0l-0.888,0.889
		c-0.406,0.405-1.153,0.517-1.66,0.245l-1.744-0.719c-0.549-0.17-0.999-0.779-0.999-1.354V3.959c0-0.574-0.472-1.045-1.043-1.045
		h-2.089c-0.572,0-1.045,0.471-1.045,1.045v1.252c0,0.575-0.446,1.184-0.994,1.354l-1.748,0.719
		c-0.506,0.271-1.252,0.162-1.657-0.245L8.902,6.149c-0.405-0.406-1.068-0.406-1.477,0L5.951,7.625c-0.408,0.406-0.408,1.07,0,1.477
		l0.886,0.89c0.406,0.405,0.519,1.153,0.246,1.657l-0.72,1.75c-0.172,0.549-0.779,0.996-1.354,0.996H3.756
		c-0.575,0-1.045,0.47-1.045,1.045v2.086c0,0.574,0.47,1.043,1.045,1.043H5.01c0.573,0.004,1.182,0.453,1.35,1l0.724,1.748
		c0.271,0.508,0.16,1.257-0.246,1.658l-0.889,0.89c-0.405,0.405-0.405,1.069,0,1.477l1.478,1.478c0.407,0.406,1.07,0.406,1.477,0
		l0.891-0.889c0.404-0.404,1.15-0.516,1.654-0.244l1.752,0.722c0.548,0.17,0.994,0.778,0.994,1.354v1.25
		c0,0.571,0.471,1.041,1.045,1.041h2.089c0.571,0,1.043-0.47,1.043-1.041v-1.25c0-0.575,0.45-1.185,0.999-1.354l1.749-0.722
		c0.505-0.271,1.251-0.16,1.657,0.244l0.886,0.889c0.407,0.406,1.071,0.406,1.478,0l1.479-1.478c0.406-0.407,0.406-1.069,0-1.477
		l-0.889-0.89c-0.405-0.401-0.517-1.15-0.244-1.658l0.719-1.748c0.171-0.547,0.781-0.996,1.354-0.996h1.254
		c0.571,0,1.043-0.471,1.043-1.047v-2.086C29.854,14.864,29.382,14.395,28.811,14.395z M21.505,16.48
		c0,2.884-2.336,5.218-5.218,5.218c-2.885,0-5.221-2.334-5.221-5.218c0-2.881,2.336-5.219,5.221-5.219
		C19.169,11.262,21.505,13.6,21.505,16.48z"/>
</svg>
