<?xml version="1.0" encoding="utf-8"?>
<!-- Generator: Adobe Illustrator 16.0.4, SVG Export Plug-In . SVG Version: 6.00 Build 0)  -->
<!DOCTYPE svg PUBLIC "-//W3C//DTD SVG 1.1//EN" "http://www.w3.org/Graphics/SVG/1.1/DTD/svg11.dtd">
<svg version="1.1" id="Layer_1" xmlns="http://www.w3.org/2000/svg" xmlns:xlink="http://www.w3.org/1999/xlink" x="0px" y="0px"
	 width="500px" height="150px" viewBox="0 0 500 150" enable-background="new 0 0 500 150" xml:space="preserve">
<rect x="-0.282" y="92.877" fill="#FFFFFF" width="500.564" height="107.123"/>
<rect x="-0.282" y="90.877" width="500.562" height="4"/>
<g>
	<g>
		<circle fill="#FFFFFF" cx="358.949" cy="34.219" r="3.387"/>
		<circle fill="#FFFFFF" cx="380.076" cy="16.479" r="3.387"/>
		<circle fill="#FFFFFF" cx="405.396" cy="16.479" r="3.387"/>
		<circle fill="#FFFFFF" cx="426.521" cy="34.219" r="3.387"/>
	</g>
	<polyline fill="#FFFFFF" points="370.341,77.979 362.642,83.859 361.222,93.829 392.837,93.829 424.451,93.829 423.035,83.859 
		415.132,77.979 	"/>
	<path fill="#FFFFFF" d="M426.414,28.41c-1.621,0-3.014,0.578-4.166,1.732c-1.152,1.152-1.729,2.544-1.729,4.248
		c0,0.551,0,1.107,0.185,1.711c0.09,0.368,0.367,0.923,0.738,1.484l-8.824,6.253l-4.506-21.872c1.895-0.926,2.975-2.475,3.246-4.634
		c0.114-1.32-0.326-2.681-1.328-4.096c-1.011-1.41-2.32-2.204-3.941-2.387c-1.621-0.149-3.059,0.286-4.316,1.307
		c-1.264,1.021-1.981,2.341-2.159,3.959c-0.244,2.031,0.364,3.696,2.03,5.132l-8.905,18.475l-8.912-18.542
		c1.588-1.379,2.274-3.088,2.071-5.132c-0.18-1.618-0.901-2.938-2.161-3.959c-1.263-1.021-2.697-1.456-4.32-1.309
		c-1.621,0.183-2.943,0.979-3.963,2.387c-1.021,1.414-1.459,2.778-1.308,4.098c0.242,2.217,1.296,3.693,3.33,4.635l-4.502,21.799
		l-8.817-6.255c0.33-0.569,0.553-1.064,0.672-1.482c0.18-0.541,0.27-1.113,0.27-1.711c0-1.621-0.582-3.011-1.733-4.163
		c-1.158-1.156-2.545-1.734-4.164-1.734c-1.621,0-3.011,0.578-4.166,1.734c-1.154,1.158-1.761,2.534-1.853,4.209
		c-0.094,1.676,0.578,2.959,1.662,4.248c1.156,1.108,2.584,1.662,4.25,1.732c0.207,0,0.496-0.031,0.854-0.091
		c4.383,6.652,7.391,13.487,9.055,20.14c1.693,6.836,0.924,13.614-2.588,20.545h26.24h26.231
		c-3.422-6.931-4.289-13.779-2.604-20.545c1.678-6.76,4.725-13.503,9.135-20.229c0.356,0,0.555,0,0.926,0.09
		c1.615,0,3.004-0.575,4.16-1.731c1.154-1.152,1.734-2.542,1.734-4.158c0-1.623-0.58-3.01-1.734-4.165
		c-1.084-1.2-2.496-1.758-4.16-1.724h0.074v0.001H426.414z"/>
	<path d="M430.488,30.094c-1.242-1.178-2.629-1.729-4.248-1.729c-1.623,0-3.008,0.572-4.164,1.729
		c-1.152,1.16-1.73,2.544-1.73,4.162c0,0.598,0.093,1.17,0.271,1.712c0.09,0.423,0.312,0.912,0.676,1.484l-8.822,6.253
		l-4.504-21.798c1.894-0.925,2.976-2.477,3.242-4.637c0.186-1.324-0.287-2.616-1.293-4.093c-0.924-1.464-2.258-2.201-3.877-2.387
		c-1.623-0.149-3.062,0.289-4.324,1.305c-1.262,1.023-1.979,2.343-2.16,3.964c-0.242,2.044,0.449,3.753,2.066,5.129l-8.906,18.542
		l-8.912-18.475c1.586-1.382,2.275-3.094,2.07-5.132c-0.186-1.56-0.959-2.854-2.219-3.962c-1.107-0.938-2.627-1.456-4.246-1.307
		c-1.619,0.181-2.941,0.975-3.965,2.385c-1.021,1.414-1.455,2.775-1.304,4.095c0.238,2.163,1.318,3.709,3.24,4.637l-4.502,21.872
		l-8.818-6.252c0.33-0.57,0.558-1.067,0.677-1.488c0.18-0.535,0.27-1.105,0.27-1.711c0-1.66-0.512-3.137-1.662-4.245
		c-1.244-1.183-2.629-1.734-4.25-1.734s-3.008,0.577-4.164,1.734c-1.155,1.152-1.729,2.542-1.729,4.16
		c0,1.621,0.576,3.011,1.729,4.165c1.152,1.152,2.543,1.729,4.164,1.729c0.369,0,0.572,0,0.933-0.085
		c4.381,6.717,7.418,13.462,9.112,20.223c1.693,6.77,0.838,13.614-2.582,20.54l-3.985,2.958l-1.433,10.033h31.65h31.639
		l-1.424-10.033l-4.209-3.123c-3.346-6.836-4.205-13.699-2.533-20.427c1.685-6.673,4.728-13.415,9.144-20.14
		c0.354,0.059,0.641,0.087,0.852,0.087c1.619,0,3.006-0.574,4.16-1.731c1.156-1.237,1.734-2.67,1.734-4.248
		C432.15,32.679,431.638,31.201,430.488,30.094z M359.109,37.081c-1.849,0-2.771-0.928-2.771-2.773c0-1.854,0.924-2.785,2.773-2.791
		c1.836,0.012,2.852,0.937,2.832,2.771C361.945,36.148,360.998,37.081,359.109,37.081z M405.474,13.784
		c1.847,0.002,2.8,0.925,2.779,2.771c0,1.86-0.932,2.788-2.791,2.788c-1.844-0.018-2.77-0.94-2.77-2.788
		C402.693,14.717,403.621,13.786,405.474,13.784z M377.312,16.572c0-1.858,0.93-2.789,2.79-2.789h0.054
		c1.85,0,2.735,0.923,2.721,2.789c0,1.863-0.936,2.791-2.789,2.791C378.236,19.343,377.312,18.42,377.312,16.572z M420.283,90.219
		h-27.494h-27.496l0.738-4.359l6.735-4.976h20.021V80.83h19.949l6.803,5.031L420.283,90.219z M415.466,52.051
		c-1.303,3.227-2.215,6.412-2.719,9.562l-0.379,3.34c-0.299,4.5,0.346,8.696,1.94,12.602h-21.516h-21.512
		c1.557-3.902,2.209-8.099,1.938-12.602l-0.514-3.294c-0.541-3.099-1.479-6.237-2.771-9.565c-1.293-3.324-2.789-6.466-4.616-9.608
		l9.897,6.978l5.533-27.048l12.016,24.976l12.017-24.976l5.537,27.048l9.896-6.979C418.357,45.633,416.777,48.823,415.466,52.051z
		 M426.396,37.081c-1.851-0.021-2.773-0.946-2.773-2.794c0-1.84,0.943-2.771,2.834-2.771h0.076c1.848,0.006,2.717,0.932,2.651,2.771
		C429.185,36.15,428.251,37.081,426.396,37.081z"/>
	<polygon fill="#00AEEF" points="368.031,52.906 369.207,64.557 385.3,64.557 388.441,50.818 368.816,50.818 	"/>
	<polygon fill="#EC008C" points="418.076,52.906 416.9,64.557 400.806,64.557 397.666,50.818 417.291,50.818 	"/>
	<path fill="#010101" d="M427.82,49.061h-12.213v0.224l-5.507-0.729h-34.819l-5.301,0.711v-0.205h-12.214v3.875h8.83l1.244,11.636
		c0.139,0.964,0.689,1.481,1.652,1.55h3.438h13.097c0.896,0,1.446-0.449,1.653-1.344l2.688-11.883
		c1.858-0.826,3.477-0.792,4.854,0.104l2.584,11.779c0.207,0.826,0.758,1.275,1.654,1.344h16.531c0.896,0,1.479-0.518,1.758-1.55
		l1.244-11.636h8.826V49.061L427.82,49.061z M384.685,62.607h-13.743l-0.996-9.672h0.035v-0.351h16.977L384.685,62.607z
		 M414.544,62.607h-13.742l-2.17-10.022h16.947L414.544,62.607z"/>
	<polygon points="386.537,70.435 392.794,66.705 399.052,70.574 392.794,74.357 	"/>
</g>
</svg>
