<?xml version="1.0" encoding="utf-8"?>
<!-- Generator: Adobe Illustrator 16.0.4, SVG Export Plug-In . SVG Version: 6.00 Build 0)  -->
<!DOCTYPE svg PUBLIC "-//W3C//DTD SVG 1.1//EN" "http://www.w3.org/Graphics/SVG/1.1/DTD/svg11.dtd">
<svg version="1.1" id="Layer_1" xmlns="http://www.w3.org/2000/svg" xmlns:xlink="http://www.w3.org/1999/xlink" x="0px" y="0px"
	 width="1200px" height="200px" viewBox="0 0 1200 200" enable-background="new 0 0 1200 200" xml:space="preserve">
<rect x="1.781" y="92.877" fill="#FFFFFF" width="1197.089" height="107.123"/>
<g>
	<path fill="#FFFFFF" d="M577.446,81.976h-10.611c-1.473,0-2.731-0.1-3.778-0.304c-1.048-0.199-2.034-1.069-2.968-2.606
		c-0.238-0.403-0.372-0.627-0.413-0.691h8.772c-1.925-3.358-2.945-6.672-3.057-9.945c3.227-3.447,5.517-6.682,6.875-9.711
		c1.354-3.022,1.44-6.258,0.255-9.709c-0.968-2.777-2.646-5.521-5.048-8.226c-2.408-2.708-6.807-6.278-13.197-10.706
		c0.455-0.318,1.094-0.84,1.926-1.564c0.834-0.721,1.252-1.867,1.252-3.43c0-1.68-0.588-3.069-1.76-4.174
		c-1.176-1.098-2.58-1.649-4.219-1.649c-1.675,0-3.084,0.552-4.246,1.649c-1.162,1.104-1.738,2.494-1.738,4.102
		c0,1.604,0.35,2.674,1.219,3.43c0.821,0.715,1.391,1.249,1.916,1.564c-6.425,4.431-10.836,8.003-13.238,10.699
		c-2.406,2.706-4.074,5.452-5.008,8.229c-1.191,3.449-1.104,6.597,0.175,9.708c1.357,3.027,3.655,6.241,6.795,9.624
		c-0.146,3.278-1.164,6.592-3.058,9.944h8.772c-0.044,0.07-0.18,0.291-0.413,0.696c-0.967,1.538-1.969,2.413-3.014,2.677
		c-1.051,0.202-2.291,0.304-3.732,0.304h-10.609c-2.18,0-4.188,0.9-6.024,2.696c-1.842,1.791-2.759,4.388-2.759,7.776h21.007
		c3.446,0,6.599-1.227,9.459-3.675c2.856-2.442,4.288-5.317,4.288-8.624c0,3.389,1.396,6.244,4.186,8.557
		c2.844,2.498,5.92,3.746,9.404,3.674h21.004c0-3.385-0.928-5.981-2.777-7.772c-1.487-1.562-3.476-2.632-5.565-2.542H577.446
		L577.446,81.976z"/>
	<path d="M584.09,84.682c-1.786-1.801-3.865-2.691-6.064-2.691h-10.86c-1.602,0.05-2.85-0.13-3.92-0.306
		c-1.069-0.18-2.08-1.067-3.029-2.674c-0.259-0.374-0.358-0.623-0.373-0.694h8.899c-2.14-3.346-3.099-6.733-3.208-9.942
		c3.298-3.445,5.646-6.682,7.033-9.709c1.329-3.026,1.479-6.32,0.26-9.708c-1.07-2.677-2.709-5.526-5.17-8.203
		c-2.494-2.682-7.009-6.249-13.549-10.706c0.455-0.318,1.117-0.841,1.973-1.562c0.852-0.682,1.283-1.825,1.283-3.388
		c0-1.674-0.584-3.099-1.783-4.169c-1.251-1.117-2.604-1.651-4.279-1.651c-1.711,0-3.159,0.552-4.348,1.651
		c-1.188,1.1-1.777,2.49-1.777,4.169c0,1.562,0.414,2.706,1.26,3.431c0.838,0.724,1.504,1.246,1.994,1.564
		c-6.576,4.428-11.09,7.997-13.55,10.705c-2.464,2.704-4.17,5.445-5.125,8.227c-1.216,3.45-1.126,6.686,0.263,9.708
		c1.391,3.027,3.733,6.264,7.037,9.709c-0.145,3.275-1.189,6.589-3.13,9.947h8.972c-0.053,0.077-0.186,0.291-0.416,0.677
		c-0.984,1.537-2.01,2.407-3.082,2.606c-1.073,0.204-2.347,0.304-3.82,0.304H524.72c-2.23,0-4.284,0.902-6.166,2.693
		c-1.886,1.796-2.824,4.391-2.824,7.778h21.497c3.532,0,6.763-1.229,9.687-3.671c2.926-2.448,4.389-5.323,4.389-8.627v0.005h0.076
		c0,3.343,1.367,6.196,4.281,8.634c2.912,2.445,6.144,3.669,9.708,3.669h21.573C586.94,89.14,585.985,86.468,584.09,84.682z
		 M559.842,78.313c-0.005-0.025-0.001-0.03,0.016,0H559.842z M548.536,24.993c0-1.587,0.855-2.301,2.836-2.391
		c1.884,0,2.814,0.799,2.784,2.391c0.052,1.91-0.873,2.865-2.784,2.865c-1.958-0.015-2.938-0.905-2.852-2.865H548.536z
		 M544.674,86.423c-2.681,1.878-4.97,2.82-6.882,2.82h-18.414c0-0.373,0.492-1.139,1.478-2.298c0.983-1.204,2.229-1.786,3.735-1.786
		h10.425c2.372,0,4.485-0.281,6.341-0.846c1.848-0.562,3.432-2.368,4.732-5.408c-0.114,0.259-0.072,0.076,0.126-0.517h2.522
		C548.704,81.86,547.352,84.54,544.674,86.423z M551.302,75.199v-0.044h-12.293c0.779-2.434,1.197-4.662,1.259-6.687
		c0.202-2.168-1.347-3.037-1.347-3.037h-0.017c-5.526-5.299-7.542-10.288-6.222-15.032c1.709-5.586,7.883-11.83,18.546-18.72
		c10.626,6.89,16.803,13.139,18.544,18.72c1.297,4.598-0.53,9.374-5.471,14.341c-0.051,0.068-0.112,0.135-0.192,0.199
		c-0.028,0.022-0.051,0.046-0.078,0.068c-0.144,0.142-0.279,0.282-0.428,0.424c-0.005-0.002-0.011-0.003-0.016-0.005
		c-0.992,1.06-1.229,2.289-1.261,3.083c0.001,0,0.002,0.001,0.003,0.001c0.03,2.029,0.447,4.259,1.259,6.688H551.302z
		 M564.986,89.174c-1.96,0.032-4.259-0.855-6.954-2.82c-2.678-1.794-4.1-4.649-4.1-8.037h2.622c0.13,0.606,0.243,0.741,0.129,0.56
		c1.304,3.042,2.875,4.846,4.716,5.412c1.834,0.565,3.957,0.846,6.357,0.846h10.428c1.473,0,2.711,0.582,3.714,1.742
		c1,1.156,1.503,1.922,1.503,2.298H564.986z"/>
	<path d="M551.376,64.298c-2.988,0.014-5.745,0.459-8.141,1.432l0.56,1.378l0.005,1.512h0.293l0.271-0.11
		c2.027-0.824,4.355-1.239,7.012-1.211c2.663-0.042,5.005,0.383,6.913,1.2l1.182-2.758C557.18,64.76,554.445,64.264,551.376,64.298z
		"/>
	<polygon fill="#00AEEF" points="529.746,48.339 530.788,58.659 545.044,58.659 547.825,46.49 530.441,46.49 	"/>
	<polygon fill="#EC008C" points="574.076,48.339 573.034,58.659 558.778,58.659 555.997,46.49 573.381,46.49 	"/>
	<path fill="#010101" d="M528.297,46.681c-0.062-0.427,0.062-0.823,0.366-1.189l7.505-1.007h30.845l7.598,1.007
		c0.365,0.366,0.519,0.763,0.458,1.189l-1.282,11.991c-0.244,0.915-0.763,1.373-1.556,1.373h-14.645
		c-0.793-0.061-1.282-0.458-1.465-1.19l-2.288-10.434c-1.221-0.794-2.653-0.824-4.301-0.092l-2.38,10.525
		c-0.184,0.793-0.672,1.19-1.465,1.19h-11.601h-3.045c-0.854-0.061-1.342-0.519-1.464-1.373L528.297,46.681z M531.409,48.055
		l0.915,8.878h12.174l2.013-8.878H531.409z M556.854,48.055l1.922,8.878h12.173l0.916-8.878H556.854z"/>
</g>
<g>
	<g>
		<circle fill="#FFFFFF" cx="308.722" cy="34.219" r="3.387"/>
		<circle fill="#FFFFFF" cx="329.849" cy="16.479" r="3.387"/>
		<circle fill="#FFFFFF" cx="355.168" cy="16.479" r="3.387"/>
		<circle fill="#FFFFFF" cx="376.294" cy="34.219" r="3.387"/>
	</g>
	<polyline fill="#FFFFFF" points="320.114,77.979 312.414,83.86 310.994,93.829 342.609,93.829 374.224,93.829 372.808,83.86 
		364.904,77.979 	"/>
	<path fill="#FFFFFF" d="M376.187,28.41c-1.621,0-3.014,0.578-4.166,1.732c-1.152,1.152-1.729,2.544-1.729,4.248
		c0,0.551,0,1.107,0.183,1.711c0.091,0.368,0.368,0.923,0.739,1.484l-8.824,6.253l-4.506-21.872
		c1.895-0.926,2.975-2.475,3.245-4.634c0.116-1.32-0.325-2.681-1.327-4.096c-1.011-1.41-2.32-2.204-3.941-2.387
		c-1.621-0.149-3.059,0.286-4.316,1.307c-1.264,1.021-1.982,2.341-2.16,3.959c-0.245,2.031,0.365,3.696,2.031,5.132l-8.906,18.475
		l-8.912-18.542c1.588-1.379,2.274-3.088,2.071-5.132c-0.179-1.618-0.902-2.938-2.161-3.959c-1.262-1.021-2.697-1.456-4.321-1.309
		c-1.62,0.183-2.942,0.979-3.962,2.387c-1.021,1.414-1.459,2.778-1.307,4.098c0.241,2.217,1.294,3.693,3.329,4.635l-4.501,21.799
		l-8.819-6.255c0.33-0.569,0.554-1.064,0.673-1.482c0.18-0.541,0.27-1.113,0.27-1.711c0-1.621-0.582-3.011-1.734-4.163
		c-1.159-1.156-2.545-1.734-4.164-1.734c-1.621,0-3.01,0.578-4.166,1.734c-1.155,1.158-1.76,2.534-1.853,4.209
		c-0.093,1.676,0.579,2.959,1.663,4.248c1.155,1.108,2.584,1.662,4.25,1.732c0.207,0,0.496-0.031,0.854-0.091
		c4.382,6.652,7.391,13.487,9.054,20.14c1.694,6.836,0.924,13.614-2.587,20.545h26.24h26.232
		c-3.423-6.931-4.289-13.779-2.605-20.545c1.678-6.76,4.725-13.503,9.135-20.229c0.357,0,0.554,0,0.925,0.09
		c1.616,0,3.005-0.575,4.16-1.731c1.154-1.152,1.734-2.542,1.734-4.158c0-1.623-0.58-3.01-1.734-4.165
		c-1.083-1.2-2.495-1.758-4.16-1.724h0.075V28.41z"/>
	<path d="M380.261,30.094c-1.242-1.178-2.629-1.729-4.248-1.729c-1.623,0-3.008,0.572-4.164,1.729
		c-1.152,1.16-1.73,2.544-1.73,4.162c0,0.598,0.091,1.17,0.271,1.712c0.09,0.423,0.312,0.912,0.676,1.484l-8.823,6.253
		l-4.503-21.798c1.893-0.925,2.975-2.477,3.242-4.637c0.186-1.324-0.288-2.616-1.293-4.093c-0.924-1.464-2.258-2.201-3.877-2.387
		c-1.623-0.149-3.062,0.289-4.324,1.305c-1.262,1.023-1.98,2.343-2.16,3.964c-0.242,2.044,0.448,3.753,2.066,5.129l-8.906,18.542
		l-8.912-18.475c1.586-1.382,2.274-3.094,2.069-5.132c-0.186-1.56-0.959-2.854-2.218-3.962c-1.108-0.938-2.628-1.456-4.246-1.307
		c-1.62,0.181-2.942,0.975-3.965,2.385c-1.02,1.414-1.455,2.775-1.304,4.095c0.238,2.163,1.319,3.709,3.241,4.637l-4.503,21.872
		l-8.817-6.252c0.33-0.57,0.557-1.067,0.676-1.488c0.18-0.535,0.27-1.105,0.27-1.711c0-1.66-0.512-3.137-1.663-4.245
		c-1.243-1.183-2.629-1.734-4.249-1.734c-1.621,0-3.009,0.577-4.165,1.734c-1.155,1.152-1.73,2.542-1.73,4.16
		c0,1.621,0.577,3.011,1.73,4.165c1.153,1.152,2.544,1.729,4.165,1.729c0.369,0,0.572,0,0.932-0.085
		c4.381,6.717,7.417,13.462,9.113,20.223c1.693,6.77,0.837,13.614-2.583,20.54l-3.985,2.958l-1.432,10.033h31.649h31.64
		l-1.424-10.033l-4.209-3.123c-3.346-6.836-4.205-13.699-2.533-20.427c1.683-6.673,4.727-13.415,9.142-20.14
		c0.355,0.059,0.642,0.087,0.853,0.087c1.619,0,3.006-0.574,4.16-1.731c1.155-1.237,1.734-2.67,1.734-4.248
		C381.923,32.679,381.411,31.201,380.261,30.094z M308.882,37.081c-1.848,0-2.771-0.928-2.771-2.773
		c0-1.854,0.925-2.785,2.774-2.791c1.836,0.012,2.852,0.937,2.831,2.771C311.717,36.148,310.771,37.081,308.882,37.081z
		 M355.247,13.784c1.846,0.002,2.799,0.925,2.778,2.771c0,1.86-0.931,2.788-2.791,2.788c-1.843-0.018-2.769-0.94-2.769-2.788
		C352.466,14.717,353.394,13.786,355.247,13.784z M327.085,16.572c0-1.858,0.93-2.789,2.79-2.789h0.053
		c1.85,0,2.737,0.923,2.721,2.789c0,1.863-0.935,2.791-2.789,2.791C328.009,19.343,327.085,18.42,327.085,16.572z M370.056,90.219
		h-27.495h-27.496l0.739-4.359l6.736-4.976h20.02V80.83h19.948l6.804,5.032L370.056,90.219z M365.239,52.051
		c-1.304,3.227-2.216,6.412-2.719,9.562l-0.379,3.34c-0.299,4.5,0.346,8.696,1.941,12.602h-21.516h-21.512
		c1.557-3.902,2.208-8.099,1.937-12.602l-0.513-3.294c-0.541-3.099-1.479-6.237-2.771-9.565c-1.293-3.324-2.789-6.466-4.618-9.608
		l9.899,6.978l5.533-27.048l12.016,24.976l12.016-24.976l5.536,27.048l9.897-6.979C368.129,45.633,366.55,48.823,365.239,52.051z
		 M376.168,37.081c-1.849-0.021-2.773-0.946-2.773-2.794c0-1.84,0.943-2.771,2.835-2.771h0.075c1.849,0.006,2.717,0.932,2.652,2.771
		C378.957,36.15,378.024,37.081,376.168,37.081z"/>
	<polygon fill="#00AEEF" points="317.804,52.906 318.979,64.557 335.073,64.557 338.214,50.818 318.589,50.818 	"/>
	<polygon fill="#EC008C" points="367.849,52.906 366.673,64.557 350.579,64.557 347.438,50.818 367.063,50.818 	"/>
	<path fill="#010101" d="M377.593,49.061h-12.214v0.224l-5.505-0.729h-34.82l-5.301,0.711v-0.205h-12.214v3.875h8.831l1.244,11.636
		c0.138,0.964,0.688,1.481,1.652,1.55h3.438H335.8c0.896,0,1.447-0.449,1.654-1.344l2.687-11.883
		c1.86-0.826,3.478-0.792,4.854,0.104l2.584,11.779c0.206,0.826,0.758,1.275,1.653,1.344h16.532c0.896,0,1.48-0.518,1.757-1.55
		l1.244-11.636h8.827V49.061z M334.458,62.607h-13.744l-0.996-9.672h0.035v-0.351h16.977L334.458,62.607z M364.317,62.607h-13.742
		l-2.17-10.022h16.946L364.317,62.607z"/>
	<polygon points="336.31,70.435 342.567,66.705 348.824,70.574 342.567,74.357 	"/>
</g>
<g>
	<path fill="#FFFFFF" d="M178.507,40.851c0-4.916-1.944-9.157-5.84-12.732c-3.898-3.569-8.009-5.354-12.335-5.354
		c-2.413,0-4.871,0.728-7.374,2.179c-2.095,1.218-3.956,2.718-5.618,4.474l-0.024-0.012c0.291-0.309,0.578-0.613,0.82-0.844
		c-2.805-4.168-5.575-6.311-8.316-6.462c-0.11-0.008-0.219-0.03-0.33-0.03c-2.868,0.009-5.738,2.172-8.606,6.475
		c0.221,0.189,0.57,0.569,0.761,0.817l-0.017,0.007c-1.675-1.741-3.534-3.23-5.604-4.441c-2.489-1.451-4.938-2.181-7.351-2.181
		c-4.357,0-8.484,1.787-12.382,5.356c-3.896,3.572-5.829,7.814-5.797,12.729c0.03,7.807,5.14,16.182,15.04,24.812l-2.827,16.931
		h26.71h26.715l-2.829-16.931c10.103-8.604,15.175-16.981,15.175-24.794H178.507z"/>
	<polyline fill="#FFFFFF" points="116.686,79.354 108.874,84.569 107.433,93.408 139.507,93.408 171.578,93.408 170.142,84.569 
		162.124,79.354 	"/>
	<path fill="#020202" d="M145.812,31.113c-0.013-0.017-0.024-0.031-0.037-0.048c-0.015,0.017-0.027,0.03-0.043,0.048H145.812z"/>
	<polygon fill="#00AEEF" points="114.85,50.316 116.026,61.967 132.12,61.967 135.259,48.229 115.634,48.229 	"/>
	<polygon fill="#EC008C" points="164.895,50.316 163.718,61.967 147.624,61.967 144.485,48.229 164.11,48.229 	"/>
	<path fill="#010101" d="M184.13,51.684l-18.203-2.424l0.088-0.815c0.068-0.481-0.104-0.93-0.518-1.343l-8.576-1.137h-34.822
		l-8.472,1.137c-0.345,0.413-0.483,0.861-0.413,1.343l0.074,0.692l-18.21,2.445l0.517,3.84l18.104-2.431l0.96,8.99
		c0.139,0.964,0.689,1.481,1.653,1.55h3.438h13.097c0.895,0,1.445-0.449,1.652-1.344l2.688-11.883
		c1.859-0.826,3.477-0.792,4.855,0.104l2.583,11.779c0.206,0.826,0.759,1.275,1.653,1.344h16.533c0.895,0,1.48-0.518,1.756-1.55
		l0.947-8.866l18.104,2.409L184.13,51.684z M131.503,60.018H117.76l-1.032-10.022h17.048L131.503,60.018z M161.363,60.018h-13.742
		l-2.169-10.022h16.945L161.363,60.018z"/>
	<rect x="136.638" y="70.363" fill="#010101" width="7.652" height="2.304"/>
	<path fill="#020202" d="M166.354,82.112l-2.745-16.447c10.014-8.658,15.051-16.923,15.115-24.812c0-4.951-2.007-9.138-5.902-12.757
		c-3.996-3.641-8.05-5.353-12.374-5.353c-2.413,0-4.871,0.727-7.378,2.179c-2.5,1.453-4.699,3.295-6.585,5.518
		c-0.173,0.206-0.324,0.426-0.49,0.636c-0.097,0.057-0.19,0.123-0.278,0.201l-6.131,5.463l-5.484-4.582
		c-0.283-0.396-0.566-0.793-0.868-1.177c2.734-3.619,4.824-5.479,6.271-5.479c1.415,0,3.507,1.859,6.271,5.564
		c0.934-1.08,1.745-1.832,2.299-2.612c-2.122-3.253-4.25-5.24-6.37-6.05v-6.057h4.96V11.94h-4.96V7.534h-4.358v4.406h-0.02h-4.963
		v4.406h4.963v6.05c-2.14,0.815-4.281,2.829-6.42,6.043c-1.467-1.364-3.076-2.525-4.799-3.582c-2.477-1.331-5.012-2.093-7.426-2.093
		c-4.357,0-8.485,1.784-12.383,5.354c-3.895,3.575-5.829,7.816-5.796,12.732c0.028,7.882,5.069,16.156,15.118,24.813l-2.709,16.22
		l-4.109,2.665l-1.453,8.896h32.108h32.099l-1.445-8.896L166.354,82.112z M107.933,52.119c-2.666-3.902-3.998-7.52-3.998-10.947
		c0-4.244,1.624-7.786,4.869-10.661c3.246-2.876,6.46-4.313,9.647-4.313c2.53,0,5.138,1.005,7.813,3.012
		c1.881,1.42,3.437,3.018,4.684,4.785c0.088,0.126,0.187,0.246,0.31,0.349l8.401,7.02l8.121-7.237h0.072
		c0.045-0.066,0.1-0.129,0.146-0.195l0.045-0.04c0.191-0.171,0.334-0.376,0.432-0.596c1.142-1.49,2.51-2.859,4.141-4.087
		c2.674-2.008,5.291-3.015,7.861-3.015c3.156,0,6.361,1.44,9.622,4.314c3.261,2.875,4.894,6.418,4.894,10.619
		c0,3.37-1.346,7.021-4.034,10.946c-2.688,3.929-5.815,7.375-9.368,10.343l-1.727,2.921l2.315,13.823h-22.677h-22.676l2.318-13.823
		l-1.809-2.921l0.014-0.013C113.74,59.505,110.612,56.084,107.933,52.119z M139.457,90.207h-27.895l0.75-3.865l5.808-3.75h21.383
		v0.001h21.29l5.803,3.751l0.755,3.863H139.457z"/>
</g>
<g>
	<polygon fill="#FFFFFF" points="775.019,74.782 772.584,42.358 779.882,37.088 780.69,20.065 766.505,20.065 766.505,27.363 
		759.819,27.363 759.819,20.065 752.724,20.065 745.629,20.065 745.629,27.363 738.946,27.363 738.946,20.065 724.554,20.065 
		725.365,37.088 732.863,42.358 730.228,74.782 722.528,80.663 721.108,93.632 752.724,93.632 784.337,93.632 782.921,80.663 	"/>
	<polygon fill="#EC008C" points="767.967,53.138 766.925,63.458 752.669,63.458 749.888,51.289 767.271,51.289 	"/>
	<g>
		<rect x="740.338" y="73.152" fill="#010101" width="8.631" height="2.599"/>
		<path fill="#010101" d="M782.89,80.641l-7.854-5.828l-2.469-32.533l7.354-5.281l0.84-16.837h-14.264v7.258h-6.77v-7.258h-7.053
			h-7.062v7.261h-6.766v-7.258h-14.267l0.838,16.834l7.356,5.281l-2.47,32.536l-7.848,5.825l-1.433,13.033h31.649h31.641
			L782.89,80.641z M752.675,90.021h-27.496l0.739-7.359l7.95-5.873l2.664-36.285l-7.506-5.379l-0.642-11.356h6.813v7.309h14.066
			v-7.309h3.41h3.406v7.304h14.066v-7.307h6.816l-0.645,11.357l-7.481,5.362l-0.025-0.106h-8.829l9.226,5.514l2.272,30.896
			l7.945,5.876l0.743,7.356H752.675z"/>
	</g>
	<polygon fill="#00AEEF" points="723.637,53.138 724.679,63.458 738.935,63.458 741.716,51.289 724.332,51.289 	"/>
	<path fill="#010101" d="M776.598,50.534h-7.893c-0.06-0.083-0.125-0.164-0.204-0.244l-7.598-1.007h-30.845l-7.505,1.007
		c-0.305,0.366-0.428,0.763-0.366,1.189l1.281,11.991c0.122,0.854,0.61,1.312,1.464,1.373h3.045h11.601
		c0.793,0,1.281-0.397,1.465-1.19l2.38-10.525c1.647-0.732,3.08-0.702,4.301,0.092l2.288,10.434c0.183,0.732,0.672,1.13,1.465,1.19
		h14.645c0.793,0,1.312-0.458,1.556-1.373l1.017-9.504h7.904V50.534z M738.389,61.731h-12.174l-0.915-8.878h15.102L738.389,61.731z
		 M764.839,61.731h-12.173l-1.922-8.878h15.011L764.839,61.731z"/>
</g>
<g>
	<path fill="#FFFFFF" d="M977.663,92.774c-0.5-11.646-9-12.604-9-12.604s-8-2-13.5-12.75c-4.4-8.601-3.84-13.634-3.439-18.904
		c3.941-2.801,6.52-7.393,6.52-12.596c0-8.536-6.92-15.455-15.455-15.455c-8.537,0-15.455,6.919-15.455,15.455
		c0,5.204,2.578,9.796,6.521,12.597c0.398,5.271,0.959,10.303-3.441,18.903c-5.5,10.75-13.5,12.75-13.5,12.75s-8.5,0.957-9,12.604
		c9.102,0,25.963-0.027,34.875-0.042C951.7,92.747,968.563,92.774,977.663,92.774z"/>
	<circle fill="#FFFFFF" cx="942.788" cy="14.3" r="3.457"/>
	<path d="M942.788,19.256c-2.733,0-4.957-2.224-4.957-4.956s2.224-4.956,4.957-4.956s4.957,2.224,4.957,4.956
		S945.521,19.256,942.788,19.256z M942.788,12.344c-1.079,0-1.957,0.878-1.957,1.956s0.878,1.956,1.957,1.956
		s1.957-0.878,1.957-1.956S943.867,12.344,942.788,12.344z"/>
	<path d="M979.162,92.71c-0.511-11.895-8.935-13.792-10.179-14.006c-0.616-0.176-7.562-2.343-12.485-11.967
		c-4.019-7.854-3.708-12.523-3.331-17.425c4.131-3.205,6.576-8.159,6.576-13.392c0-9.349-7.606-16.955-16.955-16.955
		s-16.955,7.606-16.955,16.955c0,5.233,2.446,10.188,6.578,13.393c0.375,4.901,0.686,9.569-3.333,17.424
		c-4.891,9.559-11.896,11.793-12.489,11.967c-1.257,0.218-9.664,2.123-10.175,14.006l-0.054,1.257l-0.072,0.097h0.068l-0.009,0.211
		h1.565c9.103,0,25.965-0.027,34.872-0.042c8.913,0.015,25.777,0.042,34.878,0.042h1.565L979.162,92.71z M928.833,35.921
		c0-7.695,6.26-13.955,13.955-13.955s13.955,6.26,13.955,13.955c0,4.501-2.201,8.753-5.889,11.373l-0.573,0.407l-0.093,1.221
		c-0.065,0.854-0.13,1.716-0.175,2.595h-14.45c-0.044-0.876-0.107-1.734-0.173-2.587l-0.094-1.228l-0.574-0.407
		C931.035,44.675,928.833,40.423,928.833,35.921z M931.748,68.104c3.559-6.956,4.006-11.757,3.841-16.04l18.631,16.749
		c2.254,4.17,4.852,7.031,7.208,8.966h-37.279C926.64,75.733,929.409,72.676,931.748,68.104z M917.081,81.661l0.196-0.035
		c0.127-0.031,1.301-0.347,3.006-1.247h45.01c1.705,0.9,2.879,1.216,3.006,1.247l0.187,0.034c0.27,0.034,6.068,0.892,7.411,8.751
		h-33.522H909.68C911.022,82.552,916.821,81.695,917.081,81.661z"/>
	<circle fill="#FFFFFF" cx="942.788" cy="34.921" r="17.168"/>
	<path d="M942.788,53.588c-10.294,0-18.668-8.374-18.668-18.667s8.374-18.667,18.668-18.667s18.668,8.374,18.668,18.667
		S953.082,53.588,942.788,53.588z M942.788,19.254c-8.64,0-15.668,7.028-15.668,15.667s7.028,15.667,15.668,15.667
		s15.668-7.028,15.668-15.667S951.428,19.254,942.788,19.254z"/>
	<polygon fill="#00AEEF" points="920.853,28.344 921.896,38.664 936.151,38.664 938.933,26.495 921.548,26.495 	"/>
	<polygon fill="#EC008C" points="965.183,28.344 964.142,38.664 949.886,38.664 947.104,26.495 964.487,26.495 	"/>
	<path fill="#010101" d="M919.403,26.686c-0.061-0.427,0.062-0.823,0.367-1.189l7.504-1.007h30.846l7.598,1.007
		c0.365,0.366,0.518,0.763,0.457,1.189l-1.281,11.991c-0.244,0.915-0.764,1.373-1.557,1.373h-14.645
		c-0.793-0.061-1.281-0.458-1.465-1.19l-2.287-10.434c-1.221-0.794-2.654-0.824-4.301-0.092l-2.381,10.525
		c-0.184,0.793-0.672,1.19-1.465,1.19h-14.645c-0.854-0.061-1.342-0.519-1.465-1.373L919.403,26.686z M922.517,28.06l0.914,8.878
		h12.174l2.014-8.878H922.517z M947.96,28.06l1.922,8.878h12.174l0.916-8.878H947.96z"/>
</g>
<g>
	<polygon fill="#00AEEF" points="1106.631,34.823 1117.812,26.714 1118.739,22.654 1101.355,22.654 1100.66,24.503 1101.702,34.823 
			"/>
	<path fill="#FFFFFF" d="M1171.587,69.629c1.549-13.029,0.695-24.019-2.575-32.956c-3.27-8.938-11.673-15.038-24.021-21.298
		l-2.731-8.502l-7.437,5.502c-4.01,2.729-8.271,5.78-12.227,8.273c-3.951,2.492-6.419,2.067-6.634,3.489l1.26,1.658h-0.02
		c-0.396-0.469-0.812-1.038-1.24-1.688l-20.707,15.768l-0.092,12.805l8.226-3.68l2.312,3.625L1100.66,58l9.397,5.693
		c0-0.035,1.004-1.89,3.033-5.561c2.016-3.716,8.289-4.816,16.811-3.281c-0.65,1.091-1.643,2.646-2.977,4.71
		c-1.34,2.001-4.408,4.299-7.234,4.875c-4.866,4.153-8.173,7.478-9.903,11.972c-1.733,4.497-2.44,9.979-2.112,16.469h67.265
		c-1.269-2.99,0.809-3.674,0-7.627c-0.813-3.922-5.474-6.716-4.81-11.375L1171.587,69.629z"/>
	<polygon points="1109.345,39.186 1111.385,40.995 1108.846,44.03 1105.7,42.589 1107.522,39.508 	"/>
	<path fill="#010101" d="M1177.109,93.876l-0.003-0.595c-0.067-7.111-1.544-12.079-4.388-14.765
		c-0.309-0.291-0.614-0.527-0.916-0.738c-0.081-2.354,0.05-4.812,0.412-7.385c1.581-13.133,0.609-24.221-2.717-33.277
		c-1.776-5.029-5.074-9.654-9.838-13.864l4.283-0.883l-0.693-3.361l-7.044,1.452c-3.039-2.253-6.534-4.374-10.478-6.362
		l-1.573-10.071l-2.723-0.894l-7.34,7.492c-0.054,0.036-0.107,0.07-0.161,0.107l-2.686-4.207h-4.661l-1.391,9.932
		c-1.087,0.695-2.178,1.403-3.261,2.081c-3.402,2.134-5.431,3.868-6.114,5.221l-3.086,2.601l-19.002,12.626l0.588,14.512
		l8.785-2.457l0.826,2.315l-6.341,4.521l11.966,6.669c0-0.027,1.025-1.907,3.088-5.62c2.057-3.746,7.424-4.857,16.103-3.307
		c-0.663,1.099-1.678,2.662-3.034,4.683c-1.358,2.021-3.475,3.328-6.341,3.919c-4.962,4.188-8.328,8.555-10.093,13.096
		c-1.764,4.547-2.479,10.084-2.15,16.63h68.479c-0.01-0.022-0.02-0.047-0.029-0.069H1177.109z M1173.724,89.656
		c-1.428,0-3.775,0-6.213,0c0.005,0.016,0.008,0.029,0.012,0.045h-56.187c-0.223-4.635,0.661-8.741,2.647-12.328
		c1.985-3.585,4.664-6.834,8.048-9.733c4.302-1.216,7.093-3.091,8.386-5.652c1.285-2.485,2.953-4.927,5.018-7.238
		c-0.005-0.005-0.01-0.009-0.014-0.013c0.565-0.328,1.077-0.488,1.524-0.444c0.568,0,1.135,0,1.844-0.082
		c2.868-0.404,5.227-1.958,7.084-4.684c1.854-2.719,2.819-5.75,2.895-9.098l-1.048-3.691c-2.021,8.785-5.476,13.51-10.364,14.262
		c-0.771,0.104-1.598,0.212-2.481,0.303c-0.723,0.058-1.61,0.426-2.42,1.13c-2.292-1.36-4.861-1.998-7.658-1.769
		c-4.081,0.335-7.108,0.825-9.098,1.488c-2.577,1.032-4.561,2.37-5.955,4.021l-2.155,2.486l-2.589-1.547l4.301-3.582l-4.494-7.88
		l-6.646,2.199l-0.222-6.788l9.755-6.426l1.946,0.182l5.943-5.38l2.523-1.662h0.011c0.682-1.785,3.202-4.048,7.34-6.78
		c4.004-2.536,7.828-4.943,11.465-7.222l4.699-3.809l1.258,7.332c2.967,1.327,5.555,2.765,7.805,4.301l-6.505,1.341l0.692,3.361
		l9.362-1.93c1.171,1.059,2.214,2.154,3.093,3.298c3.051,3.966,5.52,8.268,7.395,12.9c1.459,5.329,2.205,9.968,2.225,13.923
		c0.025,3.949-0.148,7.717-0.494,11.299c-0.329,3.339-0.537,6.75-0.655,10.211h-0.033v0.235l0.022-0.01
		c-0.005,0.167-0.018,0.331-0.022,0.498v-0.488l-7.443,3.144h7.443v-1.052c0.008,0.331,0.017,0.662,0.033,1
		c1.125,0.082,2.239,0.223,3.21,0.453c0.277,0.066,0.534,0.168,0.781,0.284c1.379,0.827,3.392,3.069,4.079,9.115
		c-0.059-0.195-0.12-0.387-0.178-0.586C1173.711,88.98,1173.724,89.342,1173.724,89.656z"/>
	<polygon fill="#EC008C" points="1144.99,24.503 1143.948,34.823 1129.692,34.823 1126.911,22.654 1144.295,22.654 	"/>
	<path fill="#010101" d="M1145.524,21.655l-7.598-1.007h-30.845l-7.505,1.007c-0.305,0.366-0.428,0.763-0.366,1.189l1.281,11.991
		c0.122,0.854,0.61,1.312,1.464,1.373h2.765l4.291-3.112h-5.773l-0.915-8.878h15.102l-0.753,3.322l3.69-2.677l0.084-0.371
		c1.647-0.732,3.08-0.702,4.301,0.092l2.288,10.434c0.183,0.732,0.672,1.13,1.465,1.19h14.645c0.793,0,1.312-0.458,1.556-1.373
		l1.282-11.991C1146.043,22.418,1145.89,22.021,1145.524,21.655z M1141.862,33.097h-12.173l-1.922-8.878h15.011L1141.862,33.097z"/>
</g>
<rect x="1.781" y="90.877" width="1199.089" height="4"/>
</svg>
