<?xml version="1.0" encoding="utf-8"?>
<!-- Generator: Adobe Illustrator 16.0.4, SVG Export Plug-In . SVG Version: 6.00 Build 0)  -->
<!DOCTYPE svg PUBLIC "-//W3C//DTD SVG 1.1//EN" "http://www.w3.org/Graphics/SVG/1.1/DTD/svg11.dtd">
<svg version="1.1" id="Layer_1" xmlns="http://www.w3.org/2000/svg" xmlns:xlink="http://www.w3.org/1999/xlink" x="0px" y="0px"
	 width="500px" height="150px" viewBox="0 0 500 150" enable-background="new 0 0 500 150" xml:space="preserve">
<rect x="-0.282" y="92.877" fill="#FFFFFF" width="500.564" height="107.123"/>
<rect x="-0.282" y="90.877" width="500.562" height="4"/>
<g>
	<path fill="#FFFFFF" d="M417.673,81.977h-10.61c-1.474,0-2.73-0.101-3.777-0.305c-1.049-0.199-2.035-1.068-2.969-2.605
		c-0.238-0.403-0.371-0.627-0.412-0.691h8.771c-1.924-3.358-2.944-6.672-3.057-9.945c3.227-3.447,5.518-6.682,6.875-9.711
		c1.354-3.021,1.44-6.258,0.256-9.709c-0.969-2.777-2.646-5.521-5.049-8.226c-2.408-2.708-6.808-6.278-13.197-10.706
		c0.455-0.318,1.094-0.84,1.926-1.564c0.834-0.721,1.252-1.867,1.252-3.43c0-1.68-0.588-3.069-1.76-4.174
		c-1.176-1.098-2.58-1.649-4.219-1.649c-1.674,0-3.084,0.552-4.246,1.649c-1.162,1.104-1.738,2.494-1.738,4.102
		c0,1.604,0.351,2.674,1.22,3.43c0.821,0.715,1.391,1.249,1.915,1.564c-6.424,4.431-10.836,8.003-13.237,10.699
		c-2.406,2.706-4.074,5.452-5.008,8.229c-1.191,3.449-1.104,6.597,0.176,9.708c1.356,3.027,3.653,6.241,6.795,9.624
		c-0.146,3.278-1.164,6.592-3.06,9.944h8.773c-0.045,0.07-0.18,0.291-0.414,0.696c-0.967,1.537-1.969,2.412-3.014,2.677
		c-1.051,0.202-2.291,0.304-3.732,0.304h-10.608c-2.181,0-4.188,0.9-6.023,2.696c-1.842,1.791-2.76,4.388-2.76,7.776h21.008
		c3.445,0,6.598-1.228,9.459-3.676c2.854-2.441,4.287-5.316,4.287-8.623c0,3.389,1.396,6.244,4.186,8.557
		c2.845,2.498,5.92,3.746,9.404,3.674h21.004c0-3.385-0.928-5.98-2.777-7.771c-1.485-1.562-3.475-2.633-5.563-2.543H417.673
		L417.673,81.977z"/>
	<path d="M424.318,84.682c-1.787-1.801-3.865-2.69-6.064-2.69h-10.861c-1.602,0.05-2.85-0.13-3.92-0.306
		c-1.067-0.181-2.08-1.067-3.028-2.675c-0.259-0.374-0.357-0.622-0.373-0.694h8.899c-2.141-3.345-3.1-6.732-3.209-9.941
		c3.299-3.445,5.646-6.682,7.033-9.709c1.33-3.026,1.479-6.32,0.26-9.708c-1.069-2.677-2.709-5.526-5.17-8.203
		c-2.494-2.682-7.008-6.249-13.549-10.706c0.455-0.318,1.117-0.841,1.973-1.562c0.853-0.682,1.283-1.825,1.283-3.388
		c0-1.674-0.584-3.099-1.783-4.169c-1.25-1.117-2.604-1.651-4.278-1.651c-1.711,0-3.158,0.552-4.349,1.651
		c-1.188,1.1-1.776,2.49-1.776,4.169c0,1.562,0.414,2.706,1.26,3.431c0.838,0.724,1.504,1.246,1.994,1.564
		c-6.576,4.428-11.09,7.997-13.549,10.705c-2.466,2.704-4.171,5.445-5.125,8.227c-1.218,3.45-1.127,6.686,0.262,9.708
		c1.391,3.027,3.733,6.264,7.037,9.709c-0.146,3.275-1.189,6.589-3.129,9.948h8.971c-0.053,0.076-0.187,0.291-0.416,0.676
		c-0.984,1.537-2.01,2.408-3.082,2.606c-1.072,0.204-2.346,0.304-3.82,0.304h-10.858c-2.23,0-4.283,0.902-6.166,2.693
		c-1.885,1.796-2.824,4.391-2.824,7.778h21.498c3.531,0,6.762-1.229,9.686-3.671c2.927-2.448,4.39-5.323,4.39-8.627v0.005h0.076
		c0,3.343,1.366,6.196,4.28,8.634c2.912,2.445,6.146,3.669,9.709,3.669h21.572C427.167,89.141,426.212,86.468,424.318,84.682z
		 M400.07,78.312c-0.006-0.024-0.002-0.029,0.016,0H400.07z M388.763,24.993c0-1.587,0.855-2.301,2.836-2.391
		c1.886,0,2.814,0.799,2.785,2.391c0.051,1.91-0.873,2.865-2.785,2.865c-1.957-0.015-2.938-0.905-2.852-2.865H388.763z
		 M384.902,86.423c-2.683,1.878-4.972,2.82-6.884,2.82h-18.413c0-0.373,0.491-1.14,1.479-2.298c0.982-1.204,2.229-1.786,3.734-1.786
		h10.426c2.371,0,4.484-0.281,6.34-0.847c1.848-0.562,3.432-2.367,4.732-5.407c-0.113,0.259-0.072,0.075,0.127-0.517h2.521
		C388.931,81.859,387.58,84.54,384.902,86.423z M391.529,75.199v-0.044h-12.293c0.778-2.434,1.196-4.662,1.26-6.688
		c0.201-2.168-1.348-3.037-1.348-3.037h-0.017c-5.526-5.299-7.543-10.288-6.223-15.032c1.709-5.586,7.883-11.83,18.547-18.72
		c10.625,6.89,16.803,13.139,18.543,18.72c1.297,4.598-0.529,9.374-5.471,14.341c-0.052,0.068-0.111,0.135-0.191,0.199
		c-0.029,0.022-0.051,0.046-0.078,0.068c-0.145,0.142-0.278,0.282-0.428,0.424c-0.006-0.002-0.012-0.003-0.016-0.005
		c-0.992,1.06-1.23,2.289-1.263,3.083c0.002,0,0.002,0.001,0.004,0.001c0.029,2.029,0.447,4.259,1.259,6.688L391.529,75.199
		L391.529,75.199z M405.214,89.174c-1.961,0.032-4.26-0.855-6.955-2.82c-2.678-1.793-4.1-4.648-4.1-8.037h2.623
		c0.129,0.606,0.242,0.742,0.129,0.561c1.303,3.042,2.875,4.846,4.715,5.412c1.834,0.564,3.957,0.846,6.357,0.846h10.428
		c1.473,0,2.711,0.582,3.715,1.742c1,1.156,1.502,1.922,1.502,2.298L405.214,89.174L405.214,89.174z"/>
	<path d="M391.603,64.298c-2.987,0.014-5.743,0.459-8.141,1.432l0.562,1.378l0.004,1.512h0.293l0.271-0.11
		c2.027-0.824,4.355-1.239,7.012-1.211c2.664-0.042,5.007,0.383,6.914,1.2l1.183-2.758C397.408,64.76,394.673,64.264,391.603,64.298
		z"/>
	<polygon fill="#00AEEF" points="369.974,48.339 371.015,58.659 385.271,58.659 388.052,46.49 370.669,46.49 	"/>
	<polygon fill="#EC008C" points="414.304,48.339 413.261,58.659 399.005,58.659 396.224,46.49 413.609,46.49 	"/>
	<path fill="#010101" d="M368.525,46.681c-0.062-0.427,0.061-0.823,0.364-1.189l7.507-1.007h30.844l7.598,1.007
		c0.365,0.366,0.521,0.763,0.459,1.189l-1.283,11.991c-0.244,0.915-0.762,1.373-1.555,1.373h-14.645
		c-0.793-0.061-1.283-0.458-1.466-1.19l-2.289-10.434c-1.221-0.794-2.651-0.824-4.301-0.092l-2.379,10.525
		c-0.184,0.793-0.672,1.19-1.465,1.19h-11.602h-3.046c-0.854-0.061-1.342-0.519-1.463-1.373L368.525,46.681z M371.636,48.055
		l0.916,8.878h12.174l2.013-8.878H371.636z M397.082,48.055l1.922,8.878h12.172l0.916-8.878H397.082z"/>
</g>
</svg>
