<?xml version="1.0" encoding="utf-8"?>
<!-- Generator: Adobe Illustrator 16.0.4, SVG Export Plug-In . SVG Version: 6.00 Build 0)  -->
<!DOCTYPE svg PUBLIC "-//W3C//DTD SVG 1.1//EN" "http://www.w3.org/Graphics/SVG/1.1/DTD/svg11.dtd">
<svg version="1.1" id="Layer_1" xmlns="http://www.w3.org/2000/svg" xmlns:xlink="http://www.w3.org/1999/xlink" x="0px" y="0px"
	 width="500px" height="150px" viewBox="0 0 500 150" enable-background="new 0 0 500 150" xml:space="preserve">
<rect x="-0.282" y="92.877" fill="#FFFFFF" width="500.564" height="107.123"/>
<rect x="-0.282" y="90.877" width="500.562" height="4"/>
<g>
	<polygon fill="#FFFFFF" points="413.992,74.782 411.558,42.358 418.855,37.088 419.664,20.065 405.478,20.065 405.478,27.363 
		398.792,27.363 398.792,20.065 391.697,20.065 384.603,20.065 384.603,27.363 377.919,27.363 377.919,20.065 363.527,20.065 
		364.339,37.088 371.837,42.358 369.201,74.782 361.501,80.663 360.082,93.632 391.697,93.632 423.31,93.632 421.894,80.663 	"/>
	<polygon fill="#EC008C" points="406.941,53.138 405.898,63.458 391.642,63.458 388.861,51.289 406.246,51.289 	"/>
	<g>
		<rect x="379.312" y="73.152" fill="#010101" width="8.631" height="2.599"/>
		<path fill="#010101" d="M421.863,80.641l-7.854-5.828L411.54,42.28l7.354-5.281l0.841-16.837H405.47v7.258h-6.77v-7.258h-7.053
			h-7.062v7.261h-6.766v-7.258h-14.269l0.838,16.834l7.357,5.281l-2.471,32.536l-7.849,5.825L360,93.674h31.648h31.641
			L421.863,80.641z M391.648,90.021h-27.496l0.739-7.359l7.949-5.873l2.664-36.285L368,35.125l-0.641-11.356h6.812v7.309h14.066
			v-7.309h3.41h3.405v7.304h14.066v-7.307h6.816l-0.646,11.357l-7.479,5.362l-0.025-0.106h-8.83l9.227,5.514l2.271,30.896
			l7.945,5.876l0.743,7.356H391.648z"/>
	</g>
	<polygon fill="#00AEEF" points="362.611,53.138 363.652,63.458 377.908,63.458 380.689,51.289 363.306,51.289 	"/>
	<path fill="#010101" d="M415.572,50.534h-7.894c-0.061-0.083-0.125-0.164-0.205-0.244l-7.598-1.007h-30.844l-7.506,1.007
		c-0.306,0.366-0.429,0.763-0.365,1.189l1.281,11.991c0.121,0.854,0.608,1.312,1.463,1.373h3.045h11.602
		c0.793,0,1.281-0.397,1.465-1.19l2.38-10.525c1.647-0.732,3.079-0.702,4.301,0.092l2.289,10.434c0.182,0.732,0.672,1.13,1.465,1.19
		h14.645c0.793,0,1.312-0.458,1.556-1.373l1.018-9.504h7.904L415.572,50.534L415.572,50.534z M377.363,61.731h-12.174l-0.916-8.878
		h15.102L377.363,61.731z M403.812,61.731H391.64l-1.922-8.878h15.011L403.812,61.731z"/>
</g>
</svg>
