<?xml version="1.0" encoding="utf-8"?>
<!-- Generator: Adobe Illustrator 16.0.4, SVG Export Plug-In . SVG Version: 6.00 Build 0)  -->
<!DOCTYPE svg PUBLIC "-//W3C//DTD SVG 1.1//EN" "http://www.w3.org/Graphics/SVG/1.1/DTD/svg11.dtd">
<svg version="1.1" id="Layer_1" xmlns="http://www.w3.org/2000/svg" xmlns:xlink="http://www.w3.org/1999/xlink" x="0px" y="0px"
	 width="500px" height="150px" viewBox="0 0 500 150" enable-background="new 0 0 500 150" xml:space="preserve">
<rect x="-0.282" y="92.877" fill="#FFFFFF" width="500.564" height="107.123"/>
<rect x="-0.282" y="90.877" width="500.562" height="4"/>
<g>
	<polygon fill="#00AEEF" points="359.521,34.823 370.701,26.714 371.628,22.654 354.246,22.654 353.55,24.503 354.591,34.823 	"/>
	<path fill="#FFFFFF" d="M424.476,69.629c1.55-13.029,0.695-24.019-2.573-32.956c-3.271-8.938-11.675-15.038-24.021-21.298
		l-2.731-8.502l-7.437,5.502c-4.01,2.729-8.271,5.78-12.227,8.273c-3.951,2.492-6.42,2.067-6.636,3.489l1.261,1.658h-0.021
		c-0.396-0.469-0.812-1.038-1.24-1.688l-20.706,15.768l-0.093,12.805l8.228-3.68l2.311,3.625L353.55,58l9.396,5.693
		c0-0.035,1.004-1.89,3.032-5.561c2.017-3.716,8.289-4.816,16.812-3.281c-0.65,1.091-1.644,2.646-2.978,4.71
		c-1.34,2.001-4.407,4.299-7.233,4.875c-4.865,4.153-8.172,7.478-9.902,11.972c-1.733,4.497-2.44,9.979-2.112,16.469h67.266
		c-1.271-2.99,0.809-3.674,0-7.627c-0.814-3.922-5.476-6.716-4.812-11.375L424.476,69.629z"/>
	<polygon points="362.234,39.186 364.275,40.995 361.736,44.03 358.589,42.589 360.412,39.508 	"/>
	<path fill="#010101" d="M430,93.876l-0.004-0.595c-0.066-7.111-1.543-12.079-4.387-14.766c-0.31-0.291-0.615-0.526-0.916-0.738
		c-0.082-2.354,0.049-4.812,0.412-7.384c1.579-13.133,0.608-24.221-2.718-33.277c-1.776-5.029-5.073-9.654-9.838-13.864l4.283-0.883
		l-0.693-3.361l-7.045,1.452c-3.039-2.253-6.533-4.374-10.477-6.362l-1.574-10.071l-2.723-0.894l-7.34,7.492
		c-0.054,0.036-0.107,0.07-0.16,0.107l-2.687-4.207h-4.662l-1.391,9.932c-1.086,0.695-2.178,1.403-3.26,2.081
		c-3.402,2.134-5.433,3.868-6.115,5.221l-3.086,2.601l-19.002,12.626l0.588,14.512l8.785-2.457l0.826,2.315l-6.341,4.521
		l11.966,6.669c0-0.027,1.024-1.907,3.088-5.62c2.057-3.746,7.424-4.857,16.104-3.307c-0.664,1.099-1.678,2.662-3.035,4.683
		c-1.356,2.021-3.475,3.328-6.34,3.919c-4.963,4.188-8.328,8.555-10.094,13.095c-1.764,4.548-2.479,10.084-2.15,16.631h68.479
		c-0.01-0.022-0.021-0.047-0.029-0.069H430V93.876z M426.613,89.656c-1.429,0-3.775,0-6.213,0c0.006,0.016,0.008,0.029,0.012,0.045
		h-56.187c-0.223-4.635,0.66-8.741,2.646-12.328c1.986-3.585,4.664-6.834,8.049-9.733c4.301-1.216,7.092-3.091,8.385-5.652
		c1.285-2.485,2.953-4.927,5.019-7.238c-0.004-0.005-0.01-0.009-0.015-0.013c0.566-0.328,1.078-0.488,1.525-0.444
		c0.568,0,1.135,0,1.844-0.082c2.867-0.404,5.228-1.958,7.084-4.684c1.854-2.719,2.818-5.75,2.896-9.098l-1.049-3.691
		c-2.021,8.785-5.476,13.51-10.363,14.262c-0.771,0.104-1.598,0.212-2.482,0.303c-0.723,0.058-1.608,0.426-2.42,1.13
		c-2.291-1.36-4.86-1.998-7.658-1.769c-4.079,0.335-7.106,0.825-9.098,1.488c-2.576,1.032-4.561,2.37-5.955,4.021l-2.154,2.486
		l-2.59-1.547l4.302-3.582l-4.494-7.88l-6.646,2.199l-0.221-6.788l9.754-6.426l1.947,0.182l5.942-5.38l2.523-1.662h0.01
		c0.683-1.785,3.203-4.048,7.34-6.78c4.004-2.536,7.828-4.943,11.465-7.222l4.699-3.809l1.258,7.332
		c2.968,1.327,5.556,2.765,7.806,4.301l-6.504,1.341l0.69,3.361l9.363-1.93c1.17,1.059,2.213,2.154,3.092,3.298
		c3.051,3.966,5.521,8.268,7.396,12.9c1.459,5.329,2.205,9.968,2.225,13.923c0.025,3.949-0.147,7.717-0.494,11.299
		c-0.328,3.339-0.537,6.75-0.653,10.211h-0.033v0.234l0.021-0.01c-0.004,0.168-0.018,0.332-0.021,0.498v-0.488l-7.443,3.145h7.443
		v-1.052c0.008,0.331,0.016,0.662,0.033,1c1.125,0.082,2.237,0.223,3.209,0.452c0.276,0.066,0.534,0.169,0.78,0.285
		c1.379,0.826,3.394,3.068,4.08,9.114c-0.059-0.194-0.121-0.387-0.178-0.586C426.601,88.98,426.613,89.342,426.613,89.656z"/>
	<polygon fill="#EC008C" points="397.88,24.503 396.837,34.823 382.582,34.823 379.8,22.654 397.185,22.654 	"/>
	<path fill="#010101" d="M398.414,21.655l-7.598-1.007h-30.845l-7.506,1.007c-0.305,0.366-0.428,0.763-0.365,1.188l1.281,11.991
		c0.121,0.854,0.609,1.312,1.463,1.373h2.767l4.291-3.112h-5.773l-0.916-8.878h15.103l-0.753,3.322l3.689-2.677l0.084-0.371
		c1.648-0.732,3.08-0.702,4.301,0.092l2.289,10.434c0.183,0.732,0.672,1.13,1.465,1.19h14.646c0.793,0,1.311-0.458,1.555-1.373
		l1.283-11.991C398.933,22.418,398.779,22.021,398.414,21.655z M394.751,33.097H382.58l-1.922-8.878h15.01L394.751,33.097z"/>
</g>
</svg>
