<?xml version="1.0" encoding="utf-8"?>
<!-- Generator: Adobe Illustrator 16.0.4, SVG Export Plug-In . SVG Version: 6.00 Build 0)  -->
<!DOCTYPE svg PUBLIC "-//W3C//DTD SVG 1.1//EN" "http://www.w3.org/Graphics/SVG/1.1/DTD/svg11.dtd">
<svg version="1.1" id="Layer_1" xmlns="http://www.w3.org/2000/svg" xmlns:xlink="http://www.w3.org/1999/xlink" x="0px" y="0px"
	 width="30px" height="30px" viewBox="0 0 30 30" enable-background="new 0 0 30 30" xml:space="preserve">
<g>
	<path fill="#29ABE2" d="M17.943,5.526c-0.414,0-0.75,0.336-0.75,0.75s0.336,0.75,0.75,0.75c4.317,0,7.83,3.513,7.83,7.83
		c0,4.317-3.513,7.83-7.83,7.83c-0.414,0-0.75,0.336-0.75,0.75s0.336,0.75,0.75,0.75c5.145,0,9.33-4.186,9.33-9.33
		C27.273,9.711,23.088,5.526,17.943,5.526z"/>
	<path fill="#29ABE2" d="M22.983,14.856c0-3.215-2.615-5.83-5.83-5.83c-0.414,0-0.75,0.336-0.75,0.75s0.336,0.75,0.75,0.75
		c2.388,0,4.33,1.942,4.33,4.33c0,2.388-1.942,4.331-4.33,4.331c-0.414,0-0.75,0.336-0.75,0.75s0.336,0.75,0.75,0.75
		C20.368,20.687,22.983,18.071,22.983,14.856z"/>
	<path fill="#29ABE2" d="M18.813,14.856c0-1.308-1.063-2.371-2.371-2.371c-0.414,0-0.75,0.336-0.75,0.75s0.336,0.75,0.75,0.75
		c0.48,0,0.871,0.391,0.871,0.871c0,0.48-0.391,0.871-0.871,0.871c-0.414,0-0.75,0.336-0.75,0.75s0.336,0.75,0.75,0.75
		C17.75,17.227,18.813,16.163,18.813,14.856z"/>
	<path fill="#29ABE2" d="M13.697,6.697l-5.668,4.517H3.513c-0.492,0-0.892,0.399-0.892,0.892v5.668c0,0.491,0.399,0.892,0.892,0.892
		h4.517l5.668,4.516c0.492,0,0.892-0.399,0.892-0.892v-14.7C14.589,7.097,14.189,6.697,13.697,6.697z"/>
</g>
</svg>
