<?xml version="1.0" encoding="utf-8"?>
<!-- Generator: Adobe Illustrator 16.0.4, SVG Export Plug-In . SVG Version: 6.00 Build 0)  -->
<!DOCTYPE svg PUBLIC "-//W3C//DTD SVG 1.1//EN" "http://www.w3.org/Graphics/SVG/1.1/DTD/svg11.dtd">
<svg version="1.1" id="whiteking" xmlns="http://www.w3.org/2000/svg" xmlns:xlink="http://www.w3.org/1999/xlink" x="0px" y="0px"
	 width="38px" height="38px" viewBox="0 0 38 38" enable-background="new 0 0 38 38" xml:space="preserve">
<rect x="0.042" y="-0.111" fill="#E1E1E1" width="38.222" height="38.222"/>
<g>
	<path fill="#676767" d="M26.068,10.228v11.548c0,1.318-0.283,2.472-0.849,3.461c-0.566,0.988-1.384,1.75-2.454,2.282
		c-1.07,0.533-2.35,0.8-3.839,0.8c-2.214,0-3.935-0.586-5.164-1.758c-1.229-1.172-1.843-2.783-1.843-4.834V10.228h2.93V21.52
		c0,1.473,0.342,2.559,1.025,3.259s1.733,1.05,3.149,1.05c2.751,0,4.126-1.444,4.126-4.334V10.228H26.068z"/>
</g>
</svg>
