<?xml version="1.0" encoding="utf-8"?>
<!-- Generator: Adobe Illustrator 16.0.4, SVG Export Plug-In . SVG Version: 6.00 Build 0)  -->
<!DOCTYPE svg PUBLIC "-//W3C//DTD SVG 1.1//EN" "http://www.w3.org/Graphics/SVG/1.1/DTD/svg11.dtd">
<svg version="1.1" id="whiterook" xmlns="http://www.w3.org/2000/svg" xmlns:xlink="http://www.w3.org/1999/xlink" x="0px" y="0px"
	 width="38px" height="38px" viewBox="0 0 38 38" enable-background="new 0 0 38 38" xml:space="preserve">
<filter  id="AI_Shadow_1" filterUnits="objectBoundingBox">
	<feGaussianBlur  in="SourceAlpha" stdDeviation="1" result="blur"></feGaussianBlur>
	<feOffset  dx="2" dy="2" in="blur" result="offsetBlurredAlpha"></feOffset>
	<feMerge>
		<feMergeNode  in="offsetBlurredAlpha"></feMergeNode>
		<feMergeNode  in="SourceGraphic"></feMergeNode>
	</feMerge>
</filter>
<g opacity="0.5" filter="url(#AI_Shadow_1)">
	<polygon fill="#e2e2e2" points="29.733,31.461 29.243,27.261 26.374,25.371 25.674,13.82 28.194,12 28.474,6.471 23.993,6.471 
		23.993,9.201 21.265,9.201 21.265,6.471 16.784,6.471 16.784,9.201 14.054,9.201 14.054,6.471 9.504,6.471 9.784,12 12.653,13.891 
		11.884,25.441 9.084,27.261 8.664,31.461 	"/>
</g>
<polygon fill="#e2e2e2" points="26.724,25.16 25.884,13.961 28.404,12.141 28.684,6.261 23.784,6.261 23.784,8.781 21.474,8.781 
	21.474,6.261 19.024,6.261 16.573,6.261 16.573,8.781 14.265,8.781 14.265,6.261 9.294,6.261 9.574,12.141 12.164,13.961 
	11.254,25.16 8.594,27.191 8.104,31.671 19.024,31.671 29.944,31.671 29.454,27.191 "/>
<path fill="#666666" d="M19.007,31.686H8.075l0.495-4.502l2.711-2.012l0.853-11.238l-2.541-1.824l-0.29-5.815h4.928v2.507h2.337
	V6.294h2.439h2.437v2.507h2.337V6.294h4.927l-0.29,5.815l-2.54,1.824l0.853,11.238l2.712,2.012l0.493,4.502H19.007z M19.007,30.424
	h9.497l-0.257-2.541l-2.744-2.029L24.581,13.32l2.593-1.858l0.222-3.923h-2.354v2.523h-4.859V7.54h-1.176h-1.178v2.524H12.97V7.54
	h-2.353l0.222,3.923l2.592,1.858l-0.92,12.532l-2.746,2.029L9.51,30.424H19.007L19.007,30.424z M19.007,25.854H12.51l0.085-1.262
	h6.412h6.41l0.086,1.262H19.007z M19.007,14.582h-5.662l0.084-1.262h5.578h5.574l0.086,1.262H19.007z"/>
<g>
	<path fill="#e2e2e2" d="M28.708,6.294h0.003 M28.708,6.294l-0.29,5.815l-2.54,1.824l0.852,11.238l2.713,2.012l0.493,4.479H19.007
		H8.075L8.57,27.16l2.711-2.012l0.853-11.236l-2.541-1.825l-0.29-5.815h4.928v2.507h2.337V6.294h2.439h2.437v2.507h2.337V6.294
		H28.708 M28.711,5.508h-0.003H23.78c-0.434,0-0.786,0.352-0.786,0.786v1.721h-0.765V6.294c0-0.434-0.352-0.786-0.785-0.786h-2.438
		h-2.439c-0.435,0-0.787,0.352-0.787,0.786v1.721h-0.764V6.294c0-0.434-0.352-0.786-0.786-0.786H9.303
		c-0.215,0-0.421,0.088-0.57,0.244C8.585,5.909,8.507,6.119,8.518,6.333l0.29,5.816c0.012,0.21,0.14,0.49,0.35,0.63l2.182,1.567
		l-0.815,10.407l-2.422,1.798c-0.176,0.13-0.29,0.329-0.313,0.546L7.294,31.6c-0.024,0.209,0.07,0.42,0.21,0.63
		s0.362,0.28,0.56,0.261h10.931h10.928c0.225,0,0.437-0.095,0.586-0.261c0.15-0.166,0.221-0.389,0.196-0.61l-0.493-4.502
		c-0.025-0.219-0.138-0.416-0.313-0.547l-2.423-1.797l-0.793-10.439l2.182-1.566c0.194-0.14,0.314-0.361,0.328-0.6l0.287-5.762
		c0.002-0.03,0.005-0.061,0.005-0.092c0.012-0.473-0.311-0.823-0.801-0.806H28.711z"/>
</g>
</svg>
